<svg width="16" height="8" viewBox="0 0 16 8" fill="none" xmlns="http://www.w3.org/2000/svg">
<path d="M12 0C14.2091 0 16 1.79086 16 4C16 6.1422 14.316 7.89108 12.1996 7.9951L12 8H10C9.58579 8 9.25 7.66421 9.25 7.25C9.25 6.8703 9.53215 6.55651 9.89823 6.50685L10 6.5H12C13.3807 6.5 14.5 5.38071 14.5 4C14.5 2.67452 13.4685 1.58996 12.1644 1.50532L12 1.5H10C9.58579 1.5 9.25 1.16421 9.25 0.75C9.25 0.370304 9.53215 0.0565088 9.89823 0.00684643L10 0H12ZM6 0C6.41421 0 6.75 0.335786 6.75 0.75C6.75 1.1297 6.46785 1.44349 6.10177 1.49315L6 1.5H4C2.61929 1.5 1.5 2.61929 1.5 4C1.5 5.32548 2.53154 6.41004 3.83562 6.49468L4 6.5H6C6.41421 6.5 6.75 6.83579 6.75 7.25C6.75 7.6297 6.46785 7.94349 6.10177 7.99315L6 8H4C1.79086 8 0 6.20914 0 4C0 1.8578 1.68397 0.108921 3.80036 0.00489521L4 0H6ZM4.25 3.25H11.75C12.1642 3.25 12.5 3.58579 12.5 4C12.5 4.3797 12.2178 4.69349 11.8518 4.74315L11.75 4.75H4.25C3.83579 4.75 3.5 4.41421 3.5 4C3.5 3.6203 3.78215 3.30651 4.14823 3.25685L4.25 3.25H11.75H4.25Z" fill="#212121"/>
</svg>
