<svg width="1596" height="106" viewBox="0 0 1596 106" fill="none" xmlns="http://www.w3.org/2000/svg">
<line y1="104.174" x2="899.964" y2="104.174" stroke="url(#paint0_linear_78_961)" stroke-opacity="0.36"/>
<line y1="81.1953" x2="899.964" y2="81.1953" stroke="url(#paint1_linear_78_961)" stroke-opacity="0.36"/>
<line y1="64.3457" x2="899.964" y2="64.3457" stroke="url(#paint2_linear_78_961)" stroke-opacity="0.36"/>
<line y1="19.1553" x2="899.964" y2="19.1553" stroke="url(#paint3_linear_78_961)" stroke-opacity="0.36"/>
<path d="M720.929 64.4678L676.888 104.679" stroke="#B9C0CA" stroke-opacity="0.3"/>
<path d="M680.718 64.4678L636.677 104.679" stroke="#B9C0CA" stroke-opacity="0.3"/>
<path d="M641.464 64.4678L597.423 104.679" stroke="#B9C0CA" stroke-opacity="0.3"/>
<path d="M597.423 64.4678L553.382 104.679" stroke="#B9C0CA" stroke-opacity="0.3"/>
<path d="M351.369 64.4678L307.328 104.679" stroke="#B9C0CA" stroke-opacity="0.3"/>
<path d="M312.115 64.4678L268.074 104.679" stroke="#B9C0CA" stroke-opacity="0.3"/>
<path d="M268.074 64.4678L224.033 104.679" stroke="#B9C0CA" stroke-opacity="0.3"/>
<path d="M206.8 64.4678L162.759 104.679" stroke="#B9C0CA" stroke-opacity="0.3"/>
<path d="M272.798 3.30136C272.85 3.38663 272.884 3.40368 272.94 3.35252C272.986 3.31273 273.026 3.31273 273.049 3.34684C273.066 3.37526 273.134 3.38663 273.191 3.36957C273.247 3.35252 273.35 3.36957 273.418 3.40368C273.498 3.44916 273.571 3.45484 273.645 3.41505C273.742 3.3582 273.952 3.39799 274.22 3.52306C274.265 3.54011 274.418 3.56285 274.555 3.57422C274.845 3.58559 275.038 3.67086 274.981 3.75613C274.959 3.79592 274.987 3.79592 275.061 3.75613C275.157 3.70497 275.197 3.71634 275.294 3.8414C275.362 3.92667 275.413 4.01194 275.413 4.04036C275.413 4.0631 275.459 4.08015 275.51 4.08015C275.68 4.07447 275.925 4.19953 275.959 4.30185C275.982 4.3587 276.027 4.48376 276.073 4.58608C276.118 4.68272 276.152 4.77936 276.152 4.8021C276.152 4.88737 275.925 5.33076 275.84 5.39898C275.794 5.43877 275.754 5.52404 275.754 5.59226C275.754 5.65479 275.686 5.86512 275.612 6.05271C275.533 6.2403 275.47 6.44495 275.47 6.50748C275.464 6.72918 275.322 7.1669 275.271 7.12142C275.243 7.09868 275.254 7.12142 275.294 7.17258C275.351 7.25217 275.356 7.29196 275.305 7.35449C275.266 7.40565 275.254 7.54208 275.277 7.74104C275.305 7.99117 275.288 8.10486 275.192 8.33224C275.123 8.48004 275.027 8.65058 274.976 8.70743C274.913 8.77564 274.868 8.97461 274.845 9.28157C274.794 9.8614 274.401 11.1234 274.134 11.5497C274.032 11.7146 273.867 11.9818 273.776 12.1409C273.668 12.3228 273.537 12.4593 273.429 12.5047C273.333 12.5445 273.253 12.6071 273.253 12.6412C273.253 12.6753 273.321 12.9197 273.401 13.1869C273.475 13.4541 273.566 13.8236 273.594 14.0055C273.623 14.1931 273.679 14.3636 273.719 14.3864C273.759 14.4148 273.77 14.4375 273.742 14.4375C273.714 14.4375 273.719 14.4716 273.753 14.5114C273.788 14.5512 273.907 14.8184 274.015 15.1083C274.157 15.4778 274.299 15.7336 274.515 15.9951C274.856 16.4044 275.203 17.0013 275.743 18.0927C276.124 18.8772 276.203 19.1103 276.351 19.9857C276.465 20.6281 276.437 21.9014 276.294 22.4528C276.198 22.8621 276.095 23.7944 276.095 24.3174C276.095 24.5504 276.044 25.1758 275.987 25.7101C275.76 27.6997 275.743 27.9101 275.743 28.7116C275.743 29.1607 275.766 30.2066 275.8 31.0366C275.862 32.5487 275.919 32.9637 276.118 33.2252C276.169 33.2877 276.209 33.3616 276.209 33.39C276.209 33.4355 275.442 33.4014 274.998 33.3332C274.856 33.3104 274.788 33.3218 274.788 33.3673C274.788 33.4469 275.18 33.9244 275.561 34.3053C275.76 34.5042 275.891 34.6918 275.976 34.9306C276.044 35.1182 276.141 35.3285 276.186 35.4024C276.232 35.4763 276.266 35.6013 276.255 35.6866C276.249 35.7833 276.385 36.1357 276.647 36.6644C277.21 37.807 277.488 38.5517 278.023 40.3309C278.688 42.5593 278.932 43.7701 278.966 44.9923C278.983 45.7029 278.989 45.7484 279.188 46.2032C279.336 46.5329 279.415 46.8114 279.449 47.1411C279.552 48.0393 279.603 49.1478 279.557 49.648C279.512 50.1255 279.518 50.1881 279.677 50.6428C279.768 50.91 279.859 51.2738 279.881 51.4444C279.904 51.6149 279.967 51.848 280.024 51.9617C280.08 52.0697 280.149 52.3766 280.183 52.6438C280.211 52.9053 280.342 53.8888 280.467 54.821C280.598 55.759 280.717 56.7822 280.734 57.0949C280.768 57.6235 280.785 57.6974 280.979 58.0101C281.178 58.3398 281.183 58.3682 281.189 58.9196C281.195 59.5563 281.251 59.7098 281.695 60.3408C281.831 60.5284 282.007 60.824 282.093 60.9945C282.235 61.2788 282.246 61.3413 282.212 61.7392C282.184 62.1087 282.189 62.1826 282.28 62.2622C282.462 62.427 283.633 62.9785 284.043 63.0921C284.259 63.149 284.497 63.2343 284.571 63.2741C284.645 63.3138 284.867 63.348 285.06 63.348C285.378 63.3536 285.464 63.3252 286.169 62.9671C287.021 62.5351 287.243 62.5009 287.692 62.717C287.971 62.8591 288.289 63.2911 288.226 63.456C288.187 63.5697 286.976 64.5588 286.453 64.9112C285.731 65.3944 284.969 65.7071 283.23 66.2187C282.695 66.3722 281.752 66.6848 281.126 66.9065C280.501 67.1282 279.898 67.3158 279.79 67.3215C279.603 67.3329 279.591 67.3215 279.483 67.0259C279.393 66.7758 279.387 66.6905 279.438 66.5484C279.495 66.3949 279.489 66.3494 279.364 66.1675C279.12 65.8151 278.943 65.3489 278.733 64.5417C278.625 64.104 278.392 63.3138 278.216 62.7852C278.045 62.2508 277.818 61.4493 277.716 60.9945C277.619 60.5398 277.471 60.0395 277.392 59.886C277.312 59.7269 277.176 59.3858 277.09 59.1186C277.005 58.8514 276.846 58.4251 276.738 58.1693C276.635 57.9078 276.488 57.436 276.408 57.1176C276.266 56.5094 276.027 55.7533 275.675 54.7585C275.413 54.0422 275.089 52.6609 275.015 51.9844C274.981 51.7002 274.93 50.9043 274.902 50.2108C274.856 49.1023 274.833 48.9318 274.731 48.7612C274.669 48.6589 274.617 48.5282 274.617 48.4713C274.617 48.4145 274.555 48.2496 274.481 48.1018C274.407 47.954 274.333 47.7323 274.31 47.6073C274.288 47.4822 274.197 47.1752 274.1 46.9251C273.935 46.4874 273.776 46.2429 272.571 44.566C272.366 44.2874 271.98 43.6564 271.707 43.1676C271.144 42.1557 271.207 42.1387 271.087 43.2869C270.991 44.2818 270.758 45.845 270.61 46.5272C270.536 46.8683 270.434 47.3514 270.388 47.5902C270.331 47.8972 270.24 48.1359 270.075 48.4031C269.95 48.6134 269.82 48.909 269.786 49.0682C269.689 49.5287 269.535 49.8129 269.194 50.1881C268.723 50.6997 268.086 51.2795 267.728 51.5126C267.051 51.9617 265.101 54.1616 264.317 55.3554C263.828 56.1001 263.584 56.4468 263.356 56.697C263.243 56.8277 263.083 57.0892 263.009 57.2825C262.867 57.6235 262.867 57.6406 262.947 58.0726C263.066 58.7036 262.941 59.8121 262.674 60.4261C262.435 60.9888 262.225 61.6085 262.225 61.7619C262.225 61.9382 262.657 63.0182 262.839 63.2911C263.015 63.5526 263.402 63.8311 264.061 64.1779C264.379 64.3484 264.522 64.4621 264.59 64.5929C264.641 64.6952 264.721 64.8146 264.766 64.8657C264.823 64.934 264.84 65.0704 264.829 65.3205C264.811 65.673 264.806 65.6843 264.607 65.7867C264.232 65.9686 263.333 66.0254 262.02 65.9515C260.071 65.8435 259.86 65.7241 258.826 64.1495C258.502 63.6492 257.973 62.9216 257.66 62.5294C256.995 61.6994 256.785 61.3072 256.876 61.0457C256.91 60.9547 256.978 60.8069 257.035 60.7217C257.097 60.6364 257.171 60.5056 257.205 60.4261C257.245 60.3465 257.387 60.0395 257.524 59.7439C257.666 59.4483 257.893 59.0276 258.041 58.8116C258.183 58.5956 258.342 58.3 258.399 58.1579C259.127 56.1683 259.61 55.2303 260.548 54.0024C260.957 53.4681 261.293 52.8598 261.429 52.4108C261.674 51.5808 262.083 50.9271 262.97 49.9266C263.646 49.1648 264.021 48.784 264.289 48.585C264.402 48.4997 264.561 48.3008 264.641 48.1473C264.715 47.9995 264.84 47.829 264.908 47.7664C265.153 47.5731 265.249 47.2434 265.249 46.6295C265.249 46.0497 265.164 45.5778 264.743 43.8554C264.516 42.9231 264.505 42.7924 264.55 39.8193C264.567 38.762 264.493 38.1367 264.334 37.915C263.976 37.4204 263.76 36.4938 263.76 35.4706C263.76 35.0727 263.783 34.7316 263.811 34.7032C263.839 34.6691 263.919 34.3564 263.982 34.004C264.05 33.6515 264.129 33.3048 264.158 33.2309C264.186 33.157 264.186 33.0774 264.158 33.049C264.135 33.0205 264.163 32.7306 264.226 32.4009C264.289 32.0712 264.34 31.7415 264.34 31.6619C264.334 31.5823 264.334 31.3265 264.328 31.0878C264.317 30.5761 264.419 29.6382 264.527 29.2459C264.567 29.0868 264.618 28.831 264.641 28.6775C264.664 28.5183 264.715 28.2 264.76 27.9669C264.885 27.3416 264.874 26.8868 264.709 26.091C264.556 25.3463 264.442 24.1014 264.442 23.1407C264.442 22.828 264.408 22.4017 264.362 22.1856C264.277 21.7991 264.124 20.2415 264.067 19.1842C264.05 18.8715 263.999 18.4907 263.953 18.3372C263.862 18.0075 263.851 17.2798 263.93 16.9956C263.964 16.8876 264.016 16.592 264.05 16.3419C264.118 15.8246 264.328 15.33 264.641 14.9662C264.811 14.7672 265.602 14.0623 266.511 13.2949C266.676 13.1585 267.404 12.6639 267.932 12.3285C268.137 12.1978 268.154 12.1637 268.171 11.9079C268.182 11.6464 268.177 11.635 268.097 11.7373C268.012 11.8453 268.012 11.8396 268.046 11.6634C268.063 11.5611 268.057 11.4872 268.029 11.5043C267.955 11.5554 267.91 11.3053 267.972 11.1916C268.018 11.1063 268.006 11.095 267.938 11.1234C267.876 11.1461 267.893 11.0893 267.995 10.9358C268.126 10.7425 268.143 10.68 268.109 10.4356C268.092 10.2821 268.046 10.1058 268.018 10.049C267.984 9.98078 267.984 9.90688 268.023 9.83867C268.109 9.6795 268.097 9.65107 267.966 9.71929C267.881 9.76477 267.853 9.76477 267.853 9.7136C267.853 9.66813 267.83 9.66813 267.767 9.71929C267.699 9.77613 267.682 9.77613 267.682 9.71929C267.682 9.6795 267.648 9.66244 267.608 9.6795C267.557 9.69655 267.586 9.56012 267.694 9.25315C267.779 9.00871 267.824 8.82112 267.785 8.84386C267.739 8.87228 267.733 8.85523 267.767 8.77564C267.796 8.7188 267.824 8.3834 267.836 8.04233C267.841 7.69556 267.864 7.2749 267.887 7.10437C267.904 6.93383 267.915 6.68939 267.91 6.56433C267.904 6.26873 268.012 5.81964 268.114 5.73438C268.16 5.70026 268.194 5.60931 268.194 5.52973C268.194 5.25687 268.489 4.75093 268.882 4.36438C269.564 3.67654 270.638 3.27293 271.497 3.38663C271.707 3.40937 271.769 3.39799 271.792 3.32978C271.832 3.22746 272.088 3.2104 272.31 3.28999C272.412 3.32978 272.469 3.3241 272.514 3.26157C272.611 3.14787 272.724 3.16492 272.798 3.30136ZM275.317 4.21658C275.334 4.26206 275.351 4.245 275.351 4.18247C275.356 4.11994 275.339 4.08583 275.322 4.10857C275.305 4.12563 275.3 4.17679 275.317 4.21658ZM267.927 8.13897C267.944 8.17876 267.955 8.15033 267.955 8.07075C267.955 7.99117 267.944 7.96274 267.927 7.99685C267.915 8.03664 267.915 8.10486 267.927 8.13897Z" fill="#B9C0CA" fill-opacity="0.5"/>
<path d="M184.717 3.30136C184.768 3.38663 184.802 3.40368 184.859 3.35252C184.905 3.31273 184.944 3.31273 184.967 3.34684C184.984 3.37526 185.052 3.38663 185.109 3.36957C185.166 3.35252 185.268 3.36957 185.337 3.40368C185.416 3.44916 185.49 3.45484 185.564 3.41505C185.661 3.3582 185.871 3.39799 186.138 3.52306C186.184 3.54011 186.337 3.56285 186.474 3.57422C186.764 3.58559 186.957 3.67086 186.9 3.75613C186.877 3.79592 186.906 3.79592 186.98 3.75613C187.076 3.70497 187.116 3.71634 187.213 3.8414C187.281 3.92667 187.332 4.01194 187.332 4.04036C187.332 4.0631 187.377 4.08015 187.429 4.08015C187.599 4.07447 187.844 4.19953 187.878 4.30185C187.9 4.3587 187.946 4.48376 187.991 4.58608C188.037 4.68272 188.071 4.77936 188.071 4.8021C188.071 4.88737 187.844 5.33076 187.758 5.39898C187.713 5.43877 187.673 5.52404 187.673 5.59226C187.673 5.65479 187.605 5.86512 187.531 6.05271C187.451 6.2403 187.389 6.44495 187.389 6.50748C187.383 6.72918 187.241 7.1669 187.19 7.12142C187.161 7.09868 187.173 7.12142 187.213 7.17258C187.269 7.25217 187.275 7.29196 187.224 7.35449C187.184 7.40565 187.173 7.54208 187.196 7.74104C187.224 7.99117 187.207 8.10486 187.11 8.33224C187.042 8.48004 186.945 8.65058 186.894 8.70743C186.832 8.77564 186.786 8.97461 186.764 9.28157C186.712 9.8614 186.32 11.1234 186.053 11.5497C185.951 11.7146 185.786 11.9818 185.695 12.1409C185.587 12.3228 185.456 12.4593 185.348 12.5047C185.251 12.5445 185.172 12.6071 185.172 12.6412C185.172 12.6753 185.24 12.9197 185.32 13.1869C185.394 13.4541 185.485 13.8236 185.513 14.0055C185.541 14.1931 185.598 14.3636 185.638 14.3864C185.678 14.4148 185.689 14.4375 185.661 14.4375C185.632 14.4375 185.638 14.4716 185.672 14.5114C185.706 14.5512 185.826 14.8184 185.934 15.1083C186.076 15.4778 186.218 15.7336 186.434 15.9951C186.775 16.4044 187.122 17.0013 187.662 18.0927C188.043 18.8772 188.122 19.1103 188.27 19.9857C188.384 20.6281 188.355 21.9014 188.213 22.4528C188.116 22.8621 188.014 23.7944 188.014 24.3174C188.014 24.5504 187.963 25.1758 187.906 25.7101C187.679 27.6997 187.662 27.9101 187.662 28.7116C187.662 29.1607 187.684 30.2066 187.719 31.0366C187.781 32.5487 187.838 32.9637 188.037 33.2252C188.088 33.2877 188.128 33.3616 188.128 33.39C188.128 33.4355 187.36 33.4014 186.917 33.3332C186.775 33.3104 186.707 33.3218 186.707 33.3673C186.707 33.4469 187.099 33.9244 187.48 34.3053C187.679 34.5042 187.81 34.6918 187.895 34.9306C187.963 35.1182 188.06 35.3285 188.105 35.4024C188.151 35.4763 188.185 35.6013 188.173 35.6866C188.168 35.7833 188.304 36.1357 188.566 36.6644C189.128 37.807 189.407 38.5517 189.941 40.3309C190.606 42.5593 190.851 43.7701 190.885 44.9923C190.902 45.7029 190.908 45.7484 191.107 46.2032C191.254 46.5329 191.334 46.8114 191.368 47.1411C191.47 48.0393 191.522 49.1478 191.476 49.648C191.431 50.1255 191.436 50.1881 191.595 50.6428C191.686 50.91 191.777 51.2738 191.8 51.4444C191.823 51.6149 191.885 51.848 191.942 51.9617C191.999 52.0697 192.067 52.3766 192.101 52.6438C192.13 52.9053 192.261 53.8888 192.386 54.821C192.516 55.759 192.636 56.7822 192.653 57.0949C192.687 57.6235 192.704 57.6974 192.897 58.0101C193.096 58.3398 193.102 58.3682 193.108 58.9196C193.113 59.5563 193.17 59.7098 193.614 60.3408C193.75 60.5284 193.926 60.824 194.011 60.9945C194.154 61.2788 194.165 61.3413 194.131 61.7392C194.102 62.1087 194.108 62.1826 194.199 62.2622C194.381 62.427 195.552 62.9785 195.961 63.0921C196.177 63.149 196.416 63.2343 196.49 63.2741C196.564 63.3138 196.786 63.348 196.979 63.348C197.297 63.3536 197.382 63.3252 198.087 62.9671C198.94 62.5351 199.162 62.5009 199.611 62.717C199.889 62.8591 200.208 63.2911 200.145 63.456C200.105 63.5697 198.895 64.5588 198.372 64.9112C197.65 65.3944 196.888 65.7071 195.148 66.2187C194.614 66.3722 193.67 66.6848 193.045 66.9065C192.42 67.1282 191.817 67.3158 191.709 67.3215C191.522 67.3329 191.51 67.3215 191.402 67.0259C191.311 66.7758 191.306 66.6905 191.357 66.5484C191.414 66.3949 191.408 66.3494 191.283 66.1675C191.038 65.8151 190.862 65.3489 190.652 64.5417C190.544 64.104 190.311 63.3138 190.135 62.7852C189.964 62.2508 189.737 61.4493 189.634 60.9945C189.538 60.5398 189.39 60.0395 189.31 59.886C189.231 59.7269 189.094 59.3858 189.009 59.1186C188.924 58.8514 188.765 58.4251 188.657 58.1693C188.554 57.9078 188.406 57.436 188.327 57.1176C188.185 56.5094 187.946 55.7533 187.593 54.7585C187.332 54.0422 187.008 52.6609 186.934 51.9844C186.9 51.7002 186.849 50.9043 186.82 50.2108C186.775 49.1023 186.752 48.9318 186.65 48.7612C186.587 48.6589 186.536 48.5282 186.536 48.4713C186.536 48.4145 186.474 48.2496 186.4 48.1018C186.326 47.954 186.252 47.7323 186.229 47.6073C186.206 47.4822 186.115 47.1752 186.019 46.9251C185.854 46.4874 185.695 46.2429 184.49 44.566C184.285 44.2874 183.898 43.6564 183.626 43.1676C183.063 42.1557 183.125 42.1387 183.006 43.2869C182.909 44.2818 182.676 45.845 182.529 46.5272C182.455 46.8683 182.352 47.3514 182.307 47.5902C182.25 47.8972 182.159 48.1359 181.994 48.4031C181.869 48.6134 181.738 48.909 181.704 49.0682C181.608 49.5287 181.454 49.8129 181.113 50.1881C180.641 50.6997 180.005 51.2795 179.646 51.5126C178.97 51.9617 177.02 54.1616 176.236 55.3554C175.747 56.1001 175.502 56.4468 175.275 56.697C175.161 56.8277 175.002 57.0892 174.928 57.2825C174.786 57.6235 174.786 57.6406 174.866 58.0726C174.985 58.7036 174.86 59.8121 174.593 60.4261C174.354 60.9888 174.144 61.6085 174.144 61.7619C174.144 61.9382 174.576 63.0182 174.758 63.2911C174.934 63.5526 175.32 63.8311 175.98 64.1779C176.298 64.3484 176.44 64.4621 176.508 64.5929C176.56 64.6952 176.639 64.8146 176.685 64.8657C176.742 64.934 176.759 65.0704 176.747 65.3205C176.73 65.673 176.725 65.6843 176.526 65.7867C176.15 65.9686 175.252 66.0254 173.939 65.9515C171.989 65.8435 171.779 65.7241 170.744 64.1495C170.42 63.6492 169.892 62.9216 169.579 62.5294C168.914 61.6994 168.704 61.3072 168.794 61.0457C168.829 60.9547 168.897 60.8069 168.954 60.7217C169.016 60.6364 169.09 60.5056 169.124 60.4261C169.164 60.3465 169.306 60.0395 169.443 59.7439C169.585 59.4483 169.812 59.0276 169.96 58.8116C170.102 58.5956 170.261 58.3 170.318 58.1579C171.046 56.1683 171.529 55.2303 172.467 54.0024C172.876 53.4681 173.211 52.8598 173.348 52.4108C173.592 51.5808 174.002 50.9271 174.888 49.9266C175.565 49.1648 175.94 48.784 176.207 48.585C176.321 48.4997 176.48 48.3008 176.56 48.1473C176.634 47.9995 176.759 47.829 176.827 47.7664C177.071 47.5731 177.168 47.2434 177.168 46.6295C177.168 46.0497 177.083 45.5778 176.662 43.8554C176.435 42.9231 176.423 42.7924 176.469 39.8193C176.486 38.762 176.412 38.1367 176.253 37.915C175.895 37.4204 175.679 36.4938 175.679 35.4706C175.679 35.0727 175.701 34.7316 175.73 34.7032C175.758 34.6691 175.838 34.3564 175.9 34.004C175.968 33.6515 176.048 33.3048 176.076 33.2309C176.105 33.157 176.105 33.0774 176.076 33.049C176.054 33.0205 176.082 32.7306 176.145 32.4009C176.207 32.0712 176.258 31.7415 176.258 31.6619C176.253 31.5823 176.253 31.3265 176.247 31.0878C176.236 30.5761 176.338 29.6382 176.446 29.2459C176.486 29.0868 176.537 28.831 176.56 28.6775C176.582 28.5183 176.634 28.2 176.679 27.9669C176.804 27.3416 176.793 26.8868 176.628 26.091C176.474 25.3463 176.361 24.1014 176.361 23.1407C176.361 22.828 176.327 22.4017 176.281 22.1856C176.196 21.7991 176.042 20.2415 175.986 19.1842C175.968 18.8715 175.917 18.4907 175.872 18.3372C175.781 18.0075 175.769 17.2798 175.849 16.9956C175.883 16.8876 175.934 16.592 175.968 16.3419C176.037 15.8246 176.247 15.33 176.56 14.9662C176.73 14.7672 177.52 14.0623 178.43 13.2949C178.595 13.1585 179.322 12.6639 179.851 12.3285C180.056 12.1978 180.073 12.1637 180.09 11.9079C180.101 11.6464 180.095 11.635 180.016 11.7373C179.931 11.8453 179.931 11.8396 179.965 11.6634C179.982 11.5611 179.976 11.4872 179.948 11.5043C179.874 11.5554 179.828 11.3053 179.891 11.1916C179.936 11.1063 179.925 11.095 179.857 11.1234C179.794 11.1461 179.811 11.0893 179.914 10.9358C180.044 10.7425 180.061 10.68 180.027 10.4356C180.01 10.2821 179.965 10.1058 179.936 10.049C179.902 9.98078 179.902 9.90688 179.942 9.83867C180.027 9.6795 180.016 9.65107 179.885 9.71929C179.8 9.76477 179.771 9.76477 179.771 9.7136C179.771 9.66813 179.749 9.66813 179.686 9.71929C179.618 9.77613 179.601 9.77613 179.601 9.71929C179.601 9.6795 179.567 9.66244 179.527 9.6795C179.476 9.69655 179.504 9.56012 179.612 9.25315C179.698 9.00871 179.743 8.82112 179.703 8.84386C179.658 8.87228 179.652 8.85523 179.686 8.77564C179.715 8.7188 179.743 8.3834 179.754 8.04233C179.76 7.69556 179.783 7.2749 179.806 7.10437C179.823 6.93383 179.834 6.68939 179.828 6.56433C179.823 6.26873 179.931 5.81964 180.033 5.73438C180.078 5.70026 180.113 5.60931 180.113 5.52973C180.113 5.25687 180.408 4.75093 180.8 4.36438C181.483 3.67654 182.557 3.27293 183.415 3.38663C183.626 3.40937 183.688 3.39799 183.711 3.32978C183.751 3.22746 184.007 3.2104 184.228 3.28999C184.331 3.32978 184.387 3.3241 184.433 3.26157C184.529 3.14787 184.643 3.16492 184.717 3.30136ZM187.235 4.21658C187.252 4.26206 187.269 4.245 187.269 4.18247C187.275 4.11994 187.258 4.08583 187.241 4.10857C187.224 4.12563 187.218 4.17679 187.235 4.21658ZM179.845 8.13897C179.862 8.17876 179.874 8.15033 179.874 8.07075C179.874 7.99117 179.862 7.96274 179.845 7.99685C179.834 8.03664 179.834 8.10486 179.845 8.13897Z" fill="#B9C0CA" fill-opacity="0.5"/>
<path d="M340.774 3.30136C340.825 3.38663 340.859 3.40368 340.916 3.35252C340.961 3.31273 341.001 3.31273 341.024 3.34684C341.041 3.37526 341.109 3.38663 341.166 3.36957C341.223 3.35252 341.325 3.36957 341.393 3.40368C341.473 3.44916 341.547 3.45484 341.621 3.41505C341.717 3.3582 341.928 3.39799 342.195 3.52306C342.24 3.54011 342.394 3.56285 342.53 3.57422C342.82 3.58559 343.013 3.67086 342.957 3.75613C342.934 3.79592 342.962 3.79592 343.036 3.75613C343.133 3.70497 343.173 3.71634 343.269 3.8414C343.337 3.92667 343.389 4.01194 343.389 4.04036C343.389 4.0631 343.434 4.08015 343.485 4.08015C343.656 4.07447 343.9 4.19953 343.934 4.30185C343.957 4.3587 344.003 4.48376 344.048 4.58608C344.094 4.68272 344.128 4.77936 344.128 4.8021C344.128 4.88737 343.9 5.33076 343.815 5.39898C343.77 5.43877 343.73 5.52404 343.73 5.59226C343.73 5.65479 343.662 5.86512 343.588 6.05271C343.508 6.2403 343.445 6.44495 343.445 6.50748C343.44 6.72918 343.298 7.1669 343.247 7.12142C343.218 7.09868 343.229 7.12142 343.269 7.17258C343.326 7.25217 343.332 7.29196 343.281 7.35449C343.241 7.40565 343.229 7.54208 343.252 7.74104C343.281 7.99117 343.264 8.10486 343.167 8.33224C343.099 8.48004 343.002 8.65058 342.951 8.70743C342.888 8.77564 342.843 8.97461 342.82 9.28157C342.769 9.8614 342.377 11.1234 342.11 11.5497C342.007 11.7146 341.842 11.9818 341.751 12.1409C341.643 12.3228 341.513 12.4593 341.405 12.5047C341.308 12.5445 341.228 12.6071 341.228 12.6412C341.228 12.6753 341.297 12.9197 341.376 13.1869C341.45 13.4541 341.541 13.8236 341.57 14.0055C341.598 14.1931 341.655 14.3636 341.695 14.3864C341.734 14.4148 341.746 14.4375 341.717 14.4375C341.689 14.4375 341.695 14.4716 341.729 14.5114C341.763 14.5512 341.882 14.8184 341.99 15.1083C342.132 15.4778 342.274 15.7336 342.49 15.9951C342.832 16.4044 343.178 17.0013 343.718 18.0927C344.099 18.8772 344.179 19.1103 344.327 19.9857C344.44 20.6281 344.412 21.9014 344.27 22.4528C344.173 22.8621 344.071 23.7944 344.071 24.3174C344.071 24.5504 344.02 25.1758 343.963 25.7101C343.735 27.6997 343.718 27.9101 343.718 28.7116C343.718 29.1607 343.741 30.2066 343.775 31.0366C343.838 32.5487 343.895 32.9637 344.094 33.2252C344.145 33.2877 344.184 33.3616 344.184 33.39C344.184 33.4355 343.417 33.4014 342.974 33.3332C342.832 33.3104 342.763 33.3218 342.763 33.3673C342.763 33.4469 343.156 33.9244 343.536 34.3053C343.735 34.5042 343.866 34.6918 343.951 34.9306C344.02 35.1182 344.116 35.3285 344.162 35.4024C344.207 35.4763 344.241 35.6013 344.23 35.6866C344.224 35.7833 344.361 36.1357 344.622 36.6644C345.185 37.807 345.464 38.5517 345.998 40.3309C346.663 42.5593 346.907 43.7701 346.942 44.9923C346.959 45.7029 346.964 45.7484 347.163 46.2032C347.311 46.5329 347.391 46.8114 347.425 47.1411C347.527 48.0393 347.578 49.1478 347.533 49.648C347.487 50.1255 347.493 50.1881 347.652 50.6428C347.743 50.91 347.834 51.2738 347.857 51.4444C347.879 51.6149 347.942 51.848 347.999 51.9617C348.056 52.0697 348.124 52.3766 348.158 52.6438C348.186 52.9053 348.317 53.8888 348.442 54.821C348.573 55.759 348.692 56.7822 348.709 57.0949C348.744 57.6235 348.761 57.6974 348.954 58.0101C349.153 58.3398 349.159 58.3682 349.164 58.9196C349.17 59.5563 349.227 59.7098 349.67 60.3408C349.807 60.5284 349.983 60.824 350.068 60.9945C350.21 61.2788 350.222 61.3413 350.187 61.7392C350.159 62.1087 350.165 62.1826 350.256 62.2622C350.438 62.427 351.609 62.9785 352.018 63.0921C352.234 63.149 352.473 63.2343 352.547 63.2741C352.62 63.3138 352.842 63.348 353.035 63.348C353.354 63.3536 353.439 63.3252 354.144 62.9671C354.997 62.5351 355.218 62.5009 355.667 62.717C355.946 62.8591 356.264 63.2911 356.202 63.456C356.162 63.5697 354.951 64.5588 354.428 64.9112C353.706 65.3944 352.944 65.7071 351.205 66.2187C350.671 66.3722 349.727 66.6848 349.102 66.9065C348.476 67.1282 347.874 67.3158 347.766 67.3215C347.578 67.3329 347.567 67.3215 347.459 67.0259C347.368 66.7758 347.362 66.6905 347.413 66.5484C347.47 66.3949 347.465 66.3494 347.339 66.1675C347.095 65.8151 346.919 65.3489 346.708 64.5417C346.6 64.104 346.367 63.3138 346.191 62.7852C346.021 62.2508 345.793 61.4493 345.691 60.9945C345.594 60.5398 345.446 60.0395 345.367 59.886C345.287 59.7269 345.151 59.3858 345.066 59.1186C344.98 58.8514 344.821 58.4251 344.713 58.1693C344.611 57.9078 344.463 57.436 344.383 57.1176C344.241 56.5094 344.003 55.7533 343.65 54.7585C343.389 54.0422 343.065 52.6609 342.991 51.9844C342.957 51.7002 342.905 50.9043 342.877 50.2108C342.832 49.1023 342.809 48.9318 342.706 48.7612C342.644 48.6589 342.593 48.5282 342.593 48.4713C342.593 48.4145 342.53 48.2496 342.456 48.1018C342.382 47.954 342.309 47.7323 342.286 47.6073C342.263 47.4822 342.172 47.1752 342.075 46.9251C341.911 46.4874 341.751 46.2429 340.546 44.566C340.342 44.2874 339.955 43.6564 339.682 43.1676C339.119 42.1557 339.182 42.1387 339.063 43.2869C338.966 44.2818 338.733 45.845 338.585 46.5272C338.511 46.8683 338.409 47.3514 338.363 47.5902C338.307 47.8972 338.216 48.1359 338.051 48.4031C337.926 48.6134 337.795 48.909 337.761 49.0682C337.664 49.5287 337.511 49.8129 337.17 50.1881C336.698 50.6997 336.061 51.2795 335.703 51.5126C335.027 51.9617 333.077 54.1616 332.292 55.3554C331.803 56.1001 331.559 56.4468 331.332 56.697C331.218 56.8277 331.059 57.0892 330.985 57.2825C330.843 57.6235 330.843 57.6406 330.922 58.0726C331.042 58.7036 330.917 59.8121 330.649 60.4261C330.411 60.9888 330.2 61.6085 330.2 61.7619C330.2 61.9382 330.632 63.0182 330.814 63.2911C330.99 63.5526 331.377 63.8311 332.036 64.1779C332.355 64.3484 332.497 64.4621 332.565 64.5929C332.616 64.6952 332.696 64.8146 332.741 64.8657C332.798 64.934 332.815 65.0704 332.804 65.3205C332.787 65.673 332.781 65.6843 332.582 65.7867C332.207 65.9686 331.309 66.0254 329.996 65.9515C328.046 65.8435 327.836 65.7241 326.801 64.1495C326.477 63.6492 325.948 62.9216 325.636 62.5294C324.97 61.6994 324.76 61.3072 324.851 61.0457C324.885 60.9547 324.953 60.8069 325.01 60.7217C325.073 60.6364 325.147 60.5056 325.181 60.4261C325.221 60.3465 325.363 60.0395 325.499 59.7439C325.641 59.4483 325.869 59.0276 326.016 58.8116C326.159 58.5956 326.318 58.3 326.375 58.1579C327.102 56.1683 327.585 55.2303 328.523 54.0024C328.933 53.4681 329.268 52.8598 329.404 52.4108C329.649 51.5808 330.058 50.9271 330.945 49.9266C331.621 49.1648 331.997 48.784 332.264 48.585C332.378 48.4997 332.537 48.3008 332.616 48.1473C332.69 47.9995 332.815 47.829 332.883 47.7664C333.128 47.5731 333.225 47.2434 333.225 46.6295C333.225 46.0497 333.139 45.5778 332.719 43.8554C332.491 42.9231 332.48 42.7924 332.525 39.8193C332.542 38.762 332.468 38.1367 332.309 37.915C331.951 37.4204 331.735 36.4938 331.735 35.4706C331.735 35.0727 331.758 34.7316 331.786 34.7032C331.815 34.6691 331.894 34.3564 331.957 34.004C332.025 33.6515 332.105 33.3048 332.133 33.2309C332.162 33.157 332.162 33.0774 332.133 33.049C332.11 33.0205 332.139 32.7306 332.201 32.4009C332.264 32.0712 332.315 31.7415 332.315 31.6619C332.309 31.5823 332.309 31.3265 332.304 31.0878C332.292 30.5761 332.395 29.6382 332.503 29.2459C332.542 29.0868 332.594 28.831 332.616 28.6775C332.639 28.5183 332.69 28.2 332.736 27.9669C332.861 27.3416 332.849 26.8868 332.685 26.091C332.531 25.3463 332.417 24.1014 332.417 23.1407C332.417 22.828 332.383 22.4017 332.338 22.1856C332.252 21.7991 332.099 20.2415 332.042 19.1842C332.025 18.8715 331.974 18.4907 331.928 18.3372C331.838 18.0075 331.826 17.2798 331.906 16.9956C331.94 16.8876 331.991 16.592 332.025 16.3419C332.093 15.8246 332.304 15.33 332.616 14.9662C332.787 14.7672 333.577 14.0623 334.487 13.2949C334.651 13.1585 335.379 12.6639 335.908 12.3285C336.112 12.1978 336.129 12.1637 336.146 11.9079C336.158 11.6464 336.152 11.635 336.073 11.7373C335.987 11.8453 335.987 11.8396 336.021 11.6634C336.038 11.5611 336.033 11.4872 336.004 11.5043C335.93 11.5554 335.885 11.3053 335.947 11.1916C335.993 11.1063 335.982 11.095 335.913 11.1234C335.851 11.1461 335.868 11.0893 335.97 10.9358C336.101 10.7425 336.118 10.68 336.084 10.4356C336.067 10.2821 336.021 10.1058 335.993 10.049C335.959 9.98078 335.959 9.90688 335.999 9.83867C336.084 9.6795 336.073 9.65107 335.942 9.71929C335.857 9.76477 335.828 9.76477 335.828 9.7136C335.828 9.66813 335.805 9.66813 335.743 9.71929C335.675 9.77613 335.658 9.77613 335.658 9.71929C335.658 9.6795 335.623 9.66244 335.584 9.6795C335.533 9.69655 335.561 9.56012 335.669 9.25315C335.754 9.00871 335.8 8.82112 335.76 8.84386C335.714 8.87228 335.709 8.85523 335.743 8.77564C335.771 8.7188 335.8 8.3834 335.811 8.04233C335.817 7.69556 335.839 7.2749 335.862 7.10437C335.879 6.93383 335.891 6.68939 335.885 6.56433C335.879 6.26873 335.987 5.81964 336.09 5.73438C336.135 5.70026 336.169 5.60931 336.169 5.52973C336.169 5.25687 336.465 4.75093 336.857 4.36438C337.539 3.67654 338.614 3.27293 339.472 3.38663C339.682 3.40937 339.745 3.39799 339.768 3.32978C339.807 3.22746 340.063 3.2104 340.285 3.28999C340.387 3.32978 340.444 3.3241 340.489 3.26157C340.586 3.14787 340.7 3.16492 340.774 3.30136ZM343.292 4.21658C343.309 4.26206 343.326 4.245 343.326 4.18247C343.332 4.11994 343.315 4.08583 343.298 4.10857C343.281 4.12563 343.275 4.17679 343.292 4.21658ZM335.902 8.13897C335.919 8.17876 335.93 8.15033 335.93 8.07075C335.93 7.99117 335.919 7.96274 335.902 7.99685C335.891 8.03664 335.891 8.10486 335.902 8.13897Z" fill="#B9C0CA" fill-opacity="0.5"/>
<path d="M626.082 3.30136C626.133 3.38663 626.167 3.40368 626.224 3.35252C626.269 3.31273 626.309 3.31273 626.332 3.34684C626.349 3.37526 626.417 3.38663 626.474 3.36957C626.531 3.35252 626.633 3.36957 626.701 3.40368C626.781 3.44916 626.855 3.45484 626.929 3.41505C627.025 3.3582 627.236 3.39799 627.503 3.52306C627.548 3.54011 627.702 3.56285 627.838 3.57422C628.128 3.58559 628.322 3.67086 628.265 3.75613C628.242 3.79592 628.27 3.79592 628.344 3.75613C628.441 3.70497 628.481 3.71634 628.577 3.8414C628.646 3.92667 628.697 4.01194 628.697 4.04036C628.697 4.0631 628.742 4.08015 628.793 4.08015C628.964 4.07447 629.208 4.19953 629.242 4.30185C629.265 4.3587 629.311 4.48376 629.356 4.58608C629.402 4.68272 629.436 4.77936 629.436 4.8021C629.436 4.88737 629.208 5.33076 629.123 5.39898C629.078 5.43877 629.038 5.52404 629.038 5.59226C629.038 5.65479 628.97 5.86512 628.896 6.05271C628.816 6.2403 628.754 6.44495 628.754 6.50748C628.748 6.72918 628.606 7.1669 628.555 7.12142C628.526 7.09868 628.538 7.12142 628.577 7.17258C628.634 7.25217 628.64 7.29196 628.589 7.35449C628.549 7.40565 628.538 7.54208 628.56 7.74104C628.589 7.99117 628.572 8.10486 628.475 8.33224C628.407 8.48004 628.31 8.65058 628.259 8.70743C628.197 8.77564 628.151 8.97461 628.128 9.28157C628.077 9.8614 627.685 11.1234 627.418 11.5497C627.315 11.7146 627.151 11.9818 627.06 12.1409C626.952 12.3228 626.821 12.4593 626.713 12.5047C626.616 12.5445 626.537 12.6071 626.537 12.6412C626.537 12.6753 626.605 12.9197 626.684 13.1869C626.758 13.4541 626.849 13.8236 626.878 14.0055C626.906 14.1931 626.963 14.3636 627.003 14.3864C627.043 14.4148 627.054 14.4375 627.025 14.4375C626.997 14.4375 627.003 14.4716 627.037 14.5114C627.071 14.5512 627.19 14.8184 627.298 15.1083C627.44 15.4778 627.583 15.7336 627.799 15.9951C628.14 16.4044 628.486 17.0013 629.026 18.0927C629.407 18.8772 629.487 19.1103 629.635 19.9857C629.748 20.6281 629.72 21.9014 629.578 22.4528C629.481 22.8621 629.379 23.7944 629.379 24.3174C629.379 24.5504 629.328 25.1758 629.271 25.7101C629.044 27.6997 629.026 27.9101 629.026 28.7116C629.026 29.1607 629.049 30.2066 629.083 31.0366C629.146 32.5487 629.203 32.9637 629.402 33.2252C629.453 33.2877 629.493 33.3616 629.493 33.39C629.493 33.4355 628.725 33.4014 628.282 33.3332C628.14 33.3104 628.071 33.3218 628.071 33.3673C628.071 33.4469 628.464 33.9244 628.845 34.3053C629.044 34.5042 629.174 34.6918 629.26 34.9306C629.328 35.1182 629.424 35.3285 629.47 35.4024C629.515 35.4763 629.549 35.6013 629.538 35.6866C629.532 35.7833 629.669 36.1357 629.93 36.6644C630.493 37.807 630.772 38.5517 631.306 40.3309C631.971 42.5593 632.216 43.7701 632.25 44.9923C632.267 45.7029 632.272 45.7484 632.471 46.2032C632.619 46.5329 632.699 46.8114 632.733 47.1411C632.835 48.0393 632.886 49.1478 632.841 49.648C632.795 50.1255 632.801 50.1881 632.96 50.6428C633.051 50.91 633.142 51.2738 633.165 51.4444C633.188 51.6149 633.25 51.848 633.307 51.9617C633.364 52.0697 633.432 52.3766 633.466 52.6438C633.495 52.9053 633.625 53.8888 633.75 54.821C633.881 55.759 634 56.7822 634.018 57.0949C634.052 57.6235 634.069 57.6974 634.262 58.0101C634.461 58.3398 634.467 58.3682 634.472 58.9196C634.478 59.5563 634.535 59.7098 634.978 60.3408C635.115 60.5284 635.291 60.824 635.376 60.9945C635.518 61.2788 635.53 61.3413 635.496 61.7392C635.467 62.1087 635.473 62.1826 635.564 62.2622C635.746 62.427 636.917 62.9785 637.326 63.0921C637.542 63.149 637.781 63.2343 637.855 63.2741C637.929 63.3138 638.15 63.348 638.344 63.348C638.662 63.3536 638.747 63.3252 639.452 62.9671C640.305 62.5351 640.526 62.5009 640.976 62.717C641.254 62.8591 641.572 63.2911 641.51 63.456C641.47 63.5697 640.259 64.5588 639.736 64.9112C639.014 65.3944 638.253 65.7071 636.513 66.2187C635.979 66.3722 635.035 66.6848 634.41 66.9065C633.784 67.1282 633.182 67.3158 633.074 67.3215C632.886 67.3329 632.875 67.3215 632.767 67.0259C632.676 66.7758 632.67 66.6905 632.721 66.5484C632.778 66.3949 632.773 66.3494 632.648 66.1675C632.403 65.8151 632.227 65.3489 632.017 64.5417C631.909 64.104 631.675 63.3138 631.499 62.7852C631.329 62.2508 631.101 61.4493 630.999 60.9945C630.902 60.5398 630.755 60.0395 630.675 59.886C630.595 59.7269 630.459 59.3858 630.374 59.1186C630.288 58.8514 630.129 58.4251 630.021 58.1693C629.919 57.9078 629.771 57.436 629.692 57.1176C629.549 56.5094 629.311 55.7533 628.958 54.7585C628.697 54.0422 628.373 52.6609 628.299 51.9844C628.265 51.7002 628.214 50.9043 628.185 50.2108C628.14 49.1023 628.117 48.9318 628.015 48.7612C627.952 48.6589 627.901 48.5282 627.901 48.4713C627.901 48.4145 627.838 48.2496 627.764 48.1018C627.691 47.954 627.617 47.7323 627.594 47.6073C627.571 47.4822 627.48 47.1752 627.384 46.9251C627.219 46.4874 627.06 46.2429 625.854 44.566C625.65 44.2874 625.263 43.6564 624.99 43.1676C624.428 42.1557 624.49 42.1387 624.371 43.2869C624.274 44.2818 624.041 45.845 623.893 46.5272C623.819 46.8683 623.717 47.3514 623.672 47.5902C623.615 47.8972 623.524 48.1359 623.359 48.4031C623.234 48.6134 623.103 48.909 623.069 49.0682C622.972 49.5287 622.819 49.8129 622.478 50.1881C622.006 50.6997 621.369 51.2795 621.011 51.5126C620.335 51.9617 618.385 54.1616 617.6 55.3554C617.112 56.1001 616.867 56.4468 616.64 56.697C616.526 56.8277 616.367 57.0892 616.293 57.2825C616.151 57.6235 616.151 57.6406 616.23 58.0726C616.35 58.7036 616.225 59.8121 615.958 60.4261C615.719 60.9888 615.508 61.6085 615.508 61.7619C615.508 61.9382 615.94 63.0182 616.122 63.2911C616.299 63.5526 616.685 63.8311 617.345 64.1779C617.663 64.3484 617.805 64.4621 617.873 64.5929C617.924 64.6952 618.004 64.8146 618.049 64.8657C618.106 64.934 618.123 65.0704 618.112 65.3205C618.095 65.673 618.089 65.6843 617.89 65.7867C617.515 65.9686 616.617 66.0254 615.304 65.9515C613.354 65.8435 613.144 65.7241 612.109 64.1495C611.785 63.6492 611.256 62.9216 610.944 62.5294C610.279 61.6994 610.068 61.3072 610.159 61.0457C610.193 60.9547 610.262 60.8069 610.318 60.7217C610.381 60.6364 610.455 60.5056 610.489 60.4261C610.529 60.3465 610.671 60.0395 610.807 59.7439C610.949 59.4483 611.177 59.0276 611.325 58.8116C611.467 58.5956 611.626 58.3 611.683 58.1579C612.41 56.1683 612.894 55.2303 613.831 54.0024C614.241 53.4681 614.576 52.8598 614.713 52.4108C614.957 51.5808 615.366 50.9271 616.253 49.9266C616.93 49.1648 617.305 48.784 617.572 48.585C617.686 48.4997 617.845 48.3008 617.924 48.1473C617.998 47.9995 618.123 47.829 618.192 47.7664C618.436 47.5731 618.533 47.2434 618.533 46.6295C618.533 46.0497 618.447 45.5778 618.027 43.8554C617.799 42.9231 617.788 42.7924 617.833 39.8193C617.851 38.762 617.777 38.1367 617.617 37.915C617.259 37.4204 617.043 36.4938 617.043 35.4706C617.043 35.0727 617.066 34.7316 617.094 34.7032C617.123 34.6691 617.202 34.3564 617.265 34.004C617.333 33.6515 617.413 33.3048 617.441 33.2309C617.47 33.157 617.47 33.0774 617.441 33.049C617.418 33.0205 617.447 32.7306 617.509 32.4009C617.572 32.0712 617.623 31.7415 617.623 31.6619C617.617 31.5823 617.617 31.3265 617.612 31.0878C617.6 30.5761 617.703 29.6382 617.811 29.2459C617.851 29.0868 617.902 28.831 617.924 28.6775C617.947 28.5183 617.998 28.2 618.044 27.9669C618.169 27.3416 618.157 26.8868 617.993 26.091C617.839 25.3463 617.725 24.1014 617.725 23.1407C617.725 22.828 617.691 22.4017 617.646 22.1856C617.561 21.7991 617.407 20.2415 617.35 19.1842C617.333 18.8715 617.282 18.4907 617.237 18.3372C617.146 18.0075 617.134 17.2798 617.214 16.9956C617.248 16.8876 617.299 16.592 617.333 16.3419C617.401 15.8246 617.612 15.33 617.924 14.9662C618.095 14.7672 618.885 14.0623 619.795 13.2949C619.959 13.1585 620.687 12.6639 621.216 12.3285C621.42 12.1978 621.437 12.1637 621.455 11.9079C621.466 11.6464 621.46 11.635 621.381 11.7373C621.295 11.8453 621.295 11.8396 621.329 11.6634C621.347 11.5611 621.341 11.4872 621.312 11.5043C621.239 11.5554 621.193 11.3053 621.256 11.1916C621.301 11.1063 621.29 11.095 621.221 11.1234C621.159 11.1461 621.176 11.0893 621.278 10.9358C621.409 10.7425 621.426 10.68 621.392 10.4356C621.375 10.2821 621.329 10.1058 621.301 10.049C621.267 9.98078 621.267 9.90688 621.307 9.83867C621.392 9.6795 621.381 9.65107 621.25 9.71929C621.165 9.76477 621.136 9.76477 621.136 9.7136C621.136 9.66813 621.113 9.66813 621.051 9.71929C620.983 9.77613 620.966 9.77613 620.966 9.71929C620.966 9.6795 620.932 9.66244 620.892 9.6795C620.841 9.69655 620.869 9.56012 620.977 9.25315C621.062 9.00871 621.108 8.82112 621.068 8.84386C621.023 8.87228 621.017 8.85523 621.051 8.77564C621.079 8.7188 621.108 8.3834 621.119 8.04233C621.125 7.69556 621.148 7.2749 621.17 7.10437C621.187 6.93383 621.199 6.68939 621.193 6.56433C621.187 6.26873 621.295 5.81964 621.398 5.73438C621.443 5.70026 621.477 5.60931 621.477 5.52973C621.477 5.25687 621.773 4.75093 622.165 4.36438C622.847 3.67654 623.922 3.27293 624.78 3.38663C624.99 3.40937 625.053 3.39799 625.076 3.32978C625.115 3.22746 625.371 3.2104 625.593 3.28999C625.695 3.32978 625.752 3.3241 625.798 3.26157C625.894 3.14787 626.008 3.16492 626.082 3.30136ZM628.6 4.21658C628.617 4.26206 628.634 4.245 628.634 4.18247C628.64 4.11994 628.623 4.08583 628.606 4.10857C628.589 4.12563 628.583 4.17679 628.6 4.21658ZM621.21 8.13897C621.227 8.17876 621.239 8.15033 621.239 8.07075C621.239 7.99117 621.227 7.96274 621.21 7.99685C621.199 8.03664 621.199 8.10486 621.21 8.13897Z" fill="#B9C0CA" fill-opacity="0.5"/>
<path d="M696.66 0.436127C696.711 0.521393 696.745 0.538448 696.802 0.487286C696.847 0.447495 696.887 0.447495 696.91 0.481602C696.927 0.510025 696.995 0.521393 697.052 0.504337C697.109 0.487286 697.211 0.504337 697.279 0.538448C697.359 0.583923 697.433 0.589607 697.507 0.549816C697.603 0.49297 697.814 0.532761 698.081 0.657822C698.126 0.674877 698.28 0.697617 698.416 0.708984C698.706 0.720356 698.899 0.805622 698.843 0.890892C698.82 0.930687 698.848 0.930687 698.922 0.890892C699.019 0.839733 699.059 0.851101 699.155 0.976162C699.223 1.06143 699.275 1.1467 699.275 1.17513C699.275 1.19786 699.32 1.21492 699.371 1.21492C699.542 1.20923 699.786 1.33429 699.82 1.43661C699.843 1.49346 699.889 1.61852 699.934 1.72085C699.98 1.81749 700.014 1.91412 700.014 1.93686C700.014 2.02213 699.786 2.46553 699.701 2.53374C699.655 2.57354 699.616 2.65881 699.616 2.72702C699.616 2.78955 699.547 2.99989 699.474 3.18748C699.394 3.37507 699.331 3.57972 699.331 3.64225C699.326 3.86395 699.184 4.30166 699.133 4.25618C699.104 4.23345 699.115 4.25618 699.155 4.30735C699.212 4.38693 699.218 4.42672 699.167 4.48925C699.127 4.54042 699.115 4.67685 699.138 4.87581C699.167 5.12593 699.15 5.23962 699.053 5.46701C698.985 5.61481 698.888 5.78535 698.837 5.84219C698.774 5.91041 698.729 6.10937 698.706 6.41634C698.655 6.99617 698.263 8.25816 697.996 8.6845C697.893 8.84935 697.728 9.11653 697.637 9.2757C697.529 9.45761 697.399 9.59404 697.291 9.63951C697.194 9.67931 697.114 9.74184 697.114 9.77595C697.114 9.81005 697.183 10.0545 697.262 10.3217C697.336 10.5888 697.427 10.9583 697.456 11.1403C697.484 11.3278 697.541 11.4984 697.581 11.5211C697.62 11.5495 697.632 11.5723 697.603 11.5723C697.575 11.5723 697.581 11.6064 697.615 11.6462C697.649 11.686 697.768 11.9532 697.876 12.2431C698.018 12.6126 698.16 12.8684 698.376 13.1299C698.718 13.5392 699.064 14.136 699.604 15.2275C699.985 16.012 700.065 16.245 700.213 17.1205C700.326 17.7628 700.298 19.0362 700.156 19.5876C700.059 19.9969 699.957 20.9292 699.957 21.4521C699.957 21.6852 699.906 22.3105 699.849 22.8449C699.621 24.8345 699.604 25.0448 699.604 25.8464C699.604 26.2954 699.627 27.3414 699.661 28.1714C699.724 29.6835 699.781 30.0984 699.98 30.3599C700.031 30.4225 700.07 30.4964 700.07 30.5248C700.07 30.5703 699.303 30.5362 698.86 30.4679C698.718 30.4452 698.649 30.4566 698.649 30.5021C698.649 30.5816 699.042 31.0591 699.422 31.44C699.621 31.639 699.752 31.8266 699.837 32.0653C699.906 32.2529 700.002 32.4632 700.048 32.5371C700.093 32.611 700.127 32.7361 700.116 32.8214C700.11 32.918 700.247 33.2705 700.508 33.7991C701.071 34.9417 701.35 35.6864 701.884 37.4657C702.549 39.6941 702.793 40.9049 702.828 42.1271C702.845 42.8377 702.85 42.8831 703.049 43.3379C703.197 43.6676 703.277 43.9462 703.311 44.2759C703.413 45.174 703.464 46.2825 703.419 46.7828C703.373 47.2603 703.379 47.3228 703.538 47.7776C703.629 48.0448 703.72 48.4086 703.743 48.5791C703.765 48.7497 703.828 48.9827 703.885 49.0964C703.942 49.2044 704.01 49.5114 704.044 49.7786C704.072 50.0401 704.203 51.0235 704.328 51.9558C704.459 52.8938 704.578 53.917 704.595 54.2296C704.63 54.7583 704.647 54.8322 704.84 55.1449C705.039 55.4746 705.045 55.503 705.05 56.0544C705.056 56.6911 705.113 56.8446 705.556 57.4756C705.693 57.6631 705.869 57.9587 705.954 58.1293C706.096 58.4135 706.108 58.476 706.073 58.874C706.045 59.2435 706.051 59.3174 706.142 59.397C706.324 59.5618 707.495 60.1132 707.904 60.2269C708.12 60.2838 708.359 60.369 708.433 60.4088C708.506 60.4486 708.728 60.4827 708.921 60.4827C709.24 60.4884 709.325 60.46 710.03 60.1018C710.883 59.6698 711.104 59.6357 711.553 59.8517C711.832 59.9938 712.15 60.4259 712.088 60.5907C712.048 60.7044 710.837 61.6935 710.314 62.046C709.592 62.5292 708.83 62.8418 707.091 63.3534C706.557 63.5069 705.613 63.8196 704.988 64.0413C704.362 64.263 703.76 64.4506 703.652 64.4563C703.464 64.4676 703.453 64.4563 703.345 64.1607C703.254 63.9105 703.248 63.8253 703.299 63.6832C703.356 63.5297 703.35 63.4842 703.225 63.3023C702.981 62.9498 702.805 62.4837 702.594 61.6765C702.486 61.2388 702.253 60.4486 702.077 59.9199C701.907 59.3856 701.679 58.5841 701.577 58.1293C701.48 57.6745 701.332 57.1743 701.253 57.0208C701.173 56.8616 701.037 56.5205 700.952 56.2534C700.866 55.9862 700.707 55.5598 700.599 55.304C700.497 55.0425 700.349 54.5707 700.269 54.2524C700.127 53.6441 699.889 52.8881 699.536 51.8933C699.275 51.177 698.951 49.7956 698.877 49.1192C698.843 48.8349 698.791 48.0391 698.763 47.3456C698.718 46.2371 698.695 46.0665 698.592 45.896C698.53 45.7937 698.479 45.6629 698.479 45.6061C698.479 45.5492 698.416 45.3844 698.342 45.2366C698.268 45.0888 698.195 44.8671 698.172 44.742C698.149 44.617 698.058 44.31 697.961 44.0599C697.797 43.6221 697.637 43.3777 696.432 41.7007C696.228 41.4222 695.841 40.7912 695.568 40.3023C695.005 39.2905 695.068 39.2734 694.949 40.4217C694.852 41.4165 694.619 42.9798 694.471 43.6619C694.397 44.003 694.295 44.4862 694.249 44.725C694.193 45.0319 694.102 45.2707 693.937 45.5379C693.812 45.7482 693.681 46.0438 693.647 46.203C693.55 46.6634 693.397 46.9476 693.056 47.3228C692.584 47.8344 691.947 48.4143 691.589 48.6473C690.913 49.0964 688.963 51.2964 688.178 52.4901C687.689 53.2348 687.445 53.5816 687.218 53.8317C687.104 53.9625 686.945 54.224 686.871 54.4172C686.729 54.7583 686.729 54.7754 686.808 55.2074C686.928 55.8384 686.803 56.9469 686.535 57.5608C686.297 58.1236 686.086 58.7432 686.086 58.8967C686.086 59.0729 686.518 60.153 686.7 60.4259C686.876 60.6874 687.263 60.9659 687.922 61.3127C688.241 61.4832 688.383 61.5969 688.451 61.7276C688.502 61.83 688.582 61.9493 688.627 62.0005C688.684 62.0687 688.701 62.2052 688.69 62.4553C688.673 62.8077 688.667 62.8191 688.468 62.9214C688.093 63.1033 687.195 63.1602 685.882 63.0863C683.932 62.9783 683.722 62.8589 682.687 61.2842C682.363 60.784 681.834 60.0564 681.522 59.6641C680.856 58.8342 680.646 58.4419 680.737 58.1804C680.771 58.0895 680.839 57.9417 680.896 57.8564C680.959 57.7712 681.033 57.6404 681.067 57.5608C681.107 57.4812 681.249 57.1743 681.385 56.8787C681.527 56.5831 681.755 56.1624 681.902 55.9464C682.045 55.7304 682.204 55.4348 682.261 55.2927C682.988 53.303 683.471 52.3651 684.409 51.1372C684.819 50.6029 685.154 49.9946 685.29 49.5455C685.535 48.7156 685.944 48.0618 686.831 47.0613C687.507 46.2996 687.883 45.9187 688.15 45.7198C688.264 45.6345 688.423 45.4355 688.502 45.2821C688.576 45.1343 688.701 44.9637 688.769 44.9012C689.014 44.7079 689.111 44.3782 689.111 43.7643C689.111 43.1844 689.025 42.7126 688.605 40.9902C688.377 40.0579 688.366 39.9271 688.411 36.9541C688.428 35.8968 688.354 35.2714 688.195 35.0497C687.837 34.5552 687.621 33.6286 687.621 32.6054C687.621 32.2074 687.644 31.8664 687.672 31.8379C687.701 31.8038 687.78 31.4912 687.843 31.1387C687.911 30.7863 687.991 30.4395 688.019 30.3656C688.048 30.2917 688.048 30.2121 688.019 30.1837C687.996 30.1553 688.025 29.8654 688.087 29.5357C688.15 29.206 688.201 28.8763 688.201 28.7967C688.195 28.7171 688.195 28.4613 688.19 28.2225C688.178 27.7109 688.281 26.7729 688.389 26.3807C688.428 26.2215 688.48 25.9657 688.502 25.8122C688.525 25.6531 688.576 25.3347 688.622 25.1017C688.747 24.4764 688.735 24.0216 688.57 23.2257C688.417 22.4811 688.303 21.2361 688.303 20.2754C688.303 19.9628 688.269 19.5364 688.224 19.3204C688.138 18.9339 687.985 17.3763 687.928 16.3189C687.911 16.0063 687.86 15.6254 687.814 15.4719C687.723 15.1422 687.712 14.4146 687.792 14.1304C687.826 14.0224 687.877 13.7268 687.911 13.4766C687.979 12.9593 688.19 12.4648 688.502 12.101C688.673 11.902 689.463 11.1971 690.373 10.4297C690.537 10.2932 691.265 9.79869 691.794 9.46329C691.998 9.33255 692.015 9.29844 692.032 9.04263C692.044 8.78114 692.038 8.76977 691.959 8.87209C691.873 8.9801 691.873 8.97441 691.907 8.79819C691.924 8.69587 691.919 8.62197 691.89 8.63902C691.816 8.69019 691.771 8.44006 691.833 8.32637C691.879 8.2411 691.868 8.22973 691.799 8.25816C691.737 8.28089 691.754 8.22405 691.856 8.07056C691.987 7.87729 692.004 7.81475 691.97 7.57032C691.953 7.41683 691.907 7.24061 691.879 7.18376C691.845 7.11555 691.845 7.04165 691.885 6.97343C691.97 6.81426 691.959 6.78584 691.828 6.85405C691.743 6.89953 691.714 6.89953 691.714 6.84837C691.714 6.80289 691.691 6.80289 691.629 6.85405C691.561 6.9109 691.544 6.9109 691.544 6.85405C691.544 6.81426 691.509 6.79721 691.47 6.81426C691.418 6.83132 691.447 6.69489 691.555 6.38792C691.64 6.14348 691.686 5.95589 691.646 5.97862C691.6 6.00705 691.595 5.98999 691.629 5.91041C691.657 5.85356 691.686 5.51817 691.697 5.17709C691.703 4.83033 691.725 4.40967 691.748 4.23913C691.765 4.06859 691.777 3.82415 691.771 3.69909C691.765 3.40349 691.873 2.95441 691.976 2.86914C692.021 2.83503 692.055 2.74408 692.055 2.66449C692.055 2.39163 692.351 1.8857 692.743 1.49915C693.425 0.81131 694.5 0.4077 695.358 0.521393C695.568 0.544132 695.631 0.532761 695.654 0.464546C695.693 0.362221 695.949 0.345169 696.171 0.424751C696.273 0.464546 696.33 0.458862 696.375 0.396332C696.472 0.282639 696.586 0.29969 696.66 0.436127ZM699.178 1.35135C699.195 1.39682 699.212 1.37977 699.212 1.31724C699.218 1.25471 699.201 1.2206 699.184 1.24334C699.167 1.26039 699.161 1.31155 699.178 1.35135ZM691.788 5.27373C691.805 5.31352 691.816 5.2851 691.816 5.20552C691.816 5.12593 691.805 5.09751 691.788 5.13161C691.777 5.17141 691.777 5.23962 691.788 5.27373Z" fill="#B9C0CA" fill-opacity="0.5"/>
<line x1="696.035" y1="104.173" x2="1596" y2="104.173" stroke="url(#paint4_linear_78_961)" stroke-opacity="0.36"/>
<line x1="696.035" y1="81.1943" x2="1596" y2="81.1943" stroke="url(#paint5_linear_78_961)" stroke-opacity="0.36"/>
<line x1="696.035" y1="64.3447" x2="1596" y2="64.3447" stroke="url(#paint6_linear_78_961)" stroke-opacity="0.36"/>
<line x1="696.035" y1="19.1543" x2="1596" y2="19.1543" stroke="url(#paint7_linear_78_961)" stroke-opacity="0.36"/>
<path d="M1416.97 64.4678L1372.92 104.679" stroke="#B9C0CA" stroke-opacity="0.3"/>
<path d="M1376.75 64.4678L1332.71 104.679" stroke="#B9C0CA" stroke-opacity="0.3"/>
<path d="M1337.5 64.4678L1293.46 104.679" stroke="#B9C0CA" stroke-opacity="0.3"/>
<path d="M1293.46 64.4678L1249.42 104.679" stroke="#B9C0CA" stroke-opacity="0.3"/>
<path d="M1047.41 64.4678L1003.36 104.679" stroke="#B9C0CA" stroke-opacity="0.3"/>
<path d="M1008.15 64.4678L964.111 104.679" stroke="#B9C0CA" stroke-opacity="0.3"/>
<path d="M964.111 64.4678L920.07 104.679" stroke="#B9C0CA" stroke-opacity="0.3"/>
<path d="M902.837 64.4678L858.796 104.679" stroke="#B9C0CA" stroke-opacity="0.3"/>
<path d="M968.834 3.30136C968.885 3.38663 968.92 3.40368 968.976 3.35252C969.022 3.31273 969.062 3.31273 969.084 3.34684C969.101 3.37526 969.17 3.38663 969.227 3.36957C969.283 3.35252 969.386 3.36957 969.454 3.40368C969.533 3.44916 969.607 3.45484 969.681 3.41505C969.778 3.3582 969.988 3.39799 970.255 3.52306C970.301 3.54011 970.454 3.56285 970.591 3.57422C970.881 3.58559 971.074 3.67086 971.017 3.75613C970.994 3.79592 971.023 3.79592 971.097 3.75613C971.193 3.70497 971.233 3.71634 971.33 3.8414C971.398 3.92667 971.449 4.01194 971.449 4.04036C971.449 4.0631 971.495 4.08015 971.546 4.08015C971.716 4.07447 971.961 4.19953 971.995 4.30185C972.018 4.3587 972.063 4.48376 972.109 4.58608C972.154 4.68272 972.188 4.77936 972.188 4.8021C972.188 4.88737 971.961 5.33076 971.876 5.39898C971.83 5.43877 971.79 5.52404 971.79 5.59226C971.79 5.65479 971.722 5.86512 971.648 6.05271C971.569 6.2403 971.506 6.44495 971.506 6.50748C971.5 6.72918 971.358 7.1669 971.307 7.12142C971.279 7.09868 971.29 7.12142 971.33 7.17258C971.387 7.25217 971.392 7.29196 971.341 7.35449C971.301 7.40565 971.29 7.54208 971.313 7.74104C971.341 7.99117 971.324 8.10486 971.227 8.33224C971.159 8.48004 971.063 8.65058 971.011 8.70743C970.949 8.77564 970.903 8.97461 970.881 9.28157C970.83 9.8614 970.437 11.1234 970.17 11.5497C970.068 11.7146 969.903 11.9818 969.812 12.1409C969.704 12.3228 969.573 12.4593 969.465 12.5047C969.369 12.5445 969.289 12.6071 969.289 12.6412C969.289 12.6753 969.357 12.9197 969.437 13.1869C969.511 13.4541 969.602 13.8236 969.63 14.0055C969.659 14.1931 969.715 14.3636 969.755 14.3864C969.795 14.4148 969.806 14.4375 969.778 14.4375C969.749 14.4375 969.755 14.4716 969.789 14.5114C969.823 14.5512 969.943 14.8184 970.051 15.1083C970.193 15.4778 970.335 15.7336 970.551 15.9951C970.892 16.4044 971.239 17.0013 971.779 18.0927C972.16 18.8772 972.239 19.1103 972.387 19.9857C972.501 20.6281 972.472 21.9014 972.33 22.4528C972.234 22.8621 972.131 23.7944 972.131 24.3174C972.131 24.5504 972.08 25.1758 972.023 25.7101C971.796 27.6997 971.779 27.9101 971.779 28.7116C971.779 29.1607 971.802 30.2066 971.836 31.0366C971.898 32.5487 971.955 32.9637 972.154 33.2252C972.205 33.2877 972.245 33.3616 972.245 33.39C972.245 33.4355 971.478 33.4014 971.034 33.3332C970.892 33.3104 970.824 33.3218 970.824 33.3673C970.824 33.4469 971.216 33.9244 971.597 34.3053C971.796 34.5042 971.927 34.6918 972.012 34.9306C972.08 35.1182 972.177 35.3285 972.222 35.4024C972.268 35.4763 972.302 35.6013 972.291 35.6866C972.285 35.7833 972.421 36.1357 972.683 36.6644C973.246 37.807 973.524 38.5517 974.058 40.3309C974.724 42.5593 974.968 43.7701 975.002 44.9923C975.019 45.7029 975.025 45.7484 975.224 46.2032C975.372 46.5329 975.451 46.8114 975.485 47.1411C975.588 48.0393 975.639 49.1478 975.593 49.648C975.548 50.1255 975.553 50.1881 975.713 50.6428C975.804 50.91 975.895 51.2738 975.917 51.4444C975.94 51.6149 976.003 51.848 976.059 51.9617C976.116 52.0697 976.184 52.3766 976.219 52.6438C976.247 52.9053 976.378 53.8888 976.503 54.821C976.634 55.759 976.753 56.7822 976.77 57.0949C976.804 57.6235 976.821 57.6974 977.014 58.0101C977.213 58.3398 977.219 58.3682 977.225 58.9196C977.23 59.5563 977.287 59.7098 977.731 60.3408C977.867 60.5284 978.043 60.824 978.129 60.9945C978.271 61.2788 978.282 61.3413 978.248 61.7392C978.22 62.1087 978.225 62.1826 978.316 62.2622C978.498 62.427 979.669 62.9785 980.078 63.0921C980.294 63.149 980.533 63.2343 980.607 63.2741C980.681 63.3138 980.903 63.348 981.096 63.348C981.414 63.3536 981.5 63.3252 982.204 62.9671C983.057 62.5351 983.279 62.5009 983.728 62.717C984.007 62.8591 984.325 63.2911 984.262 63.456C984.223 63.5697 983.012 64.5588 982.489 64.9112C981.767 65.3944 981.005 65.7071 979.266 66.2187C978.731 66.3722 977.788 66.6848 977.162 66.9065C976.537 67.1282 975.934 67.3158 975.826 67.3215C975.639 67.3329 975.627 67.3215 975.519 67.0259C975.428 66.7758 975.423 66.6905 975.474 66.5484C975.531 66.3949 975.525 66.3494 975.4 66.1675C975.156 65.8151 974.979 65.3489 974.769 64.5417C974.661 64.104 974.428 63.3138 974.252 62.7852C974.081 62.2508 973.854 61.4493 973.751 60.9945C973.655 60.5398 973.507 60.0395 973.427 59.886C973.348 59.7269 973.211 59.3858 973.126 59.1186C973.041 58.8514 972.882 58.4251 972.774 58.1693C972.671 57.9078 972.524 57.436 972.444 57.1176C972.302 56.5094 972.063 55.7533 971.711 54.7585C971.449 54.0422 971.125 52.6609 971.051 51.9844C971.017 51.7002 970.966 50.9043 970.938 50.2108C970.892 49.1023 970.869 48.9318 970.767 48.7612C970.705 48.6589 970.653 48.5282 970.653 48.4713C970.653 48.4145 970.591 48.2496 970.517 48.1018C970.443 47.954 970.369 47.7323 970.346 47.6073C970.324 47.4822 970.233 47.1752 970.136 46.9251C969.971 46.4874 969.812 46.2429 968.607 44.566C968.402 44.2874 968.016 43.6564 967.743 43.1676C967.18 42.1557 967.243 42.1387 967.123 43.2869C967.027 44.2818 966.793 45.845 966.646 46.5272C966.572 46.8683 966.469 47.3514 966.424 47.5902C966.367 47.8972 966.276 48.1359 966.111 48.4031C965.986 48.6134 965.856 48.909 965.821 49.0682C965.725 49.5287 965.571 49.8129 965.23 50.1881C964.758 50.6997 964.122 51.2795 963.764 51.5126C963.087 51.9617 961.137 54.1616 960.353 55.3554C959.864 56.1001 959.62 56.4468 959.392 56.697C959.278 56.8277 959.119 57.0892 959.045 57.2825C958.903 57.6235 958.903 57.6406 958.983 58.0726C959.102 58.7036 958.977 59.8121 958.71 60.4261C958.471 60.9888 958.261 61.6085 958.261 61.7619C958.261 61.9382 958.693 63.0182 958.875 63.2911C959.051 63.5526 959.438 63.8311 960.097 64.1779C960.415 64.3484 960.557 64.4621 960.626 64.5929C960.677 64.6952 960.756 64.8146 960.802 64.8657C960.859 64.934 960.876 65.0704 960.864 65.3205C960.847 65.673 960.842 65.6843 960.643 65.7867C960.268 65.9686 959.369 66.0254 958.056 65.9515C956.106 65.8435 955.896 65.7241 954.861 64.1495C954.537 63.6492 954.009 62.9216 953.696 62.5294C953.031 61.6994 952.821 61.3072 952.912 61.0457C952.946 60.9547 953.014 60.8069 953.071 60.7217C953.133 60.6364 953.207 60.5056 953.241 60.4261C953.281 60.3465 953.423 60.0395 953.56 59.7439C953.702 59.4483 953.929 59.0276 954.077 58.8116C954.219 58.5956 954.378 58.3 954.435 58.1579C955.163 56.1683 955.646 55.2303 956.584 54.0024C956.993 53.4681 957.329 52.8598 957.465 52.4108C957.709 51.5808 958.119 50.9271 959.006 49.9266C959.682 49.1648 960.057 48.784 960.324 48.585C960.438 48.4997 960.597 48.3008 960.677 48.1473C960.751 47.9995 960.876 47.829 960.944 47.7664C961.188 47.5731 961.285 47.2434 961.285 46.6295C961.285 46.0497 961.2 45.5778 960.779 43.8554C960.552 42.9231 960.54 42.7924 960.586 39.8193C960.603 38.762 960.529 38.1367 960.37 37.915C960.012 37.4204 959.796 36.4938 959.796 35.4706C959.796 35.0727 959.818 34.7316 959.847 34.7032C959.875 34.6691 959.955 34.3564 960.017 34.004C960.086 33.6515 960.165 33.3048 960.194 33.2309C960.222 33.157 960.222 33.0774 960.194 33.049C960.171 33.0205 960.199 32.7306 960.262 32.4009C960.324 32.0712 960.376 31.7415 960.376 31.6619C960.37 31.5823 960.37 31.3265 960.364 31.0878C960.353 30.5761 960.455 29.6382 960.563 29.2459C960.603 29.0868 960.654 28.831 960.677 28.6775C960.7 28.5183 960.751 28.2 960.796 27.9669C960.921 27.3416 960.91 26.8868 960.745 26.091C960.592 25.3463 960.478 24.1014 960.478 23.1407C960.478 22.828 960.444 22.4017 960.398 22.1856C960.313 21.7991 960.16 20.2415 960.103 19.1842C960.086 18.8715 960.034 18.4907 959.989 18.3372C959.898 18.0075 959.887 17.2798 959.966 16.9956C960 16.8876 960.052 16.592 960.086 16.3419C960.154 15.8246 960.364 15.33 960.677 14.9662C960.847 14.7672 961.638 14.0623 962.547 13.2949C962.712 13.1585 963.44 12.6639 963.968 12.3285C964.173 12.1978 964.19 12.1637 964.207 11.9079C964.218 11.6464 964.213 11.635 964.133 11.7373C964.048 11.8453 964.048 11.8396 964.082 11.6634C964.099 11.5611 964.093 11.4872 964.065 11.5043C963.991 11.5554 963.945 11.3053 964.008 11.1916C964.054 11.1063 964.042 11.095 963.974 11.1234C963.911 11.1461 963.928 11.0893 964.031 10.9358C964.162 10.7425 964.179 10.68 964.144 10.4356C964.127 10.2821 964.082 10.1058 964.054 10.049C964.019 9.98078 964.019 9.90688 964.059 9.83867C964.144 9.6795 964.133 9.65107 964.002 9.71929C963.917 9.76477 963.889 9.76477 963.889 9.7136C963.889 9.66813 963.866 9.66813 963.803 9.71929C963.735 9.77613 963.718 9.77613 963.718 9.71929C963.718 9.6795 963.684 9.66244 963.644 9.6795C963.593 9.69655 963.621 9.56012 963.729 9.25315C963.815 9.00871 963.86 8.82112 963.82 8.84386C963.775 8.87228 963.769 8.85523 963.803 8.77564C963.832 8.7188 963.86 8.3834 963.872 8.04233C963.877 7.69556 963.9 7.2749 963.923 7.10437C963.94 6.93383 963.951 6.68939 963.945 6.56433C963.94 6.26873 964.048 5.81964 964.15 5.73438C964.196 5.70026 964.23 5.60931 964.23 5.52973C964.23 5.25687 964.525 4.75093 964.918 4.36438C965.6 3.67654 966.674 3.27293 967.532 3.38663C967.743 3.40937 967.805 3.39799 967.828 3.32978C967.868 3.22746 968.124 3.2104 968.345 3.28999C968.448 3.32978 968.505 3.3241 968.55 3.26157C968.647 3.14787 968.76 3.16492 968.834 3.30136ZM971.353 4.21658C971.37 4.26206 971.387 4.245 971.387 4.18247C971.392 4.11994 971.375 4.08583 971.358 4.10857C971.341 4.12563 971.335 4.17679 971.353 4.21658ZM963.963 8.13897C963.98 8.17876 963.991 8.15033 963.991 8.07075C963.991 7.99117 963.98 7.96274 963.963 7.99685C963.951 8.03664 963.951 8.10486 963.963 8.13897Z" fill="#B9C0CA" fill-opacity="0.5"/>
<path d="M880.752 3.30136C880.804 3.38663 880.838 3.40368 880.895 3.35252C880.94 3.31273 880.98 3.31273 881.003 3.34684C881.02 3.37526 881.088 3.38663 881.145 3.36957C881.202 3.35252 881.304 3.36957 881.372 3.40368C881.452 3.44916 881.526 3.45484 881.599 3.41505C881.696 3.3582 881.906 3.39799 882.174 3.52306C882.219 3.54011 882.373 3.56285 882.509 3.57422C882.799 3.58559 882.992 3.67086 882.935 3.75613C882.913 3.79592 882.941 3.79592 883.015 3.75613C883.112 3.70497 883.151 3.71634 883.248 3.8414C883.316 3.92667 883.367 4.01194 883.367 4.04036C883.367 4.0631 883.413 4.08015 883.464 4.08015C883.635 4.07447 883.879 4.19953 883.913 4.30185C883.936 4.3587 883.981 4.48376 884.027 4.58608C884.072 4.68272 884.106 4.77936 884.106 4.8021C884.106 4.88737 883.879 5.33076 883.794 5.39898C883.748 5.43877 883.708 5.52404 883.708 5.59226C883.708 5.65479 883.64 5.86512 883.566 6.05271C883.487 6.2403 883.424 6.44495 883.424 6.50748C883.419 6.72918 883.276 7.1669 883.225 7.12142C883.197 7.09868 883.208 7.12142 883.248 7.17258C883.305 7.25217 883.311 7.29196 883.259 7.35449C883.22 7.40565 883.208 7.54208 883.231 7.74104C883.259 7.99117 883.242 8.10486 883.146 8.33224C883.077 8.48004 882.981 8.65058 882.93 8.70743C882.867 8.77564 882.822 8.97461 882.799 9.28157C882.748 9.8614 882.356 11.1234 882.088 11.5497C881.986 11.7146 881.821 11.9818 881.73 12.1409C881.622 12.3228 881.491 12.4593 881.383 12.5047C881.287 12.5445 881.207 12.6071 881.207 12.6412C881.207 12.6753 881.275 12.9197 881.355 13.1869C881.429 13.4541 881.52 13.8236 881.548 14.0055C881.577 14.1931 881.634 14.3636 881.673 14.3864C881.713 14.4148 881.725 14.4375 881.696 14.4375C881.668 14.4375 881.673 14.4716 881.707 14.5114C881.742 14.5512 881.861 14.8184 881.969 15.1083C882.111 15.4778 882.253 15.7336 882.469 15.9951C882.81 16.4044 883.157 17.0013 883.697 18.0927C884.078 18.8772 884.158 19.1103 884.305 19.9857C884.419 20.6281 884.391 21.9014 884.249 22.4528C884.152 22.8621 884.05 23.7944 884.05 24.3174C884.05 24.5504 883.998 25.1758 883.942 25.7101C883.714 27.6997 883.697 27.9101 883.697 28.7116C883.697 29.1607 883.72 30.2066 883.754 31.0366C883.816 32.5487 883.873 32.9637 884.072 33.2252C884.123 33.2877 884.163 33.3616 884.163 33.39C884.163 33.4355 883.396 33.4014 882.952 33.3332C882.81 33.3104 882.742 33.3218 882.742 33.3673C882.742 33.4469 883.134 33.9244 883.515 34.3053C883.714 34.5042 883.845 34.6918 883.93 34.9306C883.998 35.1182 884.095 35.3285 884.141 35.4024C884.186 35.4763 884.22 35.6013 884.209 35.6866C884.203 35.7833 884.339 36.1357 884.601 36.6644C885.164 37.807 885.442 38.5517 885.977 40.3309C886.642 42.5593 886.886 43.7701 886.92 44.9923C886.937 45.7029 886.943 45.7484 887.142 46.2032C887.29 46.5329 887.369 46.8114 887.403 47.1411C887.506 48.0393 887.557 49.1478 887.511 49.648C887.466 50.1255 887.472 50.1881 887.631 50.6428C887.722 50.91 887.813 51.2738 887.836 51.4444C887.858 51.6149 887.921 51.848 887.978 51.9617C888.034 52.0697 888.103 52.3766 888.137 52.6438C888.165 52.9053 888.296 53.8888 888.421 54.821C888.552 55.759 888.671 56.7822 888.688 57.0949C888.722 57.6235 888.739 57.6974 888.933 58.0101C889.132 58.3398 889.137 58.3682 889.143 58.9196C889.149 59.5563 889.206 59.7098 889.649 60.3408C889.785 60.5284 889.962 60.824 890.047 60.9945C890.189 61.2788 890.2 61.3413 890.166 61.7392C890.138 62.1087 890.143 62.1826 890.234 62.2622C890.416 62.427 891.587 62.9785 891.997 63.0921C892.213 63.149 892.451 63.2343 892.525 63.2741C892.599 63.3138 892.821 63.348 893.014 63.348C893.333 63.3536 893.418 63.3252 894.123 62.9671C894.975 62.5351 895.197 62.5009 895.646 62.717C895.925 62.8591 896.243 63.2911 896.181 63.456C896.141 63.5697 894.93 64.5588 894.407 64.9112C893.685 65.3944 892.923 65.7071 891.184 66.2187C890.649 66.3722 889.706 66.6848 889.08 66.9065C888.455 67.1282 887.853 67.3158 887.745 67.3215C887.557 67.3329 887.546 67.3215 887.438 67.0259C887.347 66.7758 887.341 66.6905 887.392 66.5484C887.449 66.3949 887.443 66.3494 887.318 66.1675C887.074 65.8151 886.898 65.3489 886.687 64.5417C886.579 64.104 886.346 63.3138 886.17 62.7852C885.999 62.2508 885.772 61.4493 885.67 60.9945C885.573 60.5398 885.425 60.0395 885.346 59.886C885.266 59.7269 885.13 59.3858 885.044 59.1186C884.959 58.8514 884.8 58.4251 884.692 58.1693C884.59 57.9078 884.442 57.436 884.362 57.1176C884.22 56.5094 883.981 55.7533 883.629 54.7585C883.367 54.0422 883.043 52.6609 882.969 51.9844C882.935 51.7002 882.884 50.9043 882.856 50.2108C882.81 49.1023 882.788 48.9318 882.685 48.7612C882.623 48.6589 882.572 48.5282 882.572 48.4713C882.572 48.4145 882.509 48.2496 882.435 48.1018C882.361 47.954 882.287 47.7323 882.265 47.6073C882.242 47.4822 882.151 47.1752 882.054 46.9251C881.889 46.4874 881.73 46.2429 880.525 44.566C880.32 44.2874 879.934 43.6564 879.661 43.1676C879.098 42.1557 879.161 42.1387 879.041 43.2869C878.945 44.2818 878.712 45.845 878.564 46.5272C878.49 46.8683 878.388 47.3514 878.342 47.5902C878.285 47.8972 878.194 48.1359 878.03 48.4031C877.904 48.6134 877.774 48.909 877.74 49.0682C877.643 49.5287 877.49 49.8129 877.148 50.1881C876.677 50.6997 876.04 51.2795 875.682 51.5126C875.005 51.9617 873.056 54.1616 872.271 55.3554C871.782 56.1001 871.538 56.4468 871.31 56.697C871.197 56.8277 871.037 57.0892 870.964 57.2825C870.821 57.6235 870.821 57.6406 870.901 58.0726C871.02 58.7036 870.895 59.8121 870.628 60.4261C870.389 60.9888 870.179 61.6085 870.179 61.7619C870.179 61.9382 870.611 63.0182 870.793 63.2911C870.969 63.5526 871.356 63.8311 872.015 64.1779C872.334 64.3484 872.476 64.4621 872.544 64.5929C872.595 64.6952 872.675 64.8146 872.72 64.8657C872.777 64.934 872.794 65.0704 872.783 65.3205C872.766 65.673 872.76 65.6843 872.561 65.7867C872.186 65.9686 871.288 66.0254 869.974 65.9515C868.025 65.8435 867.814 65.7241 866.78 64.1495C866.456 63.6492 865.927 62.9216 865.614 62.5294C864.949 61.6994 864.739 61.3072 864.83 61.0457C864.864 60.9547 864.932 60.8069 864.989 60.7217C865.052 60.6364 865.125 60.5056 865.16 60.4261C865.199 60.3465 865.341 60.0395 865.478 59.7439C865.62 59.4483 865.847 59.0276 865.995 58.8116C866.137 58.5956 866.297 58.3 866.353 58.1579C867.081 56.1683 867.564 55.2303 868.502 54.0024C868.911 53.4681 869.247 52.8598 869.383 52.4108C869.628 51.5808 870.037 50.9271 870.924 49.9266C871.6 49.1648 871.975 48.784 872.243 48.585C872.356 48.4997 872.515 48.3008 872.595 48.1473C872.669 47.9995 872.794 47.829 872.862 47.7664C873.107 47.5731 873.203 47.2434 873.203 46.6295C873.203 46.0497 873.118 45.5778 872.697 43.8554C872.47 42.9231 872.459 42.7924 872.504 39.8193C872.521 38.762 872.447 38.1367 872.288 37.915C871.93 37.4204 871.714 36.4938 871.714 35.4706C871.714 35.0727 871.737 34.7316 871.765 34.7032C871.794 34.6691 871.873 34.3564 871.936 34.004C872.004 33.6515 872.083 33.3048 872.112 33.2309C872.14 33.157 872.14 33.0774 872.112 33.049C872.089 33.0205 872.118 32.7306 872.18 32.4009C872.243 32.0712 872.294 31.7415 872.294 31.6619C872.288 31.5823 872.288 31.3265 872.282 31.0878C872.271 30.5761 872.373 29.6382 872.481 29.2459C872.521 29.0868 872.572 28.831 872.595 28.6775C872.618 28.5183 872.669 28.2 872.714 27.9669C872.839 27.3416 872.828 26.8868 872.663 26.091C872.51 25.3463 872.396 24.1014 872.396 23.1407C872.396 22.828 872.362 22.4017 872.317 22.1856C872.231 21.7991 872.078 20.2415 872.021 19.1842C872.004 18.8715 871.953 18.4907 871.907 18.3372C871.816 18.0075 871.805 17.2798 871.884 16.9956C871.919 16.8876 871.97 16.592 872.004 16.3419C872.072 15.8246 872.282 15.33 872.595 14.9662C872.766 14.7672 873.556 14.0623 874.465 13.2949C874.63 13.1585 875.358 12.6639 875.886 12.3285C876.091 12.1978 876.108 12.1637 876.125 11.9079C876.137 11.6464 876.131 11.635 876.051 11.7373C875.966 11.8453 875.966 11.8396 876 11.6634C876.017 11.5611 876.012 11.4872 875.983 11.5043C875.909 11.5554 875.864 11.3053 875.926 11.1916C875.972 11.1063 875.96 11.095 875.892 11.1234C875.83 11.1461 875.847 11.0893 875.949 10.9358C876.08 10.7425 876.097 10.68 876.063 10.4356C876.046 10.2821 876 10.1058 875.972 10.049C875.938 9.98078 875.938 9.90688 875.977 9.83867C876.063 9.6795 876.051 9.65107 875.921 9.71929C875.835 9.76477 875.807 9.76477 875.807 9.7136C875.807 9.66813 875.784 9.66813 875.722 9.71929C875.653 9.77613 875.636 9.77613 875.636 9.71929C875.636 9.6795 875.602 9.66244 875.562 9.6795C875.511 9.69655 875.54 9.56012 875.648 9.25315C875.733 9.00871 875.778 8.82112 875.739 8.84386C875.693 8.87228 875.687 8.85523 875.722 8.77564C875.75 8.7188 875.778 8.3834 875.79 8.04233C875.795 7.69556 875.818 7.2749 875.841 7.10437C875.858 6.93383 875.869 6.68939 875.864 6.56433C875.858 6.26873 875.966 5.81964 876.068 5.73438C876.114 5.70026 876.148 5.60931 876.148 5.52973C876.148 5.25687 876.444 4.75093 876.836 4.36438C877.518 3.67654 878.592 3.27293 879.451 3.38663C879.661 3.40937 879.724 3.39799 879.746 3.32978C879.786 3.22746 880.042 3.2104 880.264 3.28999C880.366 3.32978 880.423 3.3241 880.468 3.26157C880.565 3.14787 880.679 3.16492 880.752 3.30136ZM883.271 4.21658C883.288 4.26206 883.305 4.245 883.305 4.18247C883.311 4.11994 883.294 4.08583 883.276 4.10857C883.259 4.12563 883.254 4.17679 883.271 4.21658ZM875.881 8.13897C875.898 8.17876 875.909 8.15033 875.909 8.07075C875.909 7.99117 875.898 7.96274 875.881 7.99685C875.869 8.03664 875.869 8.10486 875.881 8.13897Z" fill="#B9C0CA" fill-opacity="0.5"/>
<path d="M1036.81 3.30136C1036.86 3.38663 1036.9 3.40368 1036.95 3.35252C1037 3.31273 1037.04 3.31273 1037.06 3.34684C1037.08 3.37526 1037.15 3.38663 1037.2 3.36957C1037.26 3.35252 1037.36 3.36957 1037.43 3.40368C1037.51 3.44916 1037.58 3.45484 1037.66 3.41505C1037.75 3.3582 1037.96 3.39799 1038.23 3.52306C1038.28 3.54011 1038.43 3.56285 1038.57 3.57422C1038.86 3.58559 1039.05 3.67086 1038.99 3.75613C1038.97 3.79592 1039 3.79592 1039.07 3.75613C1039.17 3.70497 1039.21 3.71634 1039.31 3.8414C1039.37 3.92667 1039.43 4.01194 1039.43 4.04036C1039.43 4.0631 1039.47 4.08015 1039.52 4.08015C1039.69 4.07447 1039.94 4.19953 1039.97 4.30185C1039.99 4.3587 1040.04 4.48376 1040.08 4.58608C1040.13 4.68272 1040.16 4.77936 1040.16 4.8021C1040.16 4.88737 1039.94 5.33076 1039.85 5.39898C1039.81 5.43877 1039.77 5.52404 1039.77 5.59226C1039.77 5.65479 1039.7 5.86512 1039.62 6.05271C1039.54 6.2403 1039.48 6.44495 1039.48 6.50748C1039.48 6.72918 1039.33 7.1669 1039.28 7.12142C1039.25 7.09868 1039.27 7.12142 1039.31 7.17258C1039.36 7.25217 1039.37 7.29196 1039.32 7.35449C1039.28 7.40565 1039.27 7.54208 1039.29 7.74104C1039.32 7.99117 1039.3 8.10486 1039.2 8.33224C1039.14 8.48004 1039.04 8.65058 1038.99 8.70743C1038.92 8.77564 1038.88 8.97461 1038.86 9.28157C1038.81 9.8614 1038.41 11.1234 1038.15 11.5497C1038.04 11.7146 1037.88 11.9818 1037.79 12.1409C1037.68 12.3228 1037.55 12.4593 1037.44 12.5047C1037.34 12.5445 1037.26 12.6071 1037.26 12.6412C1037.26 12.6753 1037.33 12.9197 1037.41 13.1869C1037.49 13.4541 1037.58 13.8236 1037.61 14.0055C1037.63 14.1931 1037.69 14.3636 1037.73 14.3864C1037.77 14.4148 1037.78 14.4375 1037.75 14.4375C1037.73 14.4375 1037.73 14.4716 1037.77 14.5114C1037.8 14.5512 1037.92 14.8184 1038.03 15.1083C1038.17 15.4778 1038.31 15.7336 1038.53 15.9951C1038.87 16.4044 1039.21 17.0013 1039.75 18.0927C1040.14 18.8772 1040.22 19.1103 1040.36 19.9857C1040.48 20.6281 1040.45 21.9014 1040.31 22.4528C1040.21 22.8621 1040.11 23.7944 1040.11 24.3174C1040.11 24.5504 1040.06 25.1758 1040 25.7101C1039.77 27.6997 1039.75 27.9101 1039.75 28.7116C1039.75 29.1607 1039.78 30.2066 1039.81 31.0366C1039.87 32.5487 1039.93 32.9637 1040.13 33.2252C1040.18 33.2877 1040.22 33.3616 1040.22 33.39C1040.22 33.4355 1039.45 33.4014 1039.01 33.3332C1038.87 33.3104 1038.8 33.3218 1038.8 33.3673C1038.8 33.4469 1039.19 33.9244 1039.57 34.3053C1039.77 34.5042 1039.9 34.6918 1039.99 34.9306C1040.06 35.1182 1040.15 35.3285 1040.2 35.4024C1040.24 35.4763 1040.28 35.6013 1040.27 35.6866C1040.26 35.7833 1040.4 36.1357 1040.66 36.6644C1041.22 37.807 1041.5 38.5517 1042.03 40.3309C1042.7 42.5593 1042.94 43.7701 1042.98 44.9923C1042.99 45.7029 1043 45.7484 1043.2 46.2032C1043.35 46.5329 1043.43 46.8114 1043.46 47.1411C1043.56 48.0393 1043.61 49.1478 1043.57 49.648C1043.52 50.1255 1043.53 50.1881 1043.69 50.6428C1043.78 50.91 1043.87 51.2738 1043.89 51.4444C1043.92 51.6149 1043.98 51.848 1044.04 51.9617C1044.09 52.0697 1044.16 52.3766 1044.19 52.6438C1044.22 52.9053 1044.35 53.8888 1044.48 54.821C1044.61 55.759 1044.73 56.7822 1044.75 57.0949C1044.78 57.6235 1044.8 57.6974 1044.99 58.0101C1045.19 58.3398 1045.19 58.3682 1045.2 58.9196C1045.21 59.5563 1045.26 59.7098 1045.71 60.3408C1045.84 60.5284 1046.02 60.824 1046.1 60.9945C1046.25 61.2788 1046.26 61.3413 1046.22 61.7392C1046.2 62.1087 1046.2 62.1826 1046.29 62.2622C1046.47 62.427 1047.64 62.9785 1048.05 63.0921C1048.27 63.149 1048.51 63.2343 1048.58 63.2741C1048.66 63.3138 1048.88 63.348 1049.07 63.348C1049.39 63.3536 1049.48 63.3252 1050.18 62.9671C1051.03 62.5351 1051.25 62.5009 1051.7 62.717C1051.98 62.8591 1052.3 63.2911 1052.24 63.456C1052.2 63.5697 1050.99 64.5588 1050.46 64.9112C1049.74 65.3944 1048.98 65.7071 1047.24 66.2187C1046.71 66.3722 1045.76 66.6848 1045.14 66.9065C1044.51 67.1282 1043.91 67.3158 1043.8 67.3215C1043.61 67.3329 1043.6 67.3215 1043.5 67.0259C1043.4 66.7758 1043.4 66.6905 1043.45 66.5484C1043.51 66.3949 1043.5 66.3494 1043.38 66.1675C1043.13 65.8151 1042.96 65.3489 1042.74 64.5417C1042.64 64.104 1042.4 63.3138 1042.23 62.7852C1042.06 62.2508 1041.83 61.4493 1041.73 60.9945C1041.63 60.5398 1041.48 60.0395 1041.4 59.886C1041.32 59.7269 1041.19 59.3858 1041.1 59.1186C1041.02 58.8514 1040.86 58.4251 1040.75 58.1693C1040.65 57.9078 1040.5 57.436 1040.42 57.1176C1040.28 56.5094 1040.04 55.7533 1039.69 54.7585C1039.43 54.0422 1039.1 52.6609 1039.03 51.9844C1038.99 51.7002 1038.94 50.9043 1038.91 50.2108C1038.87 49.1023 1038.85 48.9318 1038.74 48.7612C1038.68 48.6589 1038.63 48.5282 1038.63 48.4713C1038.63 48.4145 1038.57 48.2496 1038.49 48.1018C1038.42 47.954 1038.34 47.7323 1038.32 47.6073C1038.3 47.4822 1038.21 47.1752 1038.11 46.9251C1037.95 46.4874 1037.79 46.2429 1036.58 44.566C1036.38 44.2874 1035.99 43.6564 1035.72 43.1676C1035.16 42.1557 1035.22 42.1387 1035.1 43.2869C1035 44.2818 1034.77 45.845 1034.62 46.5272C1034.55 46.8683 1034.45 47.3514 1034.4 47.5902C1034.34 47.8972 1034.25 48.1359 1034.09 48.4031C1033.96 48.6134 1033.83 48.909 1033.8 49.0682C1033.7 49.5287 1033.55 49.8129 1033.21 50.1881C1032.73 50.6997 1032.1 51.2795 1031.74 51.5126C1031.06 51.9617 1029.11 54.1616 1028.33 55.3554C1027.84 56.1001 1027.6 56.4468 1027.37 56.697C1027.25 56.8277 1027.1 57.0892 1027.02 57.2825C1026.88 57.6235 1026.88 57.6406 1026.96 58.0726C1027.08 58.7036 1026.95 59.8121 1026.69 60.4261C1026.45 60.9888 1026.24 61.6085 1026.24 61.7619C1026.24 61.9382 1026.67 63.0182 1026.85 63.2911C1027.03 63.5526 1027.41 63.8311 1028.07 64.1779C1028.39 64.3484 1028.53 64.4621 1028.6 64.5929C1028.65 64.6952 1028.73 64.8146 1028.78 64.8657C1028.83 64.934 1028.85 65.0704 1028.84 65.3205C1028.82 65.673 1028.82 65.6843 1028.62 65.7867C1028.24 65.9686 1027.35 66.0254 1026.03 65.9515C1024.08 65.8435 1023.87 65.7241 1022.84 64.1495C1022.51 63.6492 1021.98 62.9216 1021.67 62.5294C1021.01 61.6994 1020.8 61.3072 1020.89 61.0457C1020.92 60.9547 1020.99 60.8069 1021.05 60.7217C1021.11 60.6364 1021.18 60.5056 1021.22 60.4261C1021.26 60.3465 1021.4 60.0395 1021.54 59.7439C1021.68 59.4483 1021.91 59.0276 1022.05 58.8116C1022.19 58.5956 1022.35 58.3 1022.41 58.1579C1023.14 56.1683 1023.62 55.2303 1024.56 54.0024C1024.97 53.4681 1025.3 52.8598 1025.44 52.4108C1025.69 51.5808 1026.09 50.9271 1026.98 49.9266C1027.66 49.1648 1028.03 48.784 1028.3 48.585C1028.41 48.4997 1028.57 48.3008 1028.65 48.1473C1028.73 47.9995 1028.85 47.829 1028.92 47.7664C1029.16 47.5731 1029.26 47.2434 1029.26 46.6295C1029.26 46.0497 1029.18 45.5778 1028.75 43.8554C1028.53 42.9231 1028.52 42.7924 1028.56 39.8193C1028.58 38.762 1028.5 38.1367 1028.35 37.915C1027.99 37.4204 1027.77 36.4938 1027.77 35.4706C1027.77 35.0727 1027.79 34.7316 1027.82 34.7032C1027.85 34.6691 1027.93 34.3564 1027.99 34.004C1028.06 33.6515 1028.14 33.3048 1028.17 33.2309C1028.2 33.157 1028.2 33.0774 1028.17 33.049C1028.15 33.0205 1028.18 32.7306 1028.24 32.4009C1028.3 32.0712 1028.35 31.7415 1028.35 31.6619C1028.35 31.5823 1028.35 31.3265 1028.34 31.0878C1028.33 30.5761 1028.43 29.6382 1028.54 29.2459C1028.58 29.0868 1028.63 28.831 1028.65 28.6775C1028.68 28.5183 1028.73 28.2 1028.77 27.9669C1028.9 27.3416 1028.89 26.8868 1028.72 26.091C1028.57 25.3463 1028.45 24.1014 1028.45 23.1407C1028.45 22.828 1028.42 22.4017 1028.37 22.1856C1028.29 21.7991 1028.14 20.2415 1028.08 19.1842C1028.06 18.8715 1028.01 18.4907 1027.96 18.3372C1027.87 18.0075 1027.86 17.2798 1027.94 16.9956C1027.98 16.8876 1028.03 16.592 1028.06 16.3419C1028.13 15.8246 1028.34 15.33 1028.65 14.9662C1028.82 14.7672 1029.61 14.0623 1030.52 13.2949C1030.69 13.1585 1031.42 12.6639 1031.94 12.3285C1032.15 12.1978 1032.17 12.1637 1032.18 11.9079C1032.19 11.6464 1032.19 11.635 1032.11 11.7373C1032.02 11.8453 1032.02 11.8396 1032.06 11.6634C1032.07 11.5611 1032.07 11.4872 1032.04 11.5043C1031.97 11.5554 1031.92 11.3053 1031.98 11.1916C1032.03 11.1063 1032.02 11.095 1031.95 11.1234C1031.89 11.1461 1031.9 11.0893 1032.01 10.9358C1032.14 10.7425 1032.15 10.68 1032.12 10.4356C1032.1 10.2821 1032.06 10.1058 1032.03 10.049C1032 9.98078 1032 9.90688 1032.04 9.83867C1032.12 9.6795 1032.11 9.65107 1031.98 9.71929C1031.89 9.76477 1031.86 9.76477 1031.86 9.7136C1031.86 9.66813 1031.84 9.66813 1031.78 9.71929C1031.71 9.77613 1031.69 9.77613 1031.69 9.71929C1031.69 9.6795 1031.66 9.66244 1031.62 9.6795C1031.57 9.69655 1031.6 9.56012 1031.71 9.25315C1031.79 9.00871 1031.84 8.82112 1031.8 8.84386C1031.75 8.87228 1031.75 8.85523 1031.78 8.77564C1031.81 8.7188 1031.84 8.3834 1031.85 8.04233C1031.85 7.69556 1031.88 7.2749 1031.9 7.10437C1031.92 6.93383 1031.93 6.68939 1031.92 6.56433C1031.92 6.26873 1032.02 5.81964 1032.13 5.73438C1032.17 5.70026 1032.21 5.60931 1032.21 5.52973C1032.21 5.25687 1032.5 4.75093 1032.89 4.36438C1033.58 3.67654 1034.65 3.27293 1035.51 3.38663C1035.72 3.40937 1035.78 3.39799 1035.8 3.32978C1035.84 3.22746 1036.1 3.2104 1036.32 3.28999C1036.42 3.32978 1036.48 3.3241 1036.53 3.26157C1036.62 3.14787 1036.74 3.16492 1036.81 3.30136ZM1039.33 4.21658C1039.35 4.26206 1039.36 4.245 1039.36 4.18247C1039.37 4.11994 1039.35 4.08583 1039.33 4.10857C1039.32 4.12563 1039.31 4.17679 1039.33 4.21658ZM1031.94 8.13897C1031.96 8.17876 1031.97 8.15033 1031.97 8.07075C1031.97 7.99117 1031.96 7.96274 1031.94 7.99685C1031.93 8.03664 1031.93 8.10486 1031.94 8.13897Z" fill="#B9C0CA" fill-opacity="0.5"/>
<path d="M1322.12 3.30136C1322.17 3.38663 1322.2 3.40368 1322.26 3.35252C1322.31 3.31273 1322.35 3.31273 1322.37 3.34684C1322.39 3.37526 1322.45 3.38663 1322.51 3.36957C1322.57 3.35252 1322.67 3.36957 1322.74 3.40368C1322.82 3.44916 1322.89 3.45484 1322.97 3.41505C1323.06 3.3582 1323.27 3.39799 1323.54 3.52306C1323.59 3.54011 1323.74 3.56285 1323.88 3.57422C1324.17 3.58559 1324.36 3.67086 1324.3 3.75613C1324.28 3.79592 1324.31 3.79592 1324.38 3.75613C1324.48 3.70497 1324.52 3.71634 1324.61 3.8414C1324.68 3.92667 1324.73 4.01194 1324.73 4.04036C1324.73 4.0631 1324.78 4.08015 1324.83 4.08015C1325 4.07447 1325.25 4.19953 1325.28 4.30185C1325.3 4.3587 1325.35 4.48376 1325.39 4.58608C1325.44 4.68272 1325.47 4.77936 1325.47 4.8021C1325.47 4.88737 1325.25 5.33076 1325.16 5.39898C1325.11 5.43877 1325.07 5.52404 1325.07 5.59226C1325.07 5.65479 1325.01 5.86512 1324.93 6.05271C1324.85 6.2403 1324.79 6.44495 1324.79 6.50748C1324.79 6.72918 1324.64 7.1669 1324.59 7.12142C1324.56 7.09868 1324.57 7.12142 1324.61 7.17258C1324.67 7.25217 1324.68 7.29196 1324.63 7.35449C1324.59 7.40565 1324.57 7.54208 1324.6 7.74104C1324.63 7.99117 1324.61 8.10486 1324.51 8.33224C1324.44 8.48004 1324.35 8.65058 1324.3 8.70743C1324.23 8.77564 1324.19 8.97461 1324.17 9.28157C1324.11 9.8614 1323.72 11.1234 1323.45 11.5497C1323.35 11.7146 1323.19 11.9818 1323.1 12.1409C1322.99 12.3228 1322.86 12.4593 1322.75 12.5047C1322.65 12.5445 1322.57 12.6071 1322.57 12.6412C1322.57 12.6753 1322.64 12.9197 1322.72 13.1869C1322.8 13.4541 1322.89 13.8236 1322.91 14.0055C1322.94 14.1931 1323 14.3636 1323.04 14.3864C1323.08 14.4148 1323.09 14.4375 1323.06 14.4375C1323.03 14.4375 1323.04 14.4716 1323.07 14.5114C1323.11 14.5512 1323.23 14.8184 1323.34 15.1083C1323.48 15.4778 1323.62 15.7336 1323.84 15.9951C1324.18 16.4044 1324.52 17.0013 1325.06 18.0927C1325.44 18.8772 1325.52 19.1103 1325.67 19.9857C1325.79 20.6281 1325.76 21.9014 1325.61 22.4528C1325.52 22.8621 1325.42 23.7944 1325.42 24.3174C1325.42 24.5504 1325.36 25.1758 1325.31 25.7101C1325.08 27.6997 1325.06 27.9101 1325.06 28.7116C1325.06 29.1607 1325.09 30.2066 1325.12 31.0366C1325.18 32.5487 1325.24 32.9637 1325.44 33.2252C1325.49 33.2877 1325.53 33.3616 1325.53 33.39C1325.53 33.4355 1324.76 33.4014 1324.32 33.3332C1324.18 33.3104 1324.11 33.3218 1324.11 33.3673C1324.11 33.4469 1324.5 33.9244 1324.88 34.3053C1325.08 34.5042 1325.21 34.6918 1325.3 34.9306C1325.36 35.1182 1325.46 35.3285 1325.51 35.4024C1325.55 35.4763 1325.59 35.6013 1325.58 35.6866C1325.57 35.7833 1325.71 36.1357 1325.97 36.6644C1326.53 37.807 1326.81 38.5517 1327.34 40.3309C1328.01 42.5593 1328.25 43.7701 1328.29 44.9923C1328.3 45.7029 1328.31 45.7484 1328.51 46.2032C1328.66 46.5329 1328.74 46.8114 1328.77 47.1411C1328.87 48.0393 1328.92 49.1478 1328.88 49.648C1328.83 50.1255 1328.84 50.1881 1329 50.6428C1329.09 50.91 1329.18 51.2738 1329.2 51.4444C1329.22 51.6149 1329.29 51.848 1329.34 51.9617C1329.4 52.0697 1329.47 52.3766 1329.5 52.6438C1329.53 52.9053 1329.66 53.8888 1329.79 54.821C1329.92 55.759 1330.04 56.7822 1330.05 57.0949C1330.09 57.6235 1330.11 57.6974 1330.3 58.0101C1330.5 58.3398 1330.5 58.3682 1330.51 58.9196C1330.52 59.5563 1330.57 59.7098 1331.02 60.3408C1331.15 60.5284 1331.33 60.824 1331.41 60.9945C1331.56 61.2788 1331.57 61.3413 1331.53 61.7392C1331.5 62.1087 1331.51 62.1826 1331.6 62.2622C1331.78 62.427 1332.95 62.9785 1333.36 63.0921C1333.58 63.149 1333.82 63.2343 1333.89 63.2741C1333.97 63.3138 1334.19 63.348 1334.38 63.348C1334.7 63.3536 1334.78 63.3252 1335.49 62.9671C1336.34 62.5351 1336.56 62.5009 1337.01 62.717C1337.29 62.8591 1337.61 63.2911 1337.55 63.456C1337.51 63.5697 1336.3 64.5588 1335.77 64.9112C1335.05 65.3944 1334.29 65.7071 1332.55 66.2187C1332.02 66.3722 1331.07 66.6848 1330.45 66.9065C1329.82 67.1282 1329.22 67.3158 1329.11 67.3215C1328.92 67.3329 1328.91 67.3215 1328.8 67.0259C1328.71 66.7758 1328.71 66.6905 1328.76 66.5484C1328.82 66.3949 1328.81 66.3494 1328.68 66.1675C1328.44 65.8151 1328.26 65.3489 1328.05 64.5417C1327.95 64.104 1327.71 63.3138 1327.54 62.7852C1327.37 62.2508 1327.14 61.4493 1327.04 60.9945C1326.94 60.5398 1326.79 60.0395 1326.71 59.886C1326.63 59.7269 1326.5 59.3858 1326.41 59.1186C1326.33 58.8514 1326.17 58.4251 1326.06 58.1693C1325.96 57.9078 1325.81 57.436 1325.73 57.1176C1325.59 56.5094 1325.35 55.7533 1325 54.7585C1324.73 54.0422 1324.41 52.6609 1324.34 51.9844C1324.3 51.7002 1324.25 50.9043 1324.22 50.2108C1324.18 49.1023 1324.15 48.9318 1324.05 48.7612C1323.99 48.6589 1323.94 48.5282 1323.94 48.4713C1323.94 48.4145 1323.88 48.2496 1323.8 48.1018C1323.73 47.954 1323.65 47.7323 1323.63 47.6073C1323.61 47.4822 1323.52 47.1752 1323.42 46.9251C1323.26 46.4874 1323.1 46.2429 1321.89 44.566C1321.69 44.2874 1321.3 43.6564 1321.03 43.1676C1320.46 42.1557 1320.53 42.1387 1320.41 43.2869C1320.31 44.2818 1320.08 45.845 1319.93 46.5272C1319.86 46.8683 1319.75 47.3514 1319.71 47.5902C1319.65 47.8972 1319.56 48.1359 1319.4 48.4031C1319.27 48.6134 1319.14 48.909 1319.11 49.0682C1319.01 49.5287 1318.86 49.8129 1318.51 50.1881C1318.04 50.6997 1317.41 51.2795 1317.05 51.5126C1316.37 51.9617 1314.42 54.1616 1313.64 55.3554C1313.15 56.1001 1312.9 56.4468 1312.68 56.697C1312.56 56.8277 1312.4 57.0892 1312.33 57.2825C1312.19 57.6235 1312.19 57.6406 1312.27 58.0726C1312.39 58.7036 1312.26 59.8121 1311.99 60.4261C1311.76 60.9888 1311.55 61.6085 1311.55 61.7619C1311.55 61.9382 1311.98 63.0182 1312.16 63.2911C1312.34 63.5526 1312.72 63.8311 1313.38 64.1779C1313.7 64.3484 1313.84 64.4621 1313.91 64.5929C1313.96 64.6952 1314.04 64.8146 1314.09 64.8657C1314.14 64.934 1314.16 65.0704 1314.15 65.3205C1314.13 65.673 1314.13 65.6843 1313.93 65.7867C1313.55 65.9686 1312.65 66.0254 1311.34 65.9515C1309.39 65.8435 1309.18 65.7241 1308.15 64.1495C1307.82 63.6492 1307.29 62.9216 1306.98 62.5294C1306.32 61.6994 1306.11 61.3072 1306.2 61.0457C1306.23 60.9547 1306.3 60.8069 1306.36 60.7217C1306.42 60.6364 1306.49 60.5056 1306.53 60.4261C1306.57 60.3465 1306.71 60.0395 1306.84 59.7439C1306.99 59.4483 1307.21 59.0276 1307.36 58.8116C1307.5 58.5956 1307.66 58.3 1307.72 58.1579C1308.45 56.1683 1308.93 55.2303 1309.87 54.0024C1310.28 53.4681 1310.61 52.8598 1310.75 52.4108C1310.99 51.5808 1311.4 50.9271 1312.29 49.9266C1312.97 49.1648 1313.34 48.784 1313.61 48.585C1313.72 48.4997 1313.88 48.3008 1313.96 48.1473C1314.04 47.9995 1314.16 47.829 1314.23 47.7664C1314.47 47.5731 1314.57 47.2434 1314.57 46.6295C1314.57 46.0497 1314.48 45.5778 1314.06 43.8554C1313.84 42.9231 1313.83 42.7924 1313.87 39.8193C1313.89 38.762 1313.81 38.1367 1313.65 37.915C1313.3 37.4204 1313.08 36.4938 1313.08 35.4706C1313.08 35.0727 1313.1 34.7316 1313.13 34.7032C1313.16 34.6691 1313.24 34.3564 1313.3 34.004C1313.37 33.6515 1313.45 33.3048 1313.48 33.2309C1313.51 33.157 1313.51 33.0774 1313.48 33.049C1313.46 33.0205 1313.48 32.7306 1313.55 32.4009C1313.61 32.0712 1313.66 31.7415 1313.66 31.6619C1313.65 31.5823 1313.65 31.3265 1313.65 31.0878C1313.64 30.5761 1313.74 29.6382 1313.85 29.2459C1313.89 29.0868 1313.94 28.831 1313.96 28.6775C1313.98 28.5183 1314.04 28.2 1314.08 27.9669C1314.21 27.3416 1314.19 26.8868 1314.03 26.091C1313.88 25.3463 1313.76 24.1014 1313.76 23.1407C1313.76 22.828 1313.73 22.4017 1313.68 22.1856C1313.6 21.7991 1313.44 20.2415 1313.39 19.1842C1313.37 18.8715 1313.32 18.4907 1313.27 18.3372C1313.18 18.0075 1313.17 17.2798 1313.25 16.9956C1313.29 16.8876 1313.34 16.592 1313.37 16.3419C1313.44 15.8246 1313.65 15.33 1313.96 14.9662C1314.13 14.7672 1314.92 14.0623 1315.83 13.2949C1316 13.1585 1316.72 12.6639 1317.25 12.3285C1317.46 12.1978 1317.47 12.1637 1317.49 11.9079C1317.5 11.6464 1317.5 11.635 1317.42 11.7373C1317.33 11.8453 1317.33 11.8396 1317.37 11.6634C1317.38 11.5611 1317.38 11.4872 1317.35 11.5043C1317.28 11.5554 1317.23 11.3053 1317.29 11.1916C1317.34 11.1063 1317.33 11.095 1317.26 11.1234C1317.2 11.1461 1317.21 11.0893 1317.32 10.9358C1317.45 10.7425 1317.46 10.68 1317.43 10.4356C1317.41 10.2821 1317.37 10.1058 1317.34 10.049C1317.3 9.98078 1317.3 9.90688 1317.34 9.83867C1317.43 9.6795 1317.42 9.65107 1317.29 9.71929C1317.2 9.76477 1317.17 9.76477 1317.17 9.7136C1317.17 9.66813 1317.15 9.66813 1317.09 9.71929C1317.02 9.77613 1317 9.77613 1317 9.71929C1317 9.6795 1316.97 9.66244 1316.93 9.6795C1316.88 9.69655 1316.91 9.56012 1317.01 9.25315C1317.1 9.00871 1317.14 8.82112 1317.11 8.84386C1317.06 8.87228 1317.05 8.85523 1317.09 8.77564C1317.12 8.7188 1317.14 8.3834 1317.16 8.04233C1317.16 7.69556 1317.18 7.2749 1317.21 7.10437C1317.22 6.93383 1317.24 6.68939 1317.23 6.56433C1317.22 6.26873 1317.33 5.81964 1317.43 5.73438C1317.48 5.70026 1317.51 5.60931 1317.51 5.52973C1317.51 5.25687 1317.81 4.75093 1318.2 4.36438C1318.88 3.67654 1319.96 3.27293 1320.82 3.38663C1321.03 3.40937 1321.09 3.39799 1321.11 3.32978C1321.15 3.22746 1321.41 3.2104 1321.63 3.28999C1321.73 3.32978 1321.79 3.3241 1321.83 3.26157C1321.93 3.14787 1322.05 3.16492 1322.12 3.30136ZM1324.64 4.21658C1324.65 4.26206 1324.67 4.245 1324.67 4.18247C1324.68 4.11994 1324.66 4.08583 1324.64 4.10857C1324.63 4.12563 1324.62 4.17679 1324.64 4.21658ZM1317.25 8.13897C1317.26 8.17876 1317.28 8.15033 1317.28 8.07075C1317.28 7.99117 1317.26 7.96274 1317.25 7.99685C1317.24 8.03664 1317.24 8.10486 1317.25 8.13897Z" fill="#B9C0CA" fill-opacity="0.5"/>
<path d="M1392.7 0.436127C1392.75 0.521393 1392.78 0.538448 1392.84 0.487286C1392.88 0.447495 1392.92 0.447495 1392.95 0.481602C1392.96 0.510025 1393.03 0.521393 1393.09 0.504337C1393.15 0.487286 1393.25 0.504337 1393.32 0.538448C1393.4 0.583923 1393.47 0.589607 1393.54 0.549816C1393.64 0.49297 1393.85 0.532761 1394.12 0.657822C1394.16 0.674877 1394.32 0.697617 1394.45 0.708984C1394.74 0.720356 1394.94 0.805622 1394.88 0.890892C1394.86 0.930687 1394.89 0.930687 1394.96 0.890892C1395.06 0.839733 1395.1 0.851101 1395.19 0.976162C1395.26 1.06143 1395.31 1.1467 1395.31 1.17513C1395.31 1.19786 1395.36 1.21492 1395.41 1.21492C1395.58 1.20923 1395.82 1.33429 1395.86 1.43661C1395.88 1.49346 1395.93 1.61852 1395.97 1.72085C1396.02 1.81749 1396.05 1.91412 1396.05 1.93686C1396.05 2.02213 1395.82 2.46553 1395.74 2.53374C1395.69 2.57354 1395.65 2.65881 1395.65 2.72702C1395.65 2.78955 1395.58 2.99989 1395.51 3.18748C1395.43 3.37507 1395.37 3.57972 1395.37 3.64225C1395.36 3.86395 1395.22 4.30166 1395.17 4.25618C1395.14 4.23345 1395.15 4.25618 1395.19 4.30735C1395.25 4.38693 1395.25 4.42672 1395.2 4.48925C1395.16 4.54042 1395.15 4.67685 1395.18 4.87581C1395.2 5.12593 1395.19 5.23962 1395.09 5.46701C1395.02 5.61481 1394.93 5.78535 1394.87 5.84219C1394.81 5.91041 1394.77 6.10937 1394.74 6.41634C1394.69 6.99617 1394.3 8.25816 1394.03 8.6845C1393.93 8.84935 1393.77 9.11653 1393.67 9.2757C1393.57 9.45761 1393.44 9.59404 1393.33 9.63951C1393.23 9.67931 1393.15 9.74184 1393.15 9.77595C1393.15 9.81005 1393.22 10.0545 1393.3 10.3217C1393.37 10.5888 1393.46 10.9583 1393.49 11.1403C1393.52 11.3278 1393.58 11.4984 1393.62 11.5211C1393.66 11.5495 1393.67 11.5723 1393.64 11.5723C1393.61 11.5723 1393.62 11.6064 1393.65 11.6462C1393.69 11.686 1393.81 11.9532 1393.91 12.2431C1394.06 12.6126 1394.2 12.8684 1394.41 13.1299C1394.75 13.5392 1395.1 14.136 1395.64 15.2275C1396.02 16.012 1396.1 16.245 1396.25 17.1205C1396.36 17.7628 1396.33 19.0362 1396.19 19.5876C1396.1 19.9969 1395.99 20.9292 1395.99 21.4521C1395.99 21.6852 1395.94 22.3105 1395.89 22.8449C1395.66 24.8345 1395.64 25.0448 1395.64 25.8464C1395.64 26.2954 1395.66 27.3414 1395.7 28.1714C1395.76 29.6835 1395.82 30.0984 1396.02 30.3599C1396.07 30.4225 1396.11 30.4964 1396.11 30.5248C1396.11 30.5703 1395.34 30.5362 1394.9 30.4679C1394.75 30.4452 1394.69 30.4566 1394.69 30.5021C1394.69 30.5816 1395.08 31.0591 1395.46 31.44C1395.66 31.639 1395.79 31.8266 1395.87 32.0653C1395.94 32.2529 1396.04 32.4632 1396.08 32.5371C1396.13 32.611 1396.16 32.7361 1396.15 32.8214C1396.15 32.918 1396.28 33.2705 1396.55 33.7991C1397.11 34.9417 1397.39 35.6864 1397.92 37.4657C1398.59 39.6941 1398.83 40.9049 1398.86 42.1271C1398.88 42.8377 1398.89 42.8831 1399.09 43.3379C1399.23 43.6676 1399.31 43.9462 1399.35 44.2759C1399.45 45.174 1399.5 46.2825 1399.46 46.7828C1399.41 47.2603 1399.42 47.3228 1399.58 47.7776C1399.67 48.0448 1399.76 48.4086 1399.78 48.5791C1399.8 48.7497 1399.87 48.9827 1399.92 49.0964C1399.98 49.2044 1400.05 49.5114 1400.08 49.7786C1400.11 50.0401 1400.24 51.0235 1400.37 51.9558C1400.5 52.8938 1400.62 53.917 1400.63 54.2296C1400.67 54.7583 1400.68 54.8322 1400.88 55.1449C1401.08 55.4746 1401.08 55.503 1401.09 56.0544C1401.09 56.6911 1401.15 56.8446 1401.59 57.4756C1401.73 57.6631 1401.91 57.9587 1401.99 58.1293C1402.13 58.4135 1402.14 58.476 1402.11 58.874C1402.08 59.2435 1402.09 59.3174 1402.18 59.397C1402.36 59.5618 1403.53 60.1132 1403.94 60.2269C1404.16 60.2838 1404.4 60.369 1404.47 60.4088C1404.54 60.4486 1404.77 60.4827 1404.96 60.4827C1405.28 60.4884 1405.36 60.46 1406.07 60.1018C1406.92 59.6698 1407.14 59.6357 1407.59 59.8517C1407.87 59.9938 1408.19 60.4259 1408.12 60.5907C1408.09 60.7044 1406.87 61.6935 1406.35 62.046C1405.63 62.5292 1404.87 62.8418 1403.13 63.3534C1402.59 63.5069 1401.65 63.8196 1401.02 64.0413C1400.4 64.263 1399.8 64.4506 1399.69 64.4563C1399.5 64.4676 1399.49 64.4563 1399.38 64.1607C1399.29 63.9105 1399.29 63.8253 1399.34 63.6832C1399.39 63.5297 1399.39 63.4842 1399.26 63.3023C1399.02 62.9498 1398.84 62.4837 1398.63 61.6765C1398.52 61.2388 1398.29 60.4486 1398.11 59.9199C1397.94 59.3856 1397.72 58.5841 1397.61 58.1293C1397.52 57.6745 1397.37 57.1743 1397.29 57.0208C1397.21 56.8616 1397.07 56.5205 1396.99 56.2534C1396.9 55.9862 1396.74 55.5598 1396.64 55.304C1396.53 55.0425 1396.39 54.5707 1396.31 54.2524C1396.16 53.6441 1395.93 52.8881 1395.57 51.8933C1395.31 51.177 1394.99 49.7956 1394.91 49.1192C1394.88 48.8349 1394.83 48.0391 1394.8 47.3456C1394.75 46.2371 1394.73 46.0665 1394.63 45.896C1394.57 45.7937 1394.52 45.6629 1394.52 45.6061C1394.52 45.5492 1394.45 45.3844 1394.38 45.2366C1394.31 45.0888 1394.23 44.8671 1394.21 44.742C1394.19 44.617 1394.1 44.31 1394 44.0599C1393.83 43.6221 1393.67 43.3777 1392.47 41.7007C1392.26 41.4222 1391.88 40.7912 1391.61 40.3023C1391.04 39.2905 1391.11 39.2734 1390.99 40.4217C1390.89 41.4165 1390.66 42.9798 1390.51 43.6619C1390.43 44.003 1390.33 44.4862 1390.29 44.725C1390.23 45.0319 1390.14 45.2707 1389.97 45.5379C1389.85 45.7482 1389.72 46.0438 1389.68 46.203C1389.59 46.6634 1389.43 46.9476 1389.09 47.3228C1388.62 47.8344 1387.98 48.4143 1387.63 48.6473C1386.95 49.0964 1385 51.2964 1384.22 52.4901C1383.73 53.2348 1383.48 53.5816 1383.25 53.8317C1383.14 53.9625 1382.98 54.224 1382.91 54.4172C1382.77 54.7583 1382.77 54.7754 1382.85 55.2074C1382.96 55.8384 1382.84 56.9469 1382.57 57.5608C1382.33 58.1236 1382.12 58.7432 1382.12 58.8967C1382.12 59.0729 1382.56 60.153 1382.74 60.4259C1382.91 60.6874 1383.3 60.9659 1383.96 61.3127C1384.28 61.4832 1384.42 61.5969 1384.49 61.7276C1384.54 61.83 1384.62 61.9493 1384.66 62.0005C1384.72 62.0687 1384.74 62.2052 1384.73 62.4553C1384.71 62.8077 1384.7 62.8191 1384.51 62.9214C1384.13 63.1033 1383.23 63.1602 1381.92 63.0863C1379.97 62.9783 1379.76 62.8589 1378.72 61.2842C1378.4 60.784 1377.87 60.0564 1377.56 59.6641C1376.89 58.8342 1376.68 58.4419 1376.77 58.1804C1376.81 58.0895 1376.88 57.9417 1376.93 57.8564C1377 57.7712 1377.07 57.6404 1377.1 57.5608C1377.14 57.4812 1377.29 57.1743 1377.42 56.8787C1377.56 56.5831 1377.79 56.1624 1377.94 55.9464C1378.08 55.7304 1378.24 55.4348 1378.3 55.2927C1379.03 53.303 1379.51 52.3651 1380.45 51.1372C1380.86 50.6029 1381.19 49.9946 1381.33 49.5455C1381.57 48.7156 1381.98 48.0618 1382.87 47.0613C1383.54 46.2996 1383.92 45.9187 1384.19 45.7198C1384.3 45.6345 1384.46 45.4355 1384.54 45.2821C1384.61 45.1343 1384.74 44.9637 1384.81 44.9012C1385.05 44.7079 1385.15 44.3782 1385.15 43.7643C1385.15 43.1844 1385.06 42.7126 1384.64 40.9902C1384.41 40.0579 1384.4 39.9271 1384.45 36.9541C1384.47 35.8968 1384.39 35.2714 1384.23 35.0497C1383.87 34.5552 1383.66 33.6286 1383.66 32.6054C1383.66 32.2074 1383.68 31.8664 1383.71 31.8379C1383.74 31.8038 1383.82 31.4912 1383.88 31.1387C1383.95 30.7863 1384.03 30.4395 1384.06 30.3656C1384.08 30.2917 1384.08 30.2121 1384.06 30.1837C1384.03 30.1553 1384.06 29.8654 1384.12 29.5357C1384.19 29.206 1384.24 28.8763 1384.24 28.7967C1384.23 28.7171 1384.23 28.4613 1384.23 28.2225C1384.22 27.7109 1384.32 26.7729 1384.43 26.3807C1384.47 26.2215 1384.52 25.9657 1384.54 25.8122C1384.56 25.6531 1384.61 25.3347 1384.66 25.1017C1384.78 24.4764 1384.77 24.0216 1384.61 23.2257C1384.45 22.4811 1384.34 21.2361 1384.34 20.2754C1384.34 19.9628 1384.31 19.5364 1384.26 19.3204C1384.18 18.9339 1384.02 17.3763 1383.97 16.3189C1383.95 16.0063 1383.9 15.6254 1383.85 15.4719C1383.76 15.1422 1383.75 14.4146 1383.83 14.1304C1383.86 14.0224 1383.91 13.7268 1383.95 13.4766C1384.02 12.9593 1384.23 12.4648 1384.54 12.101C1384.71 11.902 1385.5 11.1971 1386.41 10.4297C1386.57 10.2932 1387.3 9.79869 1387.83 9.46329C1388.04 9.33255 1388.05 9.29844 1388.07 9.04263C1388.08 8.78114 1388.08 8.76977 1388 8.87209C1387.91 8.9801 1387.91 8.97441 1387.94 8.79819C1387.96 8.69587 1387.96 8.62197 1387.93 8.63902C1387.85 8.69019 1387.81 8.44006 1387.87 8.32637C1387.92 8.2411 1387.9 8.22973 1387.84 8.25816C1387.77 8.28089 1387.79 8.22405 1387.89 8.07056C1388.02 7.87729 1388.04 7.81475 1388.01 7.57032C1387.99 7.41683 1387.94 7.24061 1387.92 7.18376C1387.88 7.11555 1387.88 7.04165 1387.92 6.97343C1388.01 6.81426 1388 6.78584 1387.86 6.85405C1387.78 6.89953 1387.75 6.89953 1387.75 6.84837C1387.75 6.80289 1387.73 6.80289 1387.67 6.85405C1387.6 6.9109 1387.58 6.9109 1387.58 6.85405C1387.58 6.81426 1387.55 6.79721 1387.51 6.81426C1387.46 6.83132 1387.48 6.69489 1387.59 6.38792C1387.68 6.14348 1387.72 5.95589 1387.68 5.97862C1387.64 6.00705 1387.63 5.98999 1387.67 5.91041C1387.69 5.85356 1387.72 5.51817 1387.73 5.17709C1387.74 4.83033 1387.76 4.40967 1387.79 4.23913C1387.8 4.06859 1387.81 3.82415 1387.81 3.69909C1387.8 3.40349 1387.91 2.95441 1388.01 2.86914C1388.06 2.83503 1388.09 2.74408 1388.09 2.66449C1388.09 2.39163 1388.39 1.8857 1388.78 1.49915C1389.46 0.81131 1390.54 0.4077 1391.4 0.521393C1391.61 0.544132 1391.67 0.532761 1391.69 0.464546C1391.73 0.362221 1391.99 0.345169 1392.21 0.424751C1392.31 0.464546 1392.37 0.458862 1392.41 0.396332C1392.51 0.282639 1392.62 0.29969 1392.7 0.436127ZM1395.22 1.35135C1395.23 1.39682 1395.25 1.37977 1395.25 1.31724C1395.25 1.25471 1395.24 1.2206 1395.22 1.24334C1395.2 1.26039 1395.2 1.31155 1395.22 1.35135ZM1387.83 5.27373C1387.84 5.31352 1387.85 5.2851 1387.85 5.20552C1387.85 5.12593 1387.84 5.09751 1387.83 5.13161C1387.81 5.17141 1387.81 5.23962 1387.83 5.27373Z" fill="#B9C0CA" fill-opacity="0.5"/>
<defs>
<linearGradient id="paint0_linear_78_961" x1="34.882" y1="151.679" x2="846.141" y2="184.115" gradientUnits="userSpaceOnUse">
<stop stop-color="#2E3238" stop-opacity="0"/>
<stop offset="0.570413" stop-color="#2E3238"/>
<stop offset="1" stop-color="#2E3238" stop-opacity="0"/>
</linearGradient>
<linearGradient id="paint1_linear_78_961" x1="34.882" y1="128.701" x2="846.141" y2="161.137" gradientUnits="userSpaceOnUse">
<stop stop-color="#2E3238" stop-opacity="0"/>
<stop offset="0.570413" stop-color="#2E3238"/>
<stop offset="1" stop-color="#2E3238" stop-opacity="0"/>
</linearGradient>
<linearGradient id="paint2_linear_78_961" x1="34.882" y1="111.851" x2="846.141" y2="144.287" gradientUnits="userSpaceOnUse">
<stop stop-color="#2E3238" stop-opacity="0"/>
<stop offset="0.570413" stop-color="#2E3238"/>
<stop offset="1" stop-color="#2E3238" stop-opacity="0"/>
</linearGradient>
<linearGradient id="paint3_linear_78_961" x1="34.882" y1="66.6605" x2="846.141" y2="99.0967" gradientUnits="userSpaceOnUse">
<stop stop-color="#2E3238" stop-opacity="0"/>
<stop offset="0.570413" stop-color="#2E3238"/>
<stop offset="1" stop-color="#2E3238" stop-opacity="0"/>
</linearGradient>
<linearGradient id="paint4_linear_78_961" x1="730.917" y1="151.678" x2="1542.18" y2="184.114" gradientUnits="userSpaceOnUse">
<stop stop-color="#2E3238" stop-opacity="0"/>
<stop offset="0.570413" stop-color="#2E3238"/>
<stop offset="1" stop-color="#2E3238" stop-opacity="0"/>
</linearGradient>
<linearGradient id="paint5_linear_78_961" x1="730.917" y1="128.7" x2="1542.18" y2="161.136" gradientUnits="userSpaceOnUse">
<stop stop-color="#2E3238" stop-opacity="0"/>
<stop offset="0.570413" stop-color="#2E3238"/>
<stop offset="1" stop-color="#2E3238" stop-opacity="0"/>
</linearGradient>
<linearGradient id="paint6_linear_78_961" x1="730.917" y1="111.85" x2="1542.18" y2="144.286" gradientUnits="userSpaceOnUse">
<stop stop-color="#2E3238" stop-opacity="0"/>
<stop offset="0.570413" stop-color="#2E3238"/>
<stop offset="1" stop-color="#2E3238" stop-opacity="0"/>
</linearGradient>
<linearGradient id="paint7_linear_78_961" x1="730.917" y1="66.6596" x2="1542.18" y2="99.0957" gradientUnits="userSpaceOnUse">
<stop stop-color="#2E3238" stop-opacity="0"/>
<stop offset="0.570413" stop-color="#2E3238"/>
<stop offset="1" stop-color="#2E3238" stop-opacity="0"/>
</linearGradient>
</defs>
</svg>
