<svg width="25" height="24" viewBox="0 0 25 24" fill="none" xmlns="http://www.w3.org/2000/svg">
<path d="M17.535 11.7571C17.535 14.3974 15.3947 16.5376 12.7544 16.5376C10.1141 16.5376 7.97388 14.3974 7.97388 11.7571C7.97388 9.11683 10.1141 6.97656 12.7544 6.97656C15.3947 6.97656 17.535 9.11683 17.535 11.7571Z" fill="url(#paint0_linear_70_220)"/>
<path d="M23.9363 3.2992C23.7065 2.67648 23.3399 2.11283 22.8635 1.65017C22.4008 1.17379 21.8376 0.807174 21.2145 0.57737C20.7091 0.381102 19.95 0.147486 18.5517 0.0838424C17.0391 0.014863 16.5856 0 12.7563 0C8.9266 0 8.47309 0.0144819 6.96088 0.0834613C5.56261 0.147486 4.80308 0.381102 4.29812 0.57737C3.67501 0.807174 3.11136 1.17379 2.64909 1.65017C2.17271 2.11283 1.80609 2.6761 1.5759 3.2992C1.37964 3.80454 1.14602 4.56408 1.08238 5.96234C1.0134 7.47455 0.998535 7.92806 0.998535 11.7578C0.998535 15.5871 1.0134 16.0406 1.08238 17.5532C1.14602 18.9514 1.37964 19.7106 1.5759 20.2159C1.80609 20.839 2.17233 21.4023 2.64871 21.865C3.11136 22.3413 3.67463 22.708 4.29774 22.9378C4.80308 23.1344 5.56261 23.368 6.96088 23.4317C8.47309 23.5007 8.92622 23.5151 12.7559 23.5151C16.586 23.5151 17.0395 23.5007 18.5513 23.4317C19.9496 23.368 20.7091 23.1344 21.2145 22.9378C22.4652 22.4553 23.4538 21.4667 23.9363 20.2159C24.1326 19.7106 24.3662 18.9514 24.4302 17.5532C24.4992 16.0406 24.5137 15.5871 24.5137 11.7578C24.5137 7.92806 24.4992 7.47455 24.4302 5.96234C24.3666 4.56408 24.133 3.80454 23.9363 3.2992ZM12.7563 19.1218C8.68879 19.1218 5.3915 15.8249 5.3915 11.7574C5.3915 7.68988 8.68879 4.39296 12.7563 4.39296C16.8234 4.39296 20.1207 7.68988 20.1207 11.7574C20.1207 15.8249 16.8234 19.1218 12.7563 19.1218ZM20.4119 5.82286C19.4614 5.82286 18.6908 5.05227 18.6908 4.1018C18.6908 3.15133 19.4614 2.38074 20.4119 2.38074C21.3623 2.38074 22.1329 3.15133 22.1329 4.1018C22.1325 5.05227 21.3623 5.82286 20.4119 5.82286Z" fill="url(#paint1_linear_70_220)"/>
<defs>
<linearGradient id="paint0_linear_70_220" x1="10.414" y1="17.9546" x2="17.3261" y2="7.78975" gradientUnits="userSpaceOnUse">
<stop stop-color="#0075FF"/>
<stop offset="1" stop-color="#85BDFF"/>
</linearGradient>
<linearGradient id="paint1_linear_70_220" x1="7" y1="27" x2="24" y2="2" gradientUnits="userSpaceOnUse">
<stop stop-color="#0075FF"/>
<stop offset="1" stop-color="#85BDFF"/>
</linearGradient>
</defs>
</svg>
