<svg width="1362" height="603" viewBox="0 0 1362 603" fill="none" xmlns="http://www.w3.org/2000/svg">
<line x1="34.4935" y1="602.481" x2="2665" y2="304.516" stroke="url(#paint0_linear_69_104)" stroke-opacity="0.36"/>
<line x1="26.8856" y1="535.318" x2="2657.39" y2="237.353" stroke="url(#paint1_linear_69_104)" stroke-opacity="0.36"/>
<line x1="21.307" y1="486.069" x2="2651.81" y2="188.104" stroke="url(#paint2_linear_69_104)" stroke-opacity="0.36"/>
<line x1="6.34558" y1="353.982" x2="2636.85" y2="56.0172" stroke="url(#paint3_linear_69_104)" stroke-opacity="0.36"/>
<path d="M1048.26 369.124L932.844 501.238" stroke="black" stroke-opacity="0.26"/>
<path d="M933.524 382.121L818.11 514.235" stroke="black" stroke-opacity="0.26"/>
<path d="M804.797 396.701L689.383 528.816" stroke="black" stroke-opacity="0.26"/>
<path d="M625.7 416.99L510.286 549.105" stroke="black" stroke-opacity="0.26"/>
<path d="M798.354 216.353C798.532 216.585 798.637 216.624 798.786 216.456C798.906 216.324 799.022 216.311 799.1 216.403C799.159 216.481 799.362 216.491 799.523 216.423C799.683 216.354 799.988 216.37 800.199 216.447C800.446 216.554 800.664 216.546 800.867 216.405C801.131 216.207 801.759 216.254 802.581 216.531C802.72 216.565 803.176 216.581 803.578 216.569C804.43 216.506 805.023 216.692 804.885 216.96C804.831 217.083 804.915 217.074 805.117 216.933C805.383 216.752 805.503 216.772 805.827 217.105C806.054 217.332 806.232 217.564 806.242 217.647C806.249 217.714 806.388 217.749 806.537 217.732C807.034 217.659 807.79 217.943 807.923 218.231C808.009 218.39 808.183 218.74 808.35 219.024C808.515 219.292 808.646 219.563 808.654 219.629C808.682 219.878 808.164 221.25 807.938 221.477C807.818 221.609 807.73 221.871 807.752 222.07C807.773 222.253 807.643 222.891 807.489 223.463C807.319 224.038 807.204 224.657 807.225 224.84C807.281 225.49 807.011 226.816 806.846 226.7C806.756 226.643 806.796 226.706 806.93 226.842C807.122 227.056 807.152 227.17 807.023 227.37C806.924 227.533 806.936 227.935 807.068 228.509C807.234 229.231 807.222 229.569 807.015 230.266C806.864 230.72 806.638 231.251 806.507 231.434C806.347 231.654 806.28 232.25 806.315 233.155C806.358 234.867 805.629 238.685 804.989 240.02C804.745 240.536 804.351 241.371 804.138 241.867C803.883 242.434 803.546 242.876 803.245 243.045C802.976 243.193 802.764 243.402 802.775 243.502C802.787 243.602 803.067 244.293 803.388 245.048C803.692 245.805 804.081 246.854 804.224 247.377C804.369 247.916 804.592 248.395 804.716 248.449C804.841 248.518 804.882 248.581 804.799 248.591C804.716 248.6 804.744 248.698 804.857 248.803C804.97 248.908 805.407 249.649 805.819 250.461C806.356 251.494 806.856 252.194 807.574 252.887C808.707 253.971 809.918 255.601 811.858 258.612C813.231 260.779 813.541 261.434 814.262 263.943C814.807 265.783 815.146 269.515 814.913 271.173C814.766 272.402 814.776 275.161 814.949 276.689C815.026 277.37 815.084 279.215 815.094 280.796C815.088 286.687 815.108 287.307 815.374 289.65C815.522 290.962 815.935 294.012 816.31 296.427C816.993 300.826 817.296 302.02 817.965 302.718C818.135 302.884 818.276 303.087 818.285 303.17C818.3 303.303 816.046 303.457 814.727 303.405C814.304 303.385 814.109 303.441 814.124 303.574C814.15 303.807 815.455 305.073 816.694 306.06C817.341 306.575 817.786 307.08 818.114 307.75C818.375 308.276 818.727 308.859 818.885 309.06C819.042 309.26 819.183 309.615 819.178 309.868C819.194 310.152 819.709 311.137 820.649 312.596C822.672 315.749 823.732 317.834 825.883 322.857C828.565 329.15 829.681 332.609 830.185 336.17C830.47 338.241 830.502 338.372 831.234 339.635C831.775 340.55 832.1 341.338 832.309 342.29C832.905 344.882 833.422 348.105 833.454 349.582C833.48 350.993 833.517 351.174 834.133 352.45C834.487 353.201 834.873 354.234 834.996 354.725C835.119 355.216 835.379 355.877 835.583 356.19C835.785 356.487 836.086 357.362 836.274 358.131C836.444 358.886 837.151 361.718 837.826 364.401C838.518 367.099 839.206 370.051 839.359 370.959C839.634 372.493 839.708 372.703 840.377 373.553C841.068 374.451 841.094 374.532 841.293 376.142C841.52 378.001 841.737 378.431 843.242 380.128C843.703 380.631 844.316 381.437 844.622 381.907C845.131 382.691 845.185 382.87 845.217 384.044C845.256 385.134 845.297 385.348 845.59 385.55C846.176 385.972 849.781 387.196 851.015 387.393C851.665 387.488 852.392 387.658 852.621 387.75C852.85 387.841 853.509 387.868 854.074 387.804C855.006 387.715 855.246 387.604 857.188 386.323C859.537 384.778 860.174 384.605 861.558 385.088C862.419 385.411 863.493 386.569 863.365 387.071C863.286 387.417 860.074 390.709 858.662 391.912C856.712 393.563 854.589 394.729 849.674 396.801C848.163 397.426 845.509 398.652 843.754 399.507C842 400.363 840.301 401.11 839.987 401.163C839.443 401.258 839.406 401.229 838.992 400.4C838.643 399.699 838.598 399.452 838.701 399.02C838.816 398.552 838.785 398.421 838.359 397.931C837.528 396.982 836.858 395.678 835.976 393.388C835.516 392.144 834.573 389.912 833.883 388.425C833.207 386.919 832.277 384.652 831.828 383.357C831.395 382.059 830.797 380.646 830.514 380.224C830.228 379.785 829.716 378.833 829.379 378.08C829.041 377.328 828.435 376.134 828.034 375.422C827.649 374.692 827.06 373.362 826.722 372.458C826.106 370.727 825.157 368.596 823.798 365.805C822.796 363.798 821.392 359.868 820.952 357.915C820.758 357.095 820.345 354.786 820.033 352.768C819.533 349.543 819.41 349.053 819.054 348.588C818.838 348.31 818.645 347.944 818.626 347.778C818.607 347.612 818.37 347.151 818.105 346.743C817.84 346.336 817.55 345.712 817.443 345.354C817.335 344.996 816.967 344.129 816.602 343.43C815.975 342.205 815.429 341.543 811.351 337.041C810.661 336.294 809.322 334.578 808.363 333.239C806.383 330.468 806.56 330.398 806.591 333.794C806.638 336.733 806.474 341.38 806.268 343.423C806.165 344.444 806.026 345.89 805.972 346.603C805.908 347.519 805.721 348.247 805.327 349.083C805.032 349.739 804.747 350.646 804.7 351.123C804.57 352.5 804.216 353.382 803.343 354.592C802.133 356.243 800.464 358.149 799.495 358.949C797.666 360.485 792.695 367.561 790.798 371.31C789.615 373.648 789.016 374.743 788.434 375.549C788.145 375.969 787.766 376.786 787.614 377.376C787.312 378.42 787.317 378.469 787.693 379.706C788.251 381.511 788.252 384.792 787.675 386.675C787.163 388.399 786.753 390.28 786.804 390.728C786.863 391.243 788.483 394.257 789.105 394.995C789.707 395.701 790.929 396.387 792.971 397.182C793.958 397.575 794.411 397.86 794.654 398.22C794.837 398.502 795.109 398.825 795.259 398.959C795.448 399.14 795.543 399.533 795.592 400.268C795.659 401.303 795.646 401.339 795.099 401.704C794.062 402.359 791.456 402.823 787.593 403.042C781.858 403.372 781.204 403.092 777.659 398.832C776.546 397.477 774.76 395.526 773.716 394.483C771.497 392.277 770.753 391.2 770.932 390.406C771.001 390.129 771.152 389.674 771.29 389.406C771.444 389.136 771.617 388.729 771.69 388.486C771.78 388.24 772.094 387.295 772.395 386.386C772.713 385.475 773.238 384.17 773.598 383.49C773.942 382.812 774.31 381.895 774.429 381.461C775.897 375.404 776.999 372.503 779.334 368.603C780.353 366.906 781.132 365.017 781.382 363.659C781.822 361.152 782.802 359.106 785.062 355.888C786.787 353.438 787.758 352.2 788.473 351.53C788.777 351.243 789.176 350.609 789.358 350.134C789.525 349.678 789.834 349.138 790.013 348.932C790.664 348.287 790.837 347.291 790.634 345.496C790.442 343.802 790.036 342.451 788.236 337.556C787.263 334.906 787.187 334.527 786.335 325.822C786.035 322.726 785.612 320.923 785.073 320.328C783.863 319.001 782.925 316.364 782.586 313.373C782.454 312.21 782.408 311.206 782.481 311.113C782.553 311.004 782.682 310.064 782.748 309.013C782.831 307.96 782.949 306.92 783.007 306.695C783.066 306.469 783.04 306.237 782.947 306.163C782.871 306.088 782.858 305.231 782.932 304.246C783.006 303.262 783.046 302.281 783.02 302.049C782.977 301.818 782.892 301.07 782.796 300.374C782.594 298.883 782.582 296.107 782.768 294.925C782.832 294.447 782.896 293.682 782.912 293.226C782.926 292.753 782.97 291.806 783.026 291.109C783.184 289.24 783 287.915 782.255 285.643C781.56 283.517 780.815 279.916 780.497 277.108C780.394 276.194 780.153 274.959 779.949 274.343C779.571 273.241 778.607 268.74 778.091 265.668C777.937 264.76 777.662 263.663 777.478 263.23C777.103 262.296 776.829 260.173 776.967 259.316C777.031 258.989 777.083 258.108 777.1 257.366C777.128 255.831 777.579 254.316 778.373 253.149C778.805 252.511 780.881 250.189 783.286 247.645C783.722 247.192 785.685 245.505 787.12 244.35C787.675 243.9 787.713 243.794 787.678 243.041C787.625 242.273 787.604 242.242 787.406 242.567C787.192 242.911 787.19 242.894 787.232 242.368C787.248 242.063 787.207 241.849 787.129 241.908C786.93 242.082 786.714 241.366 786.86 241.013C786.964 240.749 786.927 240.72 786.737 240.825C786.562 240.912 786.593 240.741 786.841 240.258C787.159 239.65 787.189 239.462 787.008 238.758C786.907 238.315 786.716 237.815 786.614 237.659C786.492 237.471 786.467 237.255 786.561 237.042C786.758 236.548 786.715 236.469 786.355 236.712C786.121 236.873 786.038 236.882 786.021 236.733C786.006 236.6 785.94 236.607 785.774 236.778C785.593 236.966 785.543 236.972 785.525 236.806C785.511 236.69 785.406 236.651 785.295 236.714C785.152 236.781 785.19 236.373 785.404 235.44C785.572 234.697 785.643 234.134 785.534 234.213C785.41 234.311 785.388 234.263 785.461 234.02C785.526 233.844 785.498 232.854 785.418 231.854C785.32 230.838 785.247 229.601 785.257 229.095C785.25 228.591 785.203 227.873 785.145 227.509C785.03 226.647 785.197 225.299 785.468 225.015C785.59 224.901 785.659 224.624 785.633 224.391C785.543 223.593 786.239 222.017 787.258 220.757C789.024 218.521 792.03 216.985 794.577 217.033C795.199 217.03 795.378 216.976 795.422 216.769C795.505 216.457 796.247 216.323 796.921 216.482C797.233 216.564 797.398 216.529 797.51 216.331C797.755 215.967 798.093 215.979 798.354 216.353ZM806.018 218.194C806.082 218.322 806.127 218.266 806.106 218.083C806.102 217.899 806.041 217.805 805.998 217.877C805.954 217.932 805.954 218.084 806.018 218.194ZM785.716 232.106C785.779 232.217 785.803 232.13 785.776 231.897C785.75 231.664 785.707 231.585 785.669 231.691C785.649 231.811 785.671 232.01 785.716 232.106Z" fill="url(#paint4_linear_69_104)"/>
<path d="M540.901 245.517C541.078 245.749 541.184 245.788 541.333 245.62C541.453 245.488 541.569 245.475 541.647 245.567C541.706 245.645 541.909 245.655 542.07 245.587C542.23 245.518 542.535 245.534 542.746 245.611C542.993 245.718 543.211 245.71 543.414 245.569C543.678 245.371 544.306 245.418 545.128 245.695C545.267 245.729 545.723 245.745 546.125 245.733C546.976 245.67 547.57 245.856 547.432 246.124C547.378 246.248 547.461 246.238 547.664 246.097C547.93 245.916 548.05 245.936 548.374 246.269C548.601 246.496 548.779 246.728 548.789 246.811C548.796 246.878 548.935 246.913 549.084 246.896C549.581 246.823 550.337 247.107 550.47 247.395C550.555 247.554 550.73 247.904 550.897 248.188C551.062 248.456 551.193 248.727 551.201 248.793C551.229 249.042 550.711 250.414 550.485 250.641C550.365 250.773 550.277 251.035 550.299 251.235C550.32 251.417 550.19 252.055 550.036 252.627C549.866 253.202 549.751 253.821 549.771 254.004C549.828 254.654 549.558 255.98 549.393 255.864C549.303 255.807 549.343 255.87 549.477 256.006C549.669 256.22 549.699 256.334 549.57 256.534C549.471 256.697 549.483 257.099 549.615 257.673C549.781 258.395 549.769 258.733 549.561 259.43C549.411 259.884 549.185 260.415 549.054 260.598C548.894 260.818 548.827 261.414 548.862 262.319C548.905 264.031 548.176 267.849 547.536 269.184C547.292 269.7 546.898 270.535 546.685 271.031C546.43 271.598 546.093 272.04 545.792 272.209C545.523 272.357 545.311 272.566 545.322 272.666C545.333 272.766 545.614 273.458 545.935 274.212C546.239 274.969 546.628 276.019 546.771 276.541C546.916 277.08 547.139 277.559 547.262 277.613C547.388 277.683 547.429 277.745 547.346 277.755C547.263 277.764 547.291 277.862 547.404 277.967C547.516 278.072 547.954 278.813 548.366 279.625C548.903 280.658 549.403 281.359 550.121 282.051C551.254 283.135 552.465 284.765 554.405 287.776C555.778 289.943 556.087 290.598 556.809 293.108C557.354 294.947 557.693 298.679 557.46 300.338C557.313 301.566 557.323 304.325 557.496 305.853C557.573 306.535 557.63 308.379 557.641 309.96C557.635 315.851 557.655 316.471 557.92 318.814C558.069 320.126 558.482 323.176 558.856 325.591C559.54 329.99 559.843 331.184 560.511 331.882C560.682 332.048 560.823 332.251 560.832 332.334C560.847 332.467 558.593 332.621 557.274 332.569C556.851 332.549 556.655 332.605 556.671 332.738C556.697 332.971 558.001 334.237 559.241 335.224C559.888 335.739 560.332 336.244 560.661 336.914C560.922 337.44 561.274 338.023 561.432 338.224C561.589 338.425 561.73 338.779 561.725 339.032C561.741 339.316 562.256 340.301 563.195 341.76C565.219 344.913 566.279 346.998 568.43 352.021C571.112 358.314 572.227 361.773 572.732 365.334C573.017 367.405 573.049 367.536 573.781 368.799C574.322 369.714 574.647 370.502 574.856 371.454C575.452 374.046 575.969 377.269 576.001 378.746C576.026 380.157 576.064 380.338 576.68 381.614C577.034 382.365 577.42 383.398 577.543 383.889C577.666 384.38 577.926 385.041 578.13 385.354C578.332 385.651 578.633 386.526 578.821 387.295C578.991 388.05 579.698 390.882 580.372 393.565C581.065 396.263 581.753 399.215 581.906 400.123C582.181 401.657 582.255 401.867 582.924 402.717C583.614 403.615 583.64 403.696 583.84 405.306C584.067 407.165 584.284 407.595 585.789 409.292C586.25 409.795 586.863 410.601 587.168 411.071C587.678 411.855 587.732 412.034 587.764 413.209C587.803 414.298 587.844 414.512 588.136 414.715C588.723 415.136 592.328 416.36 593.562 416.557C594.212 416.652 594.938 416.822 595.168 416.914C595.397 417.005 596.056 417.032 596.621 416.968C597.553 416.879 597.793 416.768 599.735 415.488C602.084 413.942 602.721 413.769 604.105 414.252C604.966 414.575 606.04 415.733 605.912 416.235C605.833 416.581 602.621 419.873 601.209 421.076C599.259 422.727 597.136 423.893 592.221 425.965C590.71 426.59 588.056 427.816 586.301 428.672C584.547 429.527 582.848 430.274 582.534 430.327C581.989 430.422 581.952 430.393 581.539 429.564C581.19 428.863 581.145 428.616 581.248 428.184C581.363 427.716 581.331 427.585 580.906 427.095C580.075 426.146 579.405 424.842 578.523 422.552C578.062 421.308 577.12 419.076 576.43 417.589C575.754 416.083 574.824 413.816 574.374 412.521C573.941 411.223 573.344 409.81 573.06 409.388C572.775 408.949 572.263 407.997 571.926 407.244C571.588 406.492 570.982 405.298 570.581 404.586C570.196 403.856 569.607 402.526 569.269 401.622C568.653 399.891 567.704 397.76 566.345 394.969C565.343 392.962 563.939 389.032 563.499 387.079C563.305 386.259 562.892 383.95 562.579 381.932C562.08 378.708 561.957 378.217 561.601 377.752C561.384 377.474 561.192 377.108 561.173 376.942C561.154 376.776 560.917 376.315 560.652 375.907C560.387 375.5 560.097 374.876 559.989 374.518C559.882 374.16 559.514 373.293 559.149 372.594C558.522 371.369 557.976 370.707 553.898 366.205C553.208 365.458 551.869 363.742 550.91 362.404C548.93 359.632 549.107 359.562 549.138 362.958C549.185 365.897 549.021 370.544 548.815 372.587C548.712 373.608 548.573 375.054 548.519 375.767C548.455 376.683 548.268 377.411 547.874 378.247C547.578 378.903 547.294 379.81 547.247 380.287C547.117 381.664 546.763 382.546 545.89 383.756C544.68 385.407 543.011 387.313 542.042 388.113C540.213 389.649 535.242 396.725 533.345 400.474C532.162 402.813 531.562 403.907 530.981 404.713C530.692 405.133 530.313 405.95 530.161 406.54C529.859 407.584 529.864 407.633 530.24 408.87C530.798 410.675 530.799 413.956 530.221 415.839C529.71 417.563 529.3 419.444 529.351 419.892C529.409 420.407 531.03 423.421 531.652 424.159C532.254 424.865 533.476 425.551 535.518 426.346C536.505 426.739 536.958 427.024 537.2 427.384C537.384 427.666 537.656 427.989 537.806 428.123C537.995 428.304 538.09 428.697 538.139 429.432C538.206 430.468 538.193 430.503 537.646 430.868C536.609 431.524 534.003 431.987 530.14 432.206C524.405 432.536 523.751 432.256 520.205 427.996C519.093 426.642 517.307 424.69 516.263 423.647C514.044 421.441 513.299 420.364 513.479 419.57C513.548 419.293 513.699 418.838 513.837 418.57C513.991 418.3 514.164 417.894 514.237 417.65C514.327 417.404 514.641 416.46 514.942 415.55C515.259 414.639 515.785 413.334 516.145 412.654C516.489 411.976 516.856 411.059 516.976 410.625C518.444 404.568 519.545 401.667 521.88 397.767C522.9 396.07 523.679 394.181 523.929 392.823C524.369 390.316 525.348 388.27 527.609 385.052C529.334 382.602 530.305 381.364 531.02 380.694C531.324 380.407 531.723 379.773 531.905 379.298C532.072 378.842 532.381 378.302 532.56 378.097C533.21 377.451 533.384 376.455 533.18 374.66C532.989 372.966 532.583 371.615 530.783 366.72C529.81 364.07 529.733 363.692 528.882 354.987C528.582 351.89 528.159 350.087 527.62 349.492C526.41 348.165 525.471 345.528 525.133 342.537C525.001 341.374 524.954 340.37 525.028 340.277C525.1 340.168 525.229 339.228 525.295 338.177C525.378 337.124 525.496 336.084 525.554 335.859C525.613 335.634 525.586 335.401 525.494 335.327C525.418 335.252 525.405 334.395 525.479 333.41C525.552 332.426 525.593 331.445 525.566 331.213C525.523 330.982 525.439 330.234 525.343 329.538C525.141 328.047 525.129 325.271 525.315 324.089C525.378 323.611 525.443 322.846 525.459 322.39C525.473 321.917 525.517 320.97 525.573 320.273C525.731 318.404 525.547 317.079 524.802 314.807C524.107 312.681 523.362 309.08 523.044 306.272C522.941 305.358 522.7 304.123 522.495 303.507C522.118 302.405 521.154 297.904 520.638 294.832C520.484 293.924 520.209 292.827 520.025 292.394C519.65 291.46 519.376 289.337 519.514 288.48C519.578 288.153 519.63 287.272 519.647 286.53C519.675 284.995 520.126 283.48 520.919 282.313C521.352 281.675 523.428 279.353 525.833 276.809C526.269 276.356 528.232 274.669 529.667 273.514C530.221 273.064 530.26 272.959 530.225 272.205C530.172 271.437 530.151 271.406 529.953 271.731C529.739 272.075 529.737 272.058 529.779 271.532C529.795 271.227 529.753 271.013 529.676 271.073C529.477 271.247 529.261 270.53 529.406 270.177C529.511 269.913 529.474 269.884 529.284 269.989C529.109 270.077 529.14 269.905 529.388 269.422C529.706 268.814 529.735 268.626 529.555 267.922C529.454 267.479 529.263 266.979 529.161 266.823C529.039 266.635 529.014 266.419 529.108 266.206C529.305 265.713 529.262 265.633 528.902 265.876C528.668 266.037 528.585 266.046 528.568 265.897C528.553 265.764 528.487 265.772 528.321 265.942C528.14 266.131 528.09 266.136 528.072 265.97C528.058 265.854 527.953 265.815 527.842 265.878C527.698 265.945 527.736 265.537 527.95 264.604C528.119 263.861 528.19 263.298 528.081 263.377C527.957 263.475 527.935 263.428 528.008 263.184C528.073 263.008 528.045 262.018 527.965 261.018C527.867 260.002 527.794 258.765 527.804 258.259C527.797 257.755 527.75 257.037 527.692 256.673C527.577 255.811 527.744 254.463 528.015 254.179C528.137 254.065 528.206 253.788 528.18 253.555C528.09 252.757 528.786 251.181 529.804 249.921C531.571 247.685 534.577 246.149 537.124 246.197C537.746 246.194 537.925 246.14 537.969 245.933C538.052 245.621 538.794 245.487 539.468 245.646C539.78 245.728 539.945 245.693 540.057 245.495C540.302 245.131 540.64 245.143 540.901 245.517ZM548.564 247.359C548.629 247.486 548.673 247.43 548.653 247.248C548.649 247.063 548.588 246.969 548.545 247.041C548.501 247.096 548.501 247.248 548.564 247.359ZM528.263 261.27C528.326 261.381 528.35 261.294 528.323 261.061C528.297 260.829 528.254 260.749 528.216 260.855C528.196 260.975 528.218 261.174 528.263 261.27Z" fill="url(#paint5_linear_69_104)"/>
<path d="M997.041 193.847C997.219 194.08 997.324 194.118 997.474 193.95C997.593 193.818 997.71 193.805 997.787 193.897C997.847 193.975 998.05 193.985 998.21 193.917C998.371 193.848 998.676 193.864 998.886 193.941C999.134 194.048 999.352 194.04 999.555 193.899C999.818 193.701 1000.45 193.748 1001.27 194.025C1001.41 194.06 1001.86 194.075 1002.27 194.063C1003.12 194 1003.71 194.186 1003.57 194.454C1003.52 194.578 1003.6 194.568 1003.8 194.427C1004.07 194.246 1004.19 194.266 1004.51 194.599C1004.74 194.826 1004.92 195.058 1004.93 195.142C1004.94 195.208 1005.08 195.243 1005.22 195.226C1005.72 195.153 1006.48 195.437 1006.61 195.725C1006.7 195.884 1006.87 196.234 1007.04 196.518C1007.2 196.786 1007.33 197.057 1007.34 197.123C1007.37 197.373 1006.85 198.744 1006.63 198.971C1006.51 199.103 1006.42 199.365 1006.44 199.565C1006.46 199.747 1006.33 200.385 1006.18 200.958C1006.01 201.532 1005.89 202.151 1005.91 202.334C1005.97 202.984 1005.7 204.31 1005.53 204.194C1005.44 204.137 1005.48 204.2 1005.62 204.336C1005.81 204.55 1005.84 204.664 1005.71 204.864C1005.61 205.027 1005.62 205.429 1005.76 206.003C1005.92 206.725 1005.91 207.063 1005.7 207.76C1005.55 208.214 1005.33 208.745 1005.19 208.928C1005.03 209.148 1004.97 209.745 1005 210.649C1005.05 212.361 1004.32 216.18 1003.68 217.514C1003.43 218.03 1003.04 218.865 1002.83 219.361C1002.57 219.928 1002.23 220.37 1001.93 220.539C1001.66 220.687 1001.45 220.896 1001.46 220.996C1001.47 221.096 1001.75 221.788 1002.08 222.542C1002.38 223.299 1002.77 224.349 1002.91 224.871C1003.06 225.41 1003.28 225.889 1003.4 225.943C1003.53 226.013 1003.57 226.075 1003.49 226.085C1003.4 226.094 1003.43 226.192 1003.54 226.297C1003.66 226.402 1004.09 227.143 1004.51 227.955C1005.04 228.988 1005.54 229.689 1006.26 230.381C1007.39 231.465 1008.61 233.095 1010.55 236.106C1011.92 238.273 1012.23 238.928 1012.95 241.438C1013.49 243.278 1013.83 247.009 1013.6 248.668C1013.45 249.896 1013.46 252.655 1013.64 254.183C1013.71 254.865 1013.77 256.709 1013.78 258.29C1013.78 264.181 1013.8 264.801 1014.06 267.144C1014.21 268.457 1014.62 271.506 1015 273.921C1015.68 278.32 1015.98 279.514 1016.65 280.212C1016.82 280.378 1016.96 280.581 1016.97 280.664C1016.99 280.797 1014.73 280.952 1013.41 280.899C1012.99 280.88 1012.8 280.935 1012.81 281.068C1012.84 281.301 1014.14 282.567 1015.38 283.554C1016.03 284.07 1016.47 284.575 1016.8 285.244C1017.06 285.77 1017.41 286.353 1017.57 286.554C1017.73 286.755 1017.87 287.109 1017.87 287.362C1017.88 287.646 1018.4 288.631 1019.34 290.09C1021.36 293.243 1022.42 295.328 1024.57 300.351C1027.25 306.645 1028.37 310.103 1028.87 313.664C1029.16 315.735 1029.19 315.866 1029.92 317.129C1030.46 318.044 1030.79 318.832 1031 319.784C1031.59 322.376 1032.11 325.599 1032.14 327.076C1032.17 328.487 1032.2 328.668 1032.82 329.944C1033.17 330.695 1033.56 331.728 1033.68 332.219C1033.81 332.71 1034.07 333.371 1034.27 333.684C1034.47 333.981 1034.77 334.856 1034.96 335.626C1035.13 336.38 1035.84 339.212 1036.51 341.895C1037.21 344.594 1037.89 347.545 1038.05 348.453C1038.32 349.987 1038.4 350.197 1039.06 351.047C1039.76 351.945 1039.78 352.026 1039.98 353.636C1040.21 355.495 1040.42 355.925 1041.93 357.622C1042.39 358.126 1043 358.931 1043.31 359.401C1043.82 360.185 1043.87 360.364 1043.9 361.539C1043.94 362.628 1043.98 362.842 1044.28 363.045C1044.86 363.466 1048.47 364.69 1049.7 364.887C1050.35 364.982 1051.08 365.152 1051.31 365.244C1051.54 365.336 1052.2 365.362 1052.76 365.298C1053.69 365.209 1053.93 365.098 1055.88 363.818C1058.22 362.273 1058.86 362.099 1060.25 362.582C1061.11 362.905 1062.18 364.063 1062.05 364.565C1061.97 364.911 1058.76 368.203 1057.35 369.406C1055.4 371.057 1053.28 372.223 1048.36 374.295C1046.85 374.92 1044.2 376.147 1042.44 377.002C1040.69 377.857 1038.99 378.604 1038.67 378.657C1038.13 378.752 1038.09 378.723 1037.68 377.894C1037.33 377.193 1037.29 376.946 1037.39 376.514C1037.5 376.046 1037.47 375.915 1037.05 375.425C1036.22 374.476 1035.55 373.172 1034.66 370.882C1034.2 369.638 1033.26 367.406 1032.57 365.919C1031.89 364.414 1030.96 362.146 1030.52 360.851C1030.08 359.553 1029.48 358.14 1029.2 357.718C1028.92 357.279 1028.4 356.327 1028.07 355.575C1027.73 354.822 1027.12 353.628 1026.72 352.916C1026.34 352.186 1025.75 350.856 1025.41 349.952C1024.79 348.221 1023.84 346.09 1022.49 343.299C1021.48 341.292 1020.08 337.362 1019.64 335.409C1019.45 334.589 1019.03 332.28 1018.72 330.263C1018.22 327.038 1018.1 326.547 1017.74 326.082C1017.53 325.804 1017.33 325.438 1017.31 325.272C1017.29 325.106 1017.06 324.645 1016.79 324.237C1016.53 323.83 1016.24 323.206 1016.13 322.848C1016.02 322.49 1015.65 321.623 1015.29 320.924C1014.66 319.699 1014.12 319.038 1010.04 314.535C1009.35 313.789 1008.01 312.072 1007.05 310.734C1005.07 307.962 1005.25 307.892 1005.28 311.288C1005.33 314.227 1005.16 318.874 1004.96 320.917C1004.85 321.938 1004.71 323.384 1004.66 324.097C1004.6 325.013 1004.41 325.741 1004.01 326.577C1003.72 327.233 1003.43 328.14 1003.39 328.617C1003.26 329.995 1002.9 330.876 1002.03 332.086C1000.82 333.737 999.152 335.643 998.182 336.443C996.354 337.979 991.383 345.055 989.485 348.804C988.303 351.143 987.703 352.237 987.121 353.043C986.832 353.463 986.454 354.28 986.302 354.87C985.999 355.914 986.005 355.964 986.38 357.2C986.938 359.005 986.94 362.286 986.362 364.169C985.851 365.893 985.441 367.774 985.492 368.222C985.55 368.738 987.17 371.751 987.793 372.489C988.394 373.195 989.616 373.881 991.658 374.676C992.645 375.069 993.098 375.355 993.341 375.714C993.525 375.996 993.797 376.319 993.947 376.453C994.135 376.634 994.23 377.027 994.28 377.762C994.347 378.798 994.334 378.833 993.786 379.198C992.75 379.854 990.143 380.317 986.281 380.536C980.546 380.866 979.891 380.586 976.346 376.326C975.233 374.972 973.447 373.02 972.404 371.977C970.185 369.771 969.44 368.694 969.619 367.9C969.689 367.623 969.839 367.168 969.977 366.9C970.132 366.63 970.305 366.224 970.378 365.98C970.468 365.734 970.782 364.79 971.083 363.88C971.4 362.969 971.925 361.665 972.286 360.984C972.63 360.306 972.997 359.389 973.116 358.955C974.584 352.898 975.686 349.997 978.021 346.097C979.041 344.4 979.819 342.511 980.07 341.153C980.509 338.647 981.489 336.6 983.75 333.382C985.475 330.932 986.445 329.694 987.161 329.024C987.465 328.738 987.864 328.103 988.046 327.628C988.213 327.172 988.522 326.632 988.701 326.427C989.351 325.781 989.524 324.785 989.321 322.991C989.129 321.296 988.724 319.945 986.924 315.05C985.951 312.4 985.874 312.022 985.023 303.317C984.722 300.22 984.299 298.417 983.761 297.822C982.55 296.495 981.612 293.858 981.273 290.867C981.142 289.704 981.095 288.7 981.169 288.607C981.241 288.498 981.37 287.558 981.436 286.507C981.518 285.454 981.636 284.414 981.695 284.189C981.753 283.964 981.727 283.731 981.635 283.657C981.559 283.582 981.546 282.725 981.619 281.741C981.693 280.756 981.733 279.775 981.707 279.543C981.664 279.312 981.579 278.564 981.484 277.868C981.281 276.377 981.27 273.601 981.456 272.419C981.519 271.941 981.584 271.176 981.6 270.72C981.613 270.247 981.658 269.3 981.713 268.603C981.872 266.734 981.688 265.409 980.943 263.137C980.247 261.011 979.503 257.41 979.185 254.602C979.081 253.688 978.841 252.454 978.636 251.837C978.259 250.736 977.295 246.234 976.778 243.162C976.625 242.254 976.349 241.158 976.166 240.724C975.791 239.79 975.516 237.667 975.655 236.81C975.719 236.483 975.771 235.602 975.787 234.86C975.816 233.325 976.267 231.81 977.06 230.643C977.493 230.005 979.569 227.683 981.973 225.139C982.41 224.686 984.373 222.999 985.807 221.844C986.362 221.394 986.401 221.289 986.366 220.535C986.312 219.767 986.292 219.736 986.093 220.061C985.88 220.405 985.878 220.389 985.919 219.862C985.935 219.557 985.894 219.343 985.817 219.403C985.618 219.577 985.402 218.861 985.547 218.508C985.652 218.243 985.615 218.214 985.425 218.319C985.25 218.407 985.281 218.235 985.529 217.752C985.847 217.144 985.876 216.956 985.695 216.253C985.595 215.81 985.404 215.31 985.302 215.153C985.179 214.965 985.155 214.749 985.249 214.536C985.445 214.043 985.403 213.963 985.043 214.206C984.809 214.367 984.726 214.377 984.709 214.227C984.694 214.094 984.627 214.102 984.461 214.272C984.281 214.461 984.231 214.466 984.212 214.3C984.199 214.184 984.094 214.145 983.983 214.208C983.839 214.275 983.877 213.867 984.091 212.934C984.259 212.191 984.33 211.628 984.221 211.707C984.098 211.806 984.076 211.758 984.149 211.514C984.213 211.338 984.185 210.348 984.106 209.348C984.007 208.332 983.935 207.095 983.945 206.589C983.938 206.085 983.89 205.367 983.832 205.003C983.718 204.141 983.885 202.793 984.156 202.51C984.277 202.395 984.347 202.118 984.32 201.885C984.23 201.087 984.927 199.511 985.945 198.251C987.711 196.015 990.718 194.479 993.265 194.527C993.887 194.524 994.066 194.47 994.11 194.263C994.192 193.951 994.934 193.817 995.609 193.976C995.921 194.058 996.085 194.023 996.197 193.825C996.442 193.461 996.78 193.473 997.041 193.847ZM1004.71 195.689C1004.77 195.816 1004.81 195.76 1004.79 195.578C1004.79 195.393 1004.73 195.299 1004.69 195.371C1004.64 195.426 1004.64 195.578 1004.71 195.689ZM984.403 209.6C984.466 209.711 984.49 209.624 984.464 209.391C984.438 209.159 984.395 209.079 984.356 209.185C984.336 209.305 984.359 209.504 984.403 209.6Z" fill="url(#paint6_linear_69_104)"/>
<defs>
<linearGradient id="paint0_linear_69_104" x1="141.797" y1="638.135" x2="2515.62" y2="648.301" gradientUnits="userSpaceOnUse">
<stop stop-opacity="0"/>
<stop offset="0.570413"/>
<stop offset="1" stop-opacity="0"/>
</linearGradient>
<linearGradient id="paint1_linear_69_104" x1="134.189" y1="570.972" x2="2508.01" y2="581.138" gradientUnits="userSpaceOnUse">
<stop stop-opacity="0"/>
<stop offset="0.570413"/>
<stop offset="1" stop-opacity="0"/>
</linearGradient>
<linearGradient id="paint2_linear_69_104" x1="128.611" y1="521.723" x2="2502.43" y2="531.889" gradientUnits="userSpaceOnUse">
<stop stop-opacity="0"/>
<stop offset="0.570413"/>
<stop offset="1" stop-opacity="0"/>
</linearGradient>
<linearGradient id="paint3_linear_69_104" x1="113.649" y1="389.636" x2="2487.47" y2="399.802" gradientUnits="userSpaceOnUse">
<stop stop-opacity="0"/>
<stop offset="0.570413"/>
<stop offset="1" stop-opacity="0"/>
</linearGradient>
<linearGradient id="paint4_linear_69_104" x1="796.453" y1="216.836" x2="822.453" y2="376.836" gradientUnits="userSpaceOnUse">
<stop stop-color="#0075FF"/>
<stop offset="1" stop-color="#91C3FF"/>
</linearGradient>
<linearGradient id="paint5_linear_69_104" x1="539" y1="246" x2="565" y2="406" gradientUnits="userSpaceOnUse">
<stop stop-color="#0075FF"/>
<stop offset="1" stop-color="#91C3FF"/>
</linearGradient>
<linearGradient id="paint6_linear_69_104" x1="995.14" y1="194.331" x2="1021.14" y2="354.331" gradientUnits="userSpaceOnUse">
<stop stop-color="#0075FF"/>
<stop offset="1" stop-color="#91C3FF"/>
</linearGradient>
</defs>
</svg>
