<svg width="1841" height="221" viewBox="0 0 1841 221" fill="none" xmlns="http://www.w3.org/2000/svg">
<line x1="0.862649" y1="219.595" x2="1840.36" y2="213.677" stroke="url(#paint0_linear_215_601)" stroke-opacity="0.36"/>
<line x1="0.711282" y1="172.627" x2="1840.21" y2="166.709" stroke="url(#paint1_linear_215_601)" stroke-opacity="0.36"/>
<line x1="0.600442" y1="138.188" x2="1840.1" y2="132.27" stroke="url(#paint2_linear_215_601)" stroke-opacity="0.36"/>
<line x1="0.304056" y1="45.8203" x2="1839.8" y2="39.9024" stroke="url(#paint3_linear_215_601)" stroke-opacity="0.36"/>
<path d="M1474.16 133.173L1384.41 215.653" stroke="#232630" stroke-opacity="0.3"/>
<path d="M1391.97 133.438L1302.22 215.918" stroke="#232630" stroke-opacity="0.3"/>
<path d="M1311.74 133.696L1221.98 216.176" stroke="#232630" stroke-opacity="0.3"/>
<path d="M1221.72 133.986L1131.96 216.466" stroke="#232630" stroke-opacity="0.3"/>
<path d="M718.791 135.603L629.037 218.083" stroke="#232630" stroke-opacity="0.26"/>
<path d="M638.557 135.862L548.803 218.342" stroke="#232630" stroke-opacity="0.26"/>
<path d="M548.54 136.151L458.786 218.631" stroke="#232630" stroke-opacity="0.26"/>
<path d="M423.297 136.555L333.544 219.035" stroke="#232630" stroke-opacity="0.26"/>
<path d="M557.793 11.0981C557.899 11.2721 557.968 11.3067 558.084 11.2017C558.177 11.1201 558.258 11.1199 558.305 11.1894C558.34 11.2474 558.48 11.2702 558.596 11.235C558.712 11.1997 558.921 11.2339 559.061 11.3032C559.224 11.3956 559.375 11.4067 559.525 11.3249C559.723 11.2081 560.153 11.288 560.7 11.5419C560.793 11.5765 561.107 11.6219 561.386 11.6443C561.978 11.6656 562.374 11.8386 562.258 12.0133C562.212 12.0948 562.27 12.0946 562.421 12.0128C562.618 11.9076 562.699 11.9305 562.898 12.1855C563.038 12.3593 563.143 12.5333 563.143 12.5914C563.143 12.6379 563.236 12.6724 563.341 12.6721C563.689 12.6594 564.19 12.9134 564.26 13.1223C564.307 13.2383 564.401 13.4937 564.495 13.7025C564.588 13.8997 564.658 14.097 564.659 14.1435C564.659 14.3178 564.197 15.2256 564.023 15.3656C563.931 15.4472 563.85 15.6218 563.85 15.7612C563.851 15.889 563.713 16.3194 563.563 16.7033C563.402 17.0872 563.275 17.5059 563.276 17.6338C563.265 18.0869 562.978 18.9826 562.873 18.8899C562.815 18.8436 562.838 18.89 562.92 18.9944C563.036 19.1567 563.048 19.238 562.944 19.3661C562.863 19.4709 562.841 19.7499 562.889 20.1564C562.948 20.6675 562.914 20.8999 562.718 21.3653C562.58 21.6679 562.383 22.0171 562.279 22.1336C562.152 22.2735 562.06 22.6804 562.016 23.308C561.915 24.4935 561.121 27.0756 560.578 27.9488C560.37 28.2864 560.035 28.8336 559.85 29.1595C559.63 29.532 559.364 29.8118 559.144 29.9054C558.946 29.9874 558.784 30.1157 558.784 30.1854C558.785 30.2552 558.926 30.7543 559.09 31.2999C559.243 31.8455 559.431 32.6002 559.49 32.9718C559.55 33.355 559.667 33.7032 559.749 33.7495C559.83 33.8073 559.854 33.8537 559.795 33.8539C559.737 33.8541 559.749 33.9237 559.819 34.0049C559.889 34.086 560.135 34.6313 560.358 35.2231C560.65 35.9775 560.943 36.4994 561.386 37.0325C562.086 37.8668 562.798 39.0845 563.909 41.3119C564.693 42.9128 564.857 43.3887 565.165 45.177C565.402 46.4893 565.352 49.0922 565.065 50.2202C564.87 51.0574 564.667 52.9636 564.671 54.0326C564.672 54.5089 564.572 55.7874 564.459 56.88C564.007 60.9482 563.974 61.3782 563.979 63.0165C563.982 63.9344 564.036 66.0722 564.111 67.7684C564.248 70.8587 564.367 71.7065 564.776 72.2397C564.881 72.3671 564.963 72.5179 564.963 72.576C564.963 72.669 563.394 72.6043 562.488 72.4678C562.197 72.4222 562.058 72.4459 562.058 72.5389C562.058 72.7016 562.863 73.675 563.644 74.451C564.052 74.8563 564.321 75.2389 564.497 75.7264C564.637 76.1093 564.836 76.5386 564.93 76.6894C565.023 76.8401 565.094 77.0955 565.071 77.2699C565.06 77.4674 565.341 78.1869 565.879 79.2658C567.037 81.5976 567.611 83.1178 568.715 86.7511C570.089 91.3015 570.597 93.7747 570.674 96.2726C570.714 97.7249 570.726 97.8179 571.135 98.7461C571.44 99.419 571.604 99.9878 571.676 100.662C571.891 102.497 572.003 104.762 571.913 105.785C571.824 106.761 571.836 106.889 572.164 107.817C572.352 108.363 572.54 109.106 572.588 109.454C572.635 109.803 572.764 110.279 572.881 110.511C572.998 110.731 573.14 111.358 573.211 111.904C573.271 112.438 573.545 114.448 573.806 116.352C574.08 118.269 574.331 120.359 574.368 120.998C574.441 122.079 574.476 122.23 574.873 122.867C575.282 123.54 575.294 123.598 575.309 124.725C575.325 126.026 575.442 126.34 576.353 127.627C576.633 128.009 576.995 128.612 577.17 128.96C577.463 129.54 577.486 129.668 577.419 130.481C577.363 131.237 577.376 131.388 577.562 131.55C577.935 131.886 580.332 133.005 581.169 133.235C581.611 133.35 582.1 133.522 582.251 133.603C582.402 133.684 582.856 133.752 583.251 133.751C583.902 133.76 584.076 133.702 585.514 132.965C587.254 132.076 587.707 132.005 588.626 132.444C589.197 132.733 589.85 133.613 589.723 133.951C589.643 134.184 587.174 136.213 586.108 136.937C584.635 137.929 583.08 138.573 579.528 139.631C578.437 139.948 576.51 140.593 575.234 141.05C573.957 141.508 572.727 141.895 572.506 141.907C572.123 141.932 572.099 141.909 571.877 141.305C571.689 140.795 571.677 140.62 571.781 140.329C571.896 140.015 571.884 139.922 571.627 139.551C571.125 138.833 570.762 137.881 570.327 136.233C570.103 135.339 569.621 133.725 569.258 132.646C568.906 131.555 568.436 129.918 568.223 128.989C568.023 128.06 567.717 127.038 567.554 126.725C567.39 126.4 567.109 125.704 566.933 125.159C566.757 124.613 566.429 123.743 566.206 123.221C565.995 122.687 565.69 121.723 565.525 121.073C565.231 119.831 564.738 118.287 564.011 116.256C563.472 114.794 562.801 111.972 562.645 110.59C562.573 110.009 562.464 108.383 562.401 106.966C562.301 104.7 562.253 104.352 562.043 104.004C561.914 103.795 561.809 103.528 561.809 103.412C561.808 103.296 561.679 102.959 561.527 102.658C561.375 102.356 561.223 101.904 561.175 101.648C561.128 101.393 560.94 100.766 560.741 100.255C560.401 99.3616 560.074 98.863 557.6 95.4433C557.18 94.8753 556.386 93.5881 555.825 92.5906C554.668 90.5261 554.795 90.4908 554.559 92.8387C554.368 94.8727 553.902 98.0695 553.604 99.4648C553.455 100.162 553.25 101.151 553.158 101.639C553.044 102.267 552.86 102.755 552.524 103.303C552.27 103.733 552.005 104.338 551.936 104.664C551.742 105.606 551.43 106.188 550.735 106.957C549.774 108.006 548.477 109.195 547.746 109.674C546.366 110.596 542.395 115.106 540.8 117.551C539.806 119.076 539.308 119.786 538.845 120.299C538.614 120.567 538.29 121.103 538.14 121.498C537.852 122.196 537.852 122.231 538.018 123.114C538.266 124.403 538.017 126.669 537.475 127.926C536.991 129.078 536.565 130.346 536.566 130.659C536.567 131.02 537.457 133.224 537.831 133.781C538.193 134.314 538.985 134.881 540.335 135.585C540.987 135.932 541.278 136.163 541.418 136.43C541.524 136.639 541.687 136.882 541.78 136.987C541.897 137.126 541.933 137.404 541.911 137.916C541.879 138.636 541.867 138.66 541.461 138.87C540.695 139.244 538.86 139.366 536.175 139.224C532.189 139.016 531.759 138.773 529.634 135.562C528.968 134.541 527.883 133.058 527.241 132.258C525.876 130.566 525.444 129.766 525.628 129.23C525.697 129.044 525.835 128.742 525.951 128.567C526.078 128.392 526.228 128.125 526.298 127.962C526.378 127.799 526.667 127.171 526.944 126.565C527.232 125.96 527.694 125.099 527.995 124.656C528.284 124.214 528.607 123.609 528.723 123.318C530.197 119.246 531.178 117.326 533.087 114.81C533.921 113.715 534.602 112.47 534.878 111.551C535.372 109.853 536.204 108.514 538.01 106.463C539.388 104.902 540.152 104.121 540.697 103.712C540.929 103.537 541.253 103.13 541.415 102.815C541.565 102.513 541.819 102.164 541.958 102.035C542.457 101.639 542.652 100.964 542.648 99.7092C542.644 98.524 542.467 97.5602 541.596 94.0423C541.125 92.1383 541.101 91.8711 541.174 85.794C541.202 83.6327 541.047 82.3551 540.72 81.903C539.985 80.8945 539.537 79.002 539.53 76.9105C539.528 76.0972 539.572 75.3999 539.63 75.3416C539.688 75.2717 539.848 74.6321 539.974 73.9113C540.111 73.1905 540.271 72.4812 540.329 72.3299C540.387 72.1787 540.386 72.016 540.328 71.9581C540.281 71.9002 540.337 71.3074 540.463 70.6331C540.589 69.9588 540.691 69.2845 540.691 69.1218C540.678 68.9592 540.677 68.4363 540.664 67.9484C540.637 66.9027 540.84 64.9849 541.058 64.1825C541.138 63.8569 541.241 63.3337 541.287 63.0198C541.332 62.6943 541.435 62.0433 541.526 61.5666C541.778 60.2877 541.751 59.3582 541.409 57.7326C541.091 56.2115 540.85 53.6676 540.844 51.704C540.842 51.065 540.769 50.1937 540.675 49.7525C540.498 48.963 540.174 45.7803 540.051 43.6195C540.014 42.9806 539.907 42.2024 539.813 41.889C539.625 41.2157 539.597 39.7285 539.758 39.147C539.827 38.926 539.929 38.3215 539.997 37.81C540.133 36.7522 540.56 35.74 541.197 34.9943C541.544 34.5865 543.154 33.1405 545.008 31.566C545.344 31.286 546.828 30.2704 547.907 29.5814C548.324 29.3128 548.359 29.243 548.392 28.72C548.414 28.1854 548.402 28.1622 548.24 28.3719C548.066 28.5932 548.066 28.5816 548.135 28.2212C548.169 28.0119 548.157 27.8609 548.099 27.8959C547.948 28.001 547.854 27.4901 547.981 27.2573C548.073 27.0827 548.05 27.0595 547.91 27.1181C547.783 27.165 547.817 27.0486 548.025 26.7343C548.291 26.3383 548.326 26.2104 548.255 25.711C548.219 25.3974 548.125 25.0375 548.066 24.9215C547.996 24.7823 547.995 24.6313 548.076 24.4916C548.25 24.1657 548.226 24.1076 547.959 24.2479C547.785 24.3414 547.727 24.3416 547.727 24.2371C547.727 24.1441 547.68 24.1443 547.553 24.2492C547.414 24.3659 547.379 24.366 547.378 24.2498C547.378 24.1685 547.308 24.1338 547.227 24.169C547.123 24.2042 547.18 23.9251 547.399 23.297C547.571 22.7968 547.663 22.413 547.582 22.4598C547.489 22.5182 547.477 22.4834 547.546 22.3205C547.604 22.2041 547.66 21.5184 547.681 20.8211C547.69 20.1123 547.734 19.2524 547.779 18.9036C547.813 18.555 547.835 18.0552 547.822 17.7997C547.809 17.1955 548.027 16.2769 548.235 16.1019C548.328 16.0319 548.397 15.8458 548.397 15.6831C548.395 15.1254 548.996 14.0893 549.795 13.2966C551.185 11.8862 553.378 11.0542 555.133 11.281C555.563 11.326 555.691 11.3024 555.737 11.1628C555.818 10.9534 556.34 10.9169 556.794 11.0781C557.004 11.1587 557.12 11.1468 557.212 11.0186C557.409 10.7856 557.641 10.8197 557.793 11.0981ZM562.947 12.9522C562.982 13.0451 563.017 13.0101 563.016 12.8823C563.027 12.7544 562.992 12.6848 562.958 12.7314C562.923 12.7664 562.912 12.871 562.947 12.9522ZM547.868 21.0181C547.903 21.0993 547.926 21.0411 547.925 20.8784C547.925 20.7158 547.901 20.6578 547.867 20.7276C547.844 20.809 547.844 20.9484 547.868 21.0181Z" fill="url(#paint4_linear_215_601)"/>
<path d="M377.758 11.6782C377.863 11.8521 377.933 11.8868 378.049 11.7818C378.141 11.7002 378.223 11.6999 378.269 11.7695C378.304 11.8275 378.444 11.8503 378.56 11.815C378.676 11.7798 378.885 11.814 379.025 11.8832C379.188 11.9757 379.339 11.9868 379.49 11.905C379.687 11.7882 380.117 11.8681 380.664 12.122C380.757 12.1565 381.071 12.202 381.35 12.2244C381.943 12.2457 382.338 12.4187 382.223 12.5934C382.176 12.6748 382.234 12.6747 382.385 12.5928C382.582 12.4876 382.664 12.5106 382.862 12.7656C383.002 12.9394 383.107 13.1134 383.107 13.1715C383.108 13.218 383.201 13.2525 383.305 13.2522C383.654 13.2394 384.154 13.4934 384.225 13.7024C384.271 13.8184 384.365 14.0737 384.459 14.2826C384.552 14.4798 384.623 14.6771 384.623 14.7236C384.624 14.8979 384.162 15.8057 383.988 15.9457C383.895 16.0273 383.814 16.2018 383.815 16.3413C383.815 16.4691 383.677 16.8994 383.527 17.2834C383.366 17.6673 383.239 18.086 383.24 18.2138C383.23 18.667 382.942 19.5626 382.837 19.47C382.779 19.4237 382.802 19.4701 382.884 19.5744C383.001 19.7367 383.013 19.818 382.908 19.9462C382.827 20.051 382.805 20.3299 382.853 20.7365C382.913 21.2475 382.879 21.48 382.683 21.9454C382.544 22.248 382.348 22.5972 382.243 22.7137C382.116 22.8536 382.024 23.2605 381.98 23.8881C381.879 25.0736 381.086 27.6556 380.543 28.5288C380.334 28.8665 379.999 29.4137 379.814 29.7396C379.595 30.1121 379.328 30.3918 379.108 30.4855C378.911 30.5675 378.749 30.6958 378.749 30.7655C378.749 30.8352 378.89 31.3344 379.054 31.88C379.207 32.4256 379.396 33.1802 379.455 33.5519C379.514 33.9351 379.631 34.2833 379.713 34.3295C379.795 34.3874 379.818 34.4338 379.76 34.434C379.702 34.4341 379.714 34.5038 379.784 34.5849C379.853 34.666 380.099 35.2114 380.322 35.8032C380.615 36.5575 380.907 37.0795 381.35 37.6125C382.05 38.4469 382.763 39.6646 383.874 41.8919C384.657 43.4929 384.822 43.9687 385.129 45.7571C385.366 47.0693 385.316 49.6722 385.03 50.8002C384.835 51.6374 384.632 53.5437 384.635 54.6126C384.637 55.089 384.536 56.3675 384.423 57.46C383.972 61.5282 383.938 61.9583 383.944 63.5966C383.947 64.5145 384 66.6523 384.075 68.3484C384.213 71.4387 384.332 72.2866 384.74 72.8197C384.845 72.9472 384.927 73.098 384.927 73.1561C384.927 73.249 383.359 73.1844 382.452 73.0479C382.161 73.0023 382.022 73.026 382.022 73.119C382.023 73.2816 382.828 74.2551 383.609 75.0311C384.017 75.4364 384.285 75.819 384.461 76.3064C384.602 76.6894 384.8 77.1187 384.894 77.2694C384.987 77.4202 385.058 77.6756 385.035 77.85C385.024 78.0475 385.305 78.767 385.843 79.8459C387.001 82.1776 387.575 83.6979 388.679 87.3312C390.053 91.8815 390.561 94.3548 390.639 96.8527C390.678 98.305 390.69 98.3979 391.1 99.3262C391.404 99.9991 391.569 100.568 391.641 101.242C391.856 103.077 391.967 105.342 391.878 106.365C391.788 107.341 391.8 107.469 392.128 108.398C392.316 108.943 392.504 109.686 392.552 110.034C392.599 110.383 392.729 110.859 392.846 111.091C392.963 111.311 393.104 111.938 393.176 112.484C393.235 113.018 393.509 115.028 393.771 116.932C394.044 118.849 394.295 120.939 394.332 121.578C394.405 122.659 394.44 122.81 394.838 123.447C395.246 124.12 395.258 124.178 395.273 125.305C395.289 126.606 395.406 126.92 396.317 128.207C396.597 128.589 396.959 129.192 397.135 129.54C397.427 130.12 397.451 130.248 397.383 131.061C397.328 131.817 397.34 131.968 397.526 132.13C397.899 132.466 400.296 133.585 401.134 133.815C401.576 133.93 402.064 134.102 402.215 134.183C402.367 134.264 402.82 134.332 403.215 134.331C403.866 134.341 404.04 134.282 405.478 133.545C407.218 132.657 407.671 132.585 408.591 133.024C409.161 133.313 409.815 134.194 409.688 134.531C409.607 134.764 407.139 136.793 406.072 137.517C404.6 138.509 403.045 139.154 399.493 140.211C398.402 140.528 396.475 141.173 395.198 141.63C393.921 142.088 392.691 142.475 392.47 142.487C392.087 142.512 392.064 142.489 391.841 141.885C391.653 141.375 391.641 141.2 391.745 140.91C391.86 140.595 391.848 140.503 391.591 140.132C391.089 139.413 390.726 138.461 390.291 136.813C390.067 135.919 389.586 134.305 389.222 133.226C388.87 132.135 388.4 130.498 388.188 129.569C387.987 128.64 387.682 127.619 387.518 127.305C387.354 126.981 387.073 126.284 386.897 125.739C386.721 125.193 386.393 124.323 386.171 123.801C385.96 123.267 385.655 122.303 385.49 121.653C385.195 120.411 384.702 118.867 383.975 116.836C383.436 115.374 382.765 112.553 382.609 111.17C382.538 110.59 382.428 108.963 382.365 107.546C382.265 105.28 382.218 104.932 382.007 104.584C381.879 104.375 381.773 104.108 381.773 103.992C381.773 103.876 381.644 103.54 381.492 103.238C381.34 102.936 381.187 102.484 381.14 102.228C381.093 101.973 380.905 101.346 380.705 100.835C380.366 99.9417 380.039 99.4431 377.564 96.0233C377.144 95.4553 376.35 94.1682 375.789 93.1707C374.632 91.1062 374.76 91.0709 374.523 93.4188C374.332 95.4528 373.866 98.6496 373.569 100.045C373.42 100.742 373.214 101.731 373.122 102.219C373.008 102.847 372.824 103.336 372.489 103.883C372.235 104.313 371.969 104.918 371.901 105.244C371.706 106.186 371.394 106.768 370.7 107.537C369.739 108.586 368.441 109.775 367.71 110.254C366.331 111.176 362.36 115.686 360.764 118.131C359.77 119.656 359.273 120.367 358.809 120.879C358.578 121.147 358.254 121.683 358.105 122.078C357.816 122.776 357.816 122.811 357.982 123.694C358.23 124.983 357.982 127.249 357.44 128.506C356.955 129.658 356.53 130.926 356.531 131.239C356.532 131.6 357.422 133.804 357.795 134.361C358.157 134.894 358.949 135.461 360.299 136.165C360.951 136.512 361.242 136.743 361.383 137.01C361.488 137.219 361.651 137.462 361.745 137.567C361.861 137.706 361.897 137.985 361.876 138.496C361.843 139.216 361.831 139.24 361.425 139.45C360.66 139.824 358.824 139.947 356.14 139.804C352.154 139.596 351.723 139.354 349.598 136.142C348.932 135.121 347.847 133.638 347.205 132.838C345.84 131.146 345.408 130.346 345.592 129.811C345.661 129.624 345.8 129.322 345.915 129.147C346.043 128.973 346.193 128.705 346.262 128.542C346.343 128.379 346.631 127.751 346.908 127.146C347.197 126.54 347.659 125.679 347.959 125.237C348.248 124.794 348.572 124.189 348.687 123.898C350.161 119.827 351.143 117.906 353.052 115.39C353.885 114.295 354.566 113.05 354.842 112.131C355.337 110.433 356.169 109.094 357.975 107.043C359.352 105.482 360.117 104.701 360.662 104.293C360.893 104.118 361.217 103.71 361.379 103.396C361.529 103.093 361.784 102.744 361.923 102.615C362.421 102.219 362.616 101.544 362.612 100.289C362.609 99.1041 362.431 98.1403 361.56 94.6224C361.089 92.7184 361.065 92.4512 361.138 86.3741C361.166 84.2128 361.011 82.9352 360.684 82.4831C359.949 81.4745 359.502 79.582 359.495 77.4906C359.492 76.6772 359.536 75.9799 359.594 75.9217C359.652 75.8518 359.813 75.2122 359.938 74.4914C360.075 73.7705 360.236 73.0612 360.293 72.91C360.351 72.7588 360.351 72.5961 360.292 72.5382C360.246 72.4803 360.302 71.8875 360.427 71.2132C360.553 70.5388 360.655 69.8646 360.655 69.7019C360.643 69.5393 360.641 69.0164 360.628 68.5285C360.601 67.4828 360.804 65.565 361.022 64.7625C361.103 64.4369 361.206 63.9137 361.251 63.5999C361.297 63.2744 361.399 62.6234 361.49 62.1467C361.742 60.8677 361.716 59.9383 361.374 58.3127C361.055 56.7916 360.814 54.2477 360.808 52.2841C360.806 51.645 360.733 50.7738 360.639 50.3326C360.462 49.543 360.138 46.3604 360.015 44.1996C359.978 43.5607 359.871 42.7825 359.777 42.4691C359.589 41.7958 359.561 40.3086 359.722 39.7271C359.791 39.5061 359.894 38.9016 359.962 38.3901C360.098 37.3323 360.524 36.3201 361.161 35.5744C361.508 35.1666 363.119 33.7206 364.973 32.1461C365.309 31.8661 366.793 30.8505 367.871 30.1614C368.289 29.8929 368.323 29.823 368.356 29.3001C368.378 28.7655 368.366 28.7423 368.204 28.952C368.031 29.1733 368.031 29.1617 368.099 28.8013C368.133 28.592 368.121 28.441 368.063 28.476C367.913 28.5811 367.818 28.0701 367.945 27.8373C368.037 27.6628 368.014 27.6396 367.875 27.6981C367.747 27.745 367.782 27.6287 367.99 27.3143C368.256 26.9184 368.29 26.7905 368.219 26.2911C368.183 25.9775 368.089 25.6176 368.03 25.5016C367.96 25.3624 367.96 25.2113 368.041 25.0716C368.214 24.7457 368.19 24.6877 367.924 24.828C367.75 24.9215 367.692 24.9217 367.691 24.8171C367.691 24.7242 367.644 24.7243 367.517 24.8293C367.378 24.946 367.343 24.9461 367.343 24.8299C367.342 24.7486 367.273 24.7139 367.191 24.749C367.087 24.7842 367.144 24.5052 367.363 23.877C367.536 23.3769 367.627 22.9931 367.546 23.0399C367.453 23.0983 367.442 23.0634 367.511 22.9005C367.569 22.7842 367.624 22.0984 367.645 21.4012C367.655 20.6924 367.698 19.8324 367.744 19.4837C367.778 19.135 367.799 18.6353 367.787 18.3797C367.773 17.7756 367.991 16.857 368.2 16.682C368.292 16.612 368.361 16.4258 368.361 16.2632C368.359 15.7055 368.96 14.6694 369.759 13.8767C371.149 12.4663 373.342 11.6343 375.098 11.861C375.528 11.9061 375.655 11.8825 375.701 11.7429C375.782 11.5335 376.305 11.4969 376.758 11.6582C376.968 11.7388 377.084 11.7268 377.177 11.5987C377.373 11.3657 377.606 11.3998 377.758 11.6782ZM382.911 13.5323C382.946 13.6252 382.981 13.5902 382.981 13.4624C382.992 13.3345 382.957 13.2649 382.922 13.3115C382.887 13.3465 382.876 13.4511 382.911 13.5323ZM367.832 21.5981C367.867 21.6794 367.89 21.6212 367.89 21.4585C367.889 21.2959 367.866 21.2378 367.831 21.3077C367.808 21.3891 367.808 21.5285 367.832 21.5981Z" fill="url(#paint5_linear_215_601)"/>
<path d="M696.735 10.6499C696.84 10.8238 696.91 10.8584 697.026 10.7535C697.118 10.6719 697.2 10.6716 697.246 10.7412C697.281 10.7992 697.421 10.8219 697.537 10.7867C697.653 10.7515 697.862 10.7857 698.002 10.8549C698.165 10.9474 698.316 10.9585 698.467 10.8767C698.664 10.7599 699.094 10.8398 699.641 11.0937C699.734 11.1282 700.048 11.1737 700.327 11.196C700.92 11.2174 701.315 11.3904 701.2 11.565C701.153 11.6465 701.211 11.6463 701.362 11.5645C701.559 11.4593 701.641 11.4823 701.839 11.7373C701.979 11.9111 702.084 12.0851 702.085 12.1432C702.085 12.1896 702.178 12.2242 702.282 12.2239C702.631 12.2111 703.131 12.4651 703.202 12.6741C703.249 12.7901 703.342 13.0454 703.436 13.2543C703.53 13.4515 703.6 13.6488 703.6 13.6953C703.601 13.8696 703.139 14.7773 702.965 14.9173C702.872 14.999 702.791 15.1735 702.792 15.313C702.792 15.4408 702.654 15.8711 702.504 16.255C702.343 16.639 702.217 17.0577 702.217 17.1855C702.207 17.6387 701.919 18.5343 701.814 18.4417C701.756 18.3954 701.779 18.4418 701.861 18.5461C701.978 18.7084 701.99 18.7897 701.886 18.9179C701.805 19.0227 701.782 19.3016 701.83 19.7081C701.89 20.2192 701.856 20.4517 701.66 20.9171C701.521 21.2197 701.325 21.5689 701.221 21.6854C701.093 21.8252 701.002 22.2322 700.957 22.8598C700.856 24.0453 700.063 26.6273 699.52 27.5005C699.312 27.8381 698.976 28.3853 698.791 28.7113C698.572 29.0838 698.306 29.3635 698.085 29.4572C697.888 29.5391 697.726 29.6675 697.726 29.7372C697.726 29.8069 697.867 30.3061 698.031 30.8517C698.184 31.3973 698.373 32.1519 698.432 32.5236C698.491 32.9068 698.609 33.255 698.69 33.3012C698.772 33.3591 698.795 33.4055 698.737 33.4056C698.679 33.4058 698.691 33.4755 698.761 33.5566C698.831 33.6377 699.076 34.183 699.299 34.7749C699.592 35.5292 699.884 36.0512 700.327 36.5842C701.027 37.4186 701.74 38.6363 702.851 40.8636C703.634 42.4646 703.799 42.9404 704.107 44.7288C704.343 46.041 704.293 48.6439 704.007 49.7719C703.812 50.6091 703.609 52.5153 703.612 53.5843C703.614 54.0607 703.513 55.3391 703.401 56.4317C702.949 60.4999 702.915 60.93 702.921 62.5683C702.924 63.4862 702.977 65.624 703.052 67.3201C703.19 70.4104 703.309 71.2582 703.717 71.7914C703.822 71.9189 703.904 72.0697 703.904 72.1278C703.904 72.2207 702.336 72.1561 701.429 72.0195C701.138 71.974 700.999 71.9977 700.999 72.0906C701 72.2533 701.805 73.2268 702.586 74.0027C702.994 74.4081 703.262 74.7907 703.438 75.2781C703.579 75.6611 703.778 76.0904 703.871 76.2411C703.964 76.3919 704.035 76.6473 704.012 76.8216C704.001 77.0192 704.282 77.7387 704.82 78.8176C705.978 81.1493 706.552 82.6696 707.656 86.3029C709.03 90.8532 709.538 93.3265 709.616 95.8244C709.655 97.2767 709.667 97.3696 710.077 98.2978C710.381 98.9708 710.546 99.5396 710.618 100.213C710.833 102.048 710.944 104.314 710.855 105.337C710.765 106.313 710.777 106.441 711.105 107.369C711.293 107.915 711.481 108.658 711.529 109.006C711.577 109.355 711.706 109.831 711.823 110.063C711.94 110.283 712.081 110.91 712.153 111.456C712.212 111.99 712.486 113.999 712.748 115.904C713.021 117.82 713.272 119.911 713.309 120.55C713.382 121.63 713.417 121.781 713.815 122.419C714.223 123.092 714.235 123.15 714.25 124.277C714.266 125.578 714.383 125.891 715.294 127.178C715.574 127.561 715.936 128.164 716.112 128.512C716.404 129.092 716.428 129.22 716.36 130.033C716.305 130.789 716.317 130.94 716.503 131.102C716.876 131.437 719.273 132.557 720.111 132.787C720.553 132.901 721.041 133.074 721.193 133.155C721.344 133.236 721.797 133.304 722.192 133.303C722.843 133.312 723.017 133.254 724.455 132.517C726.196 131.628 726.648 131.557 727.568 131.996C728.138 132.284 728.792 133.165 728.665 133.503C728.584 133.735 726.116 135.765 725.049 136.489C723.577 137.481 722.022 138.125 718.47 139.182C717.379 139.5 715.452 140.145 714.175 140.602C712.899 141.059 711.668 141.447 711.447 141.459C711.064 141.484 711.041 141.46 710.818 140.857C710.63 140.346 710.618 140.172 710.722 139.881C710.837 139.567 710.825 139.474 710.568 139.103C710.066 138.384 709.703 137.433 709.268 135.784C709.044 134.89 708.563 133.277 708.199 132.197C707.847 131.106 707.377 129.469 707.165 128.541C706.964 127.612 706.659 126.59 706.495 126.277C706.332 125.952 706.05 125.256 705.874 124.71C705.698 124.165 705.37 123.294 705.148 122.772C704.937 122.239 704.632 121.275 704.467 120.625C704.172 119.383 703.679 117.839 702.953 115.808C702.413 114.346 701.742 111.524 701.586 110.142C701.515 109.561 701.405 107.935 701.342 106.518C701.242 104.252 701.195 103.904 700.984 103.556C700.856 103.347 700.75 103.08 700.75 102.964C700.75 102.848 700.621 102.511 700.469 102.21C700.317 101.908 700.164 101.455 700.117 101.2C700.07 100.944 699.882 100.318 699.682 99.8069C699.343 98.9133 699.016 98.4148 696.541 94.995C696.121 94.427 695.327 93.1398 694.766 92.1424C693.609 90.0779 693.737 90.0426 693.5 92.3905C693.309 94.4245 692.843 97.6213 692.546 99.0165C692.397 99.7142 692.191 100.702 692.1 101.191C691.985 101.819 691.801 102.307 691.466 102.854C691.212 103.285 690.946 103.89 690.878 104.216C690.683 105.158 690.371 105.739 689.677 106.509C688.716 107.557 687.418 108.747 686.688 109.226C685.308 110.148 681.337 114.657 679.741 117.103C678.747 118.628 678.25 119.338 677.786 119.851C677.555 120.119 677.231 120.654 677.082 121.05C676.793 121.748 676.793 121.783 676.959 122.665C677.207 123.954 676.959 126.221 676.417 127.478C675.932 128.629 675.507 129.897 675.508 130.211C675.509 130.571 676.399 132.776 676.772 133.333C677.134 133.866 677.926 134.433 679.276 135.137C679.928 135.484 680.219 135.715 680.36 135.982C680.465 136.191 680.628 136.434 680.722 136.538C680.838 136.678 680.874 136.956 680.853 137.468C680.82 138.188 680.808 138.211 680.402 138.422C679.637 138.796 677.801 138.918 675.117 138.776C671.131 138.568 670.7 138.325 668.575 135.113C667.909 134.093 666.824 132.609 666.182 131.81C664.818 130.118 664.385 129.317 664.569 128.782C664.638 128.596 664.777 128.294 664.892 128.119C665.02 127.944 665.17 127.676 665.239 127.514C665.32 127.351 665.608 126.722 665.885 126.117C666.174 125.512 666.636 124.651 666.936 124.208C667.226 123.766 667.549 123.161 667.664 122.87C669.138 118.798 670.12 116.878 672.029 114.362C672.862 113.267 673.543 112.022 673.819 111.103C674.314 109.405 675.146 108.066 676.952 106.015C678.33 104.454 679.094 103.673 679.639 103.264C679.871 103.089 680.195 102.681 680.356 102.367C680.506 102.065 680.761 101.715 680.9 101.587C681.398 101.19 681.594 100.516 681.589 99.2609C681.586 98.0758 681.408 97.1119 680.537 93.5941C680.066 91.69 680.042 91.4229 680.116 85.3457C680.143 83.1845 679.988 81.9068 679.661 81.4547C678.926 80.4462 678.479 78.5537 678.472 76.4623C678.469 75.6489 678.513 74.9516 678.571 74.8933C678.629 74.8234 678.79 74.1839 678.915 73.4631C679.052 72.7422 679.213 72.0329 679.27 71.8817C679.328 71.7305 679.328 71.5678 679.269 71.5099C679.223 71.4519 679.279 70.8592 679.404 70.1848C679.53 69.5105 679.633 68.8363 679.632 68.6736C679.62 68.511 679.618 67.9881 679.605 67.5001C679.578 66.4545 679.781 64.5366 680 63.7342C680.08 63.4086 680.183 62.8854 680.228 62.5715C680.274 62.2461 680.376 61.5951 680.467 61.1184C680.719 59.8394 680.693 58.91 680.351 57.2844C680.032 55.7633 679.791 53.2194 679.785 51.2558C679.783 50.6167 679.711 49.7455 679.616 49.3043C679.439 48.5147 679.115 45.3321 678.992 43.1713C678.955 42.5323 678.848 41.7542 678.754 41.4408C678.566 40.7675 678.538 39.2803 678.699 38.6988C678.768 38.4778 678.871 37.8733 678.939 37.3618C679.075 36.304 679.501 35.2918 680.138 34.5461C680.485 34.1383 682.096 32.6923 683.95 31.1177C684.286 30.8378 685.77 29.8221 686.848 29.1331C687.266 28.8645 687.3 28.7947 687.333 28.2717C687.355 27.7372 687.343 27.714 687.181 27.9236C687.008 28.145 687.008 28.1334 687.076 27.7729C687.11 27.5637 687.098 27.4127 687.04 27.4477C686.89 27.5528 686.795 27.0418 686.922 26.809C687.014 26.6344 686.991 26.6113 686.852 26.6698C686.724 26.7167 686.759 26.6004 686.967 26.286C687.233 25.8901 687.267 25.7622 687.196 25.2628C687.16 24.9492 687.066 24.5893 687.007 24.4733C686.937 24.3341 686.937 24.183 687.018 24.0433C687.191 23.7174 687.168 23.6594 686.901 23.7997C686.727 23.8932 686.669 23.8934 686.668 23.7888C686.668 23.6959 686.622 23.696 686.494 23.801C686.355 23.9176 686.32 23.9178 686.32 23.8016C686.32 23.7202 686.25 23.6856 686.168 23.7207C686.064 23.7559 686.121 23.4769 686.34 22.8487C686.513 22.3485 686.604 21.9648 686.523 22.0115C686.43 22.0699 686.419 22.0351 686.488 21.8722C686.546 21.7558 686.601 21.0701 686.622 20.3729C686.632 19.6641 686.676 18.8041 686.721 18.4554C686.755 18.1067 686.776 17.607 686.764 17.3514C686.75 16.7473 686.968 15.8286 687.177 15.6537C687.269 15.5837 687.338 15.3975 687.338 15.2349C687.336 14.6771 687.937 13.6411 688.736 12.8484C690.126 11.438 692.319 10.606 694.075 10.8327C694.505 10.8778 694.632 10.8542 694.678 10.7146C694.759 10.5052 695.282 10.4686 695.736 10.6298C695.945 10.7105 696.061 10.6985 696.154 10.5704C696.35 10.3374 696.583 10.3715 696.735 10.6499ZM701.888 12.504C701.923 12.5968 701.958 12.5619 701.958 12.4341C701.969 12.3062 701.934 12.2366 701.899 12.2832C701.864 12.3182 701.853 12.4228 701.888 12.504ZM686.809 20.5698C686.844 20.651 686.867 20.5929 686.867 20.4302C686.866 20.2675 686.843 20.2095 686.808 20.2793C686.785 20.3608 686.786 20.5002 686.809 20.5698Z" fill="url(#paint6_linear_215_601)"/>
<path d="M1279.9 8.77486C1280 8.94881 1280.07 8.98344 1280.19 8.8785C1280.28 8.79687 1280.36 8.79661 1280.41 8.86618C1280.44 8.92415 1280.58 8.94694 1280.7 8.91172C1280.81 8.87648 1281.02 8.91067 1281.16 8.97993C1281.33 9.07236 1281.48 9.0835 1281.63 9.00167C1281.82 8.88485 1282.25 8.9648 1282.8 9.21866C1282.89 9.25322 1283.21 9.29869 1283.49 9.32104C1284.08 9.34237 1284.48 9.51538 1284.36 9.69004C1284.31 9.77152 1284.37 9.77133 1284.52 9.68952C1284.72 9.58431 1284.8 9.60729 1285 9.86227C1285.14 10.0361 1285.24 10.2101 1285.25 10.2682C1285.25 10.3146 1285.34 10.3492 1285.44 10.3489C1285.79 10.3361 1286.29 10.5901 1286.36 10.7991C1286.41 10.9151 1286.5 11.1704 1286.6 11.3793C1286.69 11.5765 1286.76 11.7738 1286.76 11.8203C1286.76 11.9946 1286.3 12.9023 1286.13 13.0423C1286.03 13.124 1285.95 13.2985 1285.95 13.438C1285.95 13.5658 1285.81 13.9961 1285.67 14.38C1285.5 14.764 1285.38 15.1827 1285.38 15.3105C1285.37 15.7637 1285.08 16.6593 1284.97 16.5667C1284.92 16.5204 1284.94 16.5668 1285.02 16.6711C1285.14 16.8334 1285.15 16.9147 1285.05 17.0429C1284.97 17.1477 1284.94 17.4266 1284.99 17.8331C1285.05 18.3442 1285.02 18.5767 1284.82 19.0421C1284.68 19.3447 1284.49 19.6939 1284.38 19.8104C1284.25 19.9502 1284.16 20.3572 1284.12 20.9848C1284.02 22.1703 1283.22 24.7523 1282.68 25.6255C1282.47 25.9631 1282.14 26.5103 1281.95 26.8363C1281.73 27.2088 1281.47 27.4885 1281.25 27.5822C1281.05 27.6641 1280.89 27.7925 1280.89 27.8622C1280.89 27.9319 1281.03 28.4311 1281.19 28.9767C1281.34 29.5223 1281.53 30.2769 1281.59 30.6486C1281.65 31.0318 1281.77 31.38 1281.85 31.4262C1281.93 31.4841 1281.96 31.5305 1281.9 31.5306C1281.84 31.5308 1281.85 31.6005 1281.92 31.6816C1281.99 31.7627 1282.24 32.308 1282.46 32.8999C1282.75 33.6542 1283.04 34.1762 1283.49 34.7092C1284.19 35.5436 1284.9 36.7613 1286.01 38.9886C1286.8 40.5896 1286.96 41.0654 1287.27 42.8538C1287.5 44.166 1287.45 46.7689 1287.17 47.8969C1286.97 48.7341 1286.77 50.6403 1286.77 51.7093C1286.77 52.1857 1286.67 53.4641 1286.56 54.5567C1286.11 58.6249 1286.08 59.055 1286.08 60.6933C1286.08 61.6112 1286.14 63.749 1286.21 65.4451C1286.35 68.5354 1286.47 69.3832 1286.88 69.9164C1286.98 70.0439 1287.06 70.1947 1287.06 70.2528C1287.07 70.3457 1285.5 70.2811 1284.59 70.1445C1284.3 70.099 1284.16 70.1227 1284.16 70.2156C1284.16 70.3783 1284.97 71.3518 1285.75 72.1277C1286.15 72.5331 1286.42 72.9157 1286.6 73.4031C1286.74 73.7861 1286.94 74.2154 1287.03 74.3661C1287.13 74.5169 1287.2 74.7723 1287.17 74.9466C1287.16 75.1442 1287.44 75.8637 1287.98 76.9426C1289.14 79.2743 1289.71 80.7946 1290.82 84.4279C1292.19 88.9782 1292.7 91.4515 1292.78 93.9494C1292.82 95.4017 1292.83 95.4946 1293.24 96.4228C1293.54 97.0958 1293.71 97.6646 1293.78 98.3383C1293.99 100.173 1294.11 102.439 1294.02 103.462C1293.93 104.438 1293.94 104.566 1294.27 105.494C1294.45 106.04 1294.64 106.783 1294.69 107.131C1294.74 107.48 1294.87 107.956 1294.98 108.188C1295.1 108.408 1295.24 109.035 1295.31 109.581C1295.37 110.115 1295.65 112.124 1295.91 114.029C1296.18 115.945 1296.43 118.036 1296.47 118.675C1296.54 119.755 1296.58 119.906 1296.98 120.544C1297.38 121.217 1297.4 121.275 1297.41 122.402C1297.43 123.703 1297.54 124.016 1298.45 125.303C1298.73 125.686 1299.1 126.289 1299.27 126.637C1299.56 127.217 1299.59 127.345 1299.52 128.158C1299.47 128.914 1299.48 129.065 1299.66 129.227C1300.04 129.562 1302.43 130.682 1303.27 130.912C1303.71 131.026 1304.2 131.199 1304.35 131.28C1304.5 131.361 1304.96 131.429 1305.35 131.428C1306 131.437 1306.18 131.379 1307.62 130.642C1309.36 129.753 1309.81 129.682 1310.73 130.121C1311.3 130.409 1311.95 131.29 1311.83 131.628C1311.74 131.86 1309.28 133.89 1308.21 134.614C1306.74 135.606 1305.18 136.25 1301.63 137.307C1300.54 137.625 1298.61 138.27 1297.34 138.727C1296.06 139.184 1294.83 139.572 1294.61 139.584C1294.22 139.609 1294.2 139.585 1293.98 138.982C1293.79 138.471 1293.78 138.297 1293.88 138.006C1294 137.692 1293.99 137.599 1293.73 137.228C1293.23 136.509 1292.86 135.558 1292.43 133.909C1292.2 133.015 1291.72 131.402 1291.36 130.322C1291.01 129.231 1290.54 127.594 1290.33 126.666C1290.12 125.737 1289.82 124.715 1289.66 124.402C1289.49 124.077 1289.21 123.381 1289.03 122.835C1288.86 122.29 1288.53 121.419 1288.31 120.897C1288.1 120.364 1287.79 119.4 1287.63 118.75C1287.33 117.508 1286.84 115.964 1286.11 113.933C1285.57 112.471 1284.9 109.649 1284.75 108.267C1284.68 107.686 1284.57 106.06 1284.5 104.643C1284.4 102.377 1284.36 102.029 1284.14 101.681C1284.02 101.472 1283.91 101.205 1283.91 101.089C1283.91 100.973 1283.78 100.636 1283.63 100.335C1283.48 100.033 1283.32 99.5803 1283.28 99.3248C1283.23 99.0694 1283.04 98.4425 1282.84 97.9319C1282.5 97.0383 1282.18 96.5398 1279.7 93.12C1279.28 92.552 1278.49 91.2648 1277.93 90.2674C1276.77 88.2029 1276.9 88.1676 1276.66 90.5155C1276.47 92.5495 1276 95.7463 1275.71 97.1415C1275.56 97.8392 1275.35 98.8275 1275.26 99.3158C1275.15 99.9436 1274.96 100.432 1274.63 100.979C1274.37 101.41 1274.11 102.015 1274.04 102.341C1273.84 103.283 1273.53 103.864 1272.84 104.634C1271.88 105.682 1270.58 106.872 1269.85 107.351C1268.47 108.273 1264.5 112.782 1262.9 115.228C1261.91 116.753 1261.41 117.463 1260.95 117.976C1260.72 118.244 1260.39 118.779 1260.24 119.175C1259.95 119.873 1259.95 119.908 1260.12 120.79C1260.37 122.079 1260.12 124.346 1259.58 125.603C1259.09 126.754 1258.67 128.022 1258.67 128.336C1258.67 128.696 1259.56 130.901 1259.93 131.458C1260.3 131.991 1261.09 132.558 1262.44 133.262C1263.09 133.609 1263.38 133.84 1263.52 134.107C1263.63 134.316 1263.79 134.559 1263.88 134.663C1264 134.803 1264.03 135.081 1264.01 135.593C1263.98 136.313 1263.97 136.336 1263.56 136.547C1262.8 136.921 1260.96 137.043 1258.28 136.901C1254.29 136.693 1253.86 136.45 1251.74 133.238C1251.07 132.218 1249.98 130.734 1249.34 129.935C1247.98 128.243 1247.55 127.442 1247.73 126.907C1247.8 126.721 1247.94 126.419 1248.05 126.244C1248.18 126.069 1248.33 125.801 1248.4 125.639C1248.48 125.476 1248.77 124.847 1249.05 124.242C1249.33 123.637 1249.8 122.776 1250.1 122.333C1250.39 121.891 1250.71 121.286 1250.82 120.995C1252.3 116.923 1253.28 115.003 1255.19 112.487C1256.02 111.392 1256.7 110.147 1256.98 109.228C1257.47 107.53 1258.31 106.191 1260.11 104.14C1261.49 102.579 1262.25 101.798 1262.8 101.389C1263.03 101.214 1263.36 100.806 1263.52 100.492C1263.67 100.19 1263.92 99.8403 1264.06 99.712C1264.56 99.3154 1264.75 98.6408 1264.75 97.3859C1264.75 96.2008 1264.57 95.2369 1263.7 91.7191C1263.23 89.815 1263.2 89.5479 1263.28 83.4707C1263.3 81.3095 1263.15 80.0318 1262.82 79.5797C1262.09 78.5712 1261.64 76.6787 1261.63 74.5873C1261.63 73.7739 1261.67 73.0766 1261.73 73.0183C1261.79 72.9484 1261.95 72.3089 1262.08 71.5881C1262.21 70.8672 1262.37 70.1579 1262.43 70.0067C1262.49 69.8555 1262.49 69.6928 1262.43 69.6349C1262.38 69.5769 1262.44 68.9842 1262.57 68.3098C1262.69 67.6355 1262.79 66.9613 1262.79 66.7986C1262.78 66.636 1262.78 66.1131 1262.77 65.6251C1262.74 64.5795 1262.94 62.6616 1263.16 61.8592C1263.24 61.5336 1263.34 61.0104 1263.39 60.6965C1263.43 60.3711 1263.54 59.7201 1263.63 59.2434C1263.88 57.9644 1263.85 57.035 1263.51 55.4094C1263.19 53.8883 1262.95 51.3444 1262.95 49.3808C1262.94 48.7417 1262.87 47.8705 1262.78 47.4293C1262.6 46.6397 1262.28 43.4571 1262.15 41.2963C1262.12 40.6573 1262.01 39.8792 1261.91 39.5658C1261.73 38.8925 1261.7 37.4053 1261.86 36.8238C1261.93 36.6028 1262.03 35.9983 1262.1 35.4868C1262.24 34.429 1262.66 33.4168 1263.3 32.6711C1263.65 32.2633 1265.26 30.8173 1267.11 29.2427C1267.45 28.9628 1268.93 27.9471 1270.01 27.2581C1270.43 26.9895 1270.46 26.9197 1270.49 26.3967C1270.52 25.8622 1270.5 25.839 1270.34 26.0486C1270.17 26.27 1270.17 26.2584 1270.24 25.8979C1270.27 25.6887 1270.26 25.5377 1270.2 25.5727C1270.05 25.6778 1269.96 25.1668 1270.08 24.934C1270.18 24.7594 1270.15 24.7363 1270.01 24.7948C1269.88 24.8417 1269.92 24.7254 1270.13 24.411C1270.39 24.0151 1270.43 23.8872 1270.36 23.3878C1270.32 23.0742 1270.23 22.7143 1270.17 22.5983C1270.1 22.4591 1270.1 22.308 1270.18 22.1683C1270.35 21.8424 1270.33 21.7844 1270.06 21.9247C1269.89 22.0182 1269.83 22.0184 1269.83 21.9138C1269.83 21.8209 1269.78 21.821 1269.65 21.926C1269.52 22.0426 1269.48 22.0428 1269.48 21.9266C1269.48 21.8452 1269.41 21.8106 1269.33 21.8457C1269.22 21.8809 1269.28 21.6019 1269.5 20.9737C1269.67 20.4735 1269.76 20.0898 1269.68 20.1365C1269.59 20.1949 1269.58 20.1601 1269.65 19.9972C1269.71 19.8808 1269.76 19.1951 1269.78 18.4979C1269.79 17.7891 1269.84 16.9291 1269.88 16.5804C1269.92 16.2317 1269.94 15.732 1269.92 15.4764C1269.91 14.8723 1270.13 13.9536 1270.34 13.7787C1270.43 13.7087 1270.5 13.5225 1270.5 13.3599C1270.5 12.8021 1271.1 11.7661 1271.9 10.9734C1273.29 9.56299 1275.48 8.73096 1277.24 8.95771C1277.67 9.00281 1277.79 8.97915 1277.84 8.83957C1277.92 8.63017 1278.44 8.59363 1278.9 8.75484C1279.11 8.8355 1279.22 8.82351 1279.31 8.69539C1279.51 8.46238 1279.74 8.49648 1279.9 8.77486ZM1285.05 10.629C1285.08 10.7218 1285.12 10.6869 1285.12 10.5591C1285.13 10.4312 1285.09 10.3616 1285.06 10.4082C1285.02 10.4432 1285.01 10.5478 1285.05 10.629ZM1269.97 18.6948C1270 18.776 1270.03 18.7179 1270.03 18.5552C1270.03 18.3925 1270 18.3345 1269.97 18.4043C1269.95 18.4858 1269.95 18.6252 1269.97 18.6948Z" fill="url(#paint7_linear_215_601)"/>
<path d="M1424.13 2.45455C1424.24 2.6285 1424.31 2.66313 1424.43 2.55819C1424.52 2.47656 1424.6 2.4763 1424.65 2.54586C1424.68 2.60384 1424.82 2.62663 1424.94 2.59141C1425.05 2.55617 1425.26 2.59036 1425.4 2.65961C1425.56 2.75205 1425.72 2.76319 1425.87 2.68136C1426.06 2.56454 1426.49 2.64449 1427.04 2.89835C1427.13 2.93291 1427.45 2.97838 1427.73 3.00072C1428.32 3.02206 1428.71 3.19507 1428.6 3.36973C1428.55 3.45121 1428.61 3.45102 1428.76 3.36921C1428.96 3.264 1429.04 3.28698 1429.24 3.54196C1429.38 3.71579 1429.48 3.88976 1429.48 3.94785C1429.48 3.99433 1429.58 4.02888 1429.68 4.02854C1430.03 4.01581 1430.53 4.26981 1430.6 4.47874C1430.65 4.59479 1430.74 4.8501 1430.84 5.05895C1430.93 5.25618 1431 5.45349 1431 5.49996C1431 5.67425 1430.54 6.58204 1430.36 6.72203C1430.27 6.80367 1430.19 6.97821 1430.19 7.11765C1430.19 7.24545 1430.05 7.67581 1429.9 8.05973C1429.74 8.44369 1429.62 8.86239 1429.62 8.9902C1429.61 9.44339 1429.32 10.339 1429.21 10.2464C1429.16 10.2001 1429.18 10.2465 1429.26 10.3508C1429.38 10.5131 1429.39 10.5944 1429.28 10.7225C1429.2 10.8274 1429.18 11.1063 1429.23 11.5128C1429.29 12.0239 1429.26 12.2564 1429.06 12.7218C1428.92 13.0243 1428.72 13.3736 1428.62 13.4901C1428.49 13.6299 1428.4 14.0369 1428.36 14.6645C1428.26 15.85 1427.46 18.432 1426.92 19.3052C1426.71 19.6428 1426.38 20.19 1426.19 20.516C1425.97 20.8885 1425.7 21.1682 1425.48 21.2619C1425.29 21.3438 1425.12 21.4722 1425.13 21.5419C1425.13 21.6116 1425.27 22.1108 1425.43 22.6564C1425.58 23.202 1425.77 23.9566 1425.83 24.3282C1425.89 24.7115 1426.01 25.0597 1426.09 25.1059C1426.17 25.1637 1426.19 25.2101 1426.14 25.2103C1426.08 25.2105 1426.09 25.2802 1426.16 25.3613C1426.23 25.4424 1426.48 25.9877 1426.7 26.5796C1426.99 27.3339 1427.28 27.8558 1427.73 28.3889C1428.43 29.2232 1429.14 30.441 1430.25 32.6683C1431.03 34.2692 1431.2 34.7451 1431.51 36.5335C1431.74 37.8457 1431.69 40.4486 1431.41 41.5766C1431.21 42.4138 1431.01 44.32 1431.01 45.389C1431.01 45.8654 1430.91 47.1438 1430.8 48.2364C1430.35 52.3046 1430.31 52.7346 1430.32 54.3729C1430.32 55.2909 1430.38 57.4286 1430.45 59.1248C1430.59 62.2151 1430.71 63.0629 1431.12 63.5961C1431.22 63.7236 1431.3 63.8744 1431.3 63.9325C1431.3 64.0254 1429.74 63.9608 1428.83 63.8242C1428.54 63.7787 1428.4 63.8024 1428.4 63.8953C1428.4 64.058 1429.2 65.0314 1429.99 65.8074C1430.39 66.2128 1430.66 66.5954 1430.84 67.0828C1430.98 67.4658 1431.18 67.8951 1431.27 68.0458C1431.36 68.1966 1431.43 68.452 1431.41 68.6263C1431.4 68.8239 1431.68 69.5434 1432.22 70.6222C1433.38 72.954 1433.95 74.4743 1435.06 78.1076C1436.43 82.6579 1436.94 85.1312 1437.02 87.6291C1437.05 89.0814 1437.07 89.1743 1437.48 90.1025C1437.78 90.7755 1437.95 91.3443 1438.02 92.018C1438.23 93.8531 1438.34 96.1185 1438.25 97.1413C1438.16 98.1176 1438.18 98.2454 1438.5 99.1739C1438.69 99.7194 1438.88 100.462 1438.93 100.811C1438.98 101.159 1439.11 101.635 1439.22 101.867C1439.34 102.088 1439.48 102.715 1439.55 103.261C1439.61 103.795 1439.89 105.804 1440.15 107.709C1440.42 109.625 1440.67 111.716 1440.71 112.355C1440.78 113.435 1440.82 113.586 1441.21 114.224C1441.62 114.896 1441.63 114.954 1441.65 116.081C1441.67 117.383 1441.78 117.696 1442.69 118.983C1442.97 119.365 1443.34 119.969 1443.51 120.317C1443.8 120.897 1443.83 121.024 1443.76 121.838C1443.7 122.593 1443.72 122.744 1443.9 122.906C1444.28 123.242 1446.67 124.362 1447.51 124.591C1447.95 124.706 1448.44 124.879 1448.59 124.96C1448.74 125.04 1449.2 125.109 1449.59 125.107C1450.24 125.117 1450.42 125.058 1451.85 124.322C1453.59 123.433 1454.05 123.362 1454.97 123.8C1455.54 124.089 1456.19 124.97 1456.06 125.307C1455.98 125.54 1453.52 127.57 1452.45 128.293C1450.98 129.286 1449.42 129.93 1445.87 130.987C1444.78 131.304 1442.85 131.95 1441.57 132.407C1440.3 132.864 1439.07 133.252 1438.85 133.264C1438.46 133.288 1438.44 133.265 1438.22 132.662C1438.03 132.151 1438.02 131.977 1438.12 131.686C1438.24 131.372 1438.22 131.279 1437.97 130.908C1437.47 130.189 1437.1 129.238 1436.67 127.589C1436.44 126.695 1435.96 125.082 1435.6 124.002C1435.25 122.911 1434.78 121.274 1434.56 120.345C1434.36 119.416 1434.06 118.395 1433.89 118.082C1433.73 117.757 1433.45 117.061 1433.27 116.515C1433.1 115.97 1432.77 115.099 1432.55 114.577C1432.34 114.043 1432.03 113.08 1431.87 112.43C1431.57 111.187 1431.08 109.644 1430.35 107.612C1429.81 106.15 1429.14 103.329 1428.99 101.947C1428.91 101.366 1428.8 99.7396 1428.74 98.3222C1428.64 96.0568 1428.59 95.7084 1428.38 95.3605C1428.26 95.1517 1428.15 94.8848 1428.15 94.7686C1428.15 94.6524 1428.02 94.3159 1427.87 94.0143C1427.72 93.7127 1427.56 93.26 1427.52 93.0045C1427.47 92.7491 1427.28 92.1222 1427.08 91.6116C1426.74 90.718 1426.42 90.2194 1423.94 86.7997C1423.52 86.2317 1422.73 84.9445 1422.17 83.9471C1421.01 81.8826 1421.14 81.8473 1420.9 84.1951C1420.71 86.2291 1420.24 89.4259 1419.95 90.8212C1419.8 91.5189 1419.59 92.5072 1419.5 92.9955C1419.38 93.6233 1419.2 94.1119 1418.87 94.6591C1418.61 95.0898 1418.35 95.6949 1418.28 96.0204C1418.08 96.9622 1417.77 97.5442 1417.08 98.3133C1416.11 99.3621 1414.82 100.551 1414.09 101.03C1412.71 101.953 1408.74 106.462 1407.14 108.907C1406.15 110.433 1405.65 111.143 1405.19 111.656C1404.95 111.924 1404.63 112.459 1404.48 112.855C1404.19 113.553 1404.19 113.588 1404.36 114.47C1404.61 115.759 1404.36 118.026 1403.82 119.282C1403.33 120.434 1402.91 121.702 1402.91 122.016C1402.91 122.376 1403.8 124.581 1404.17 125.137C1404.53 125.671 1405.33 126.237 1406.68 126.942C1407.33 127.288 1407.62 127.52 1407.76 127.787C1407.86 127.995 1408.03 128.239 1408.12 128.343C1408.24 128.482 1408.27 128.761 1408.25 129.272C1408.22 129.993 1408.21 130.016 1407.8 130.226C1407.04 130.601 1405.2 130.723 1402.52 130.58C1398.53 130.373 1398.1 130.13 1395.97 126.918C1395.31 125.898 1394.22 124.414 1393.58 123.614C1392.22 121.922 1391.78 121.122 1391.97 120.587C1392.04 120.401 1392.18 120.098 1392.29 119.924C1392.42 119.749 1392.57 119.481 1392.64 119.318C1392.72 119.155 1393.01 118.527 1393.28 117.922C1393.57 117.317 1394.04 116.455 1394.34 116.013C1394.62 115.57 1394.95 114.965 1395.06 114.674C1396.54 110.603 1397.52 108.683 1399.43 106.167C1400.26 105.072 1400.94 103.826 1401.22 102.907C1401.71 101.209 1402.55 99.8705 1404.35 97.8197C1405.73 96.2583 1406.49 95.4774 1407.04 95.0689C1407.27 94.8939 1407.59 94.4862 1407.76 94.1719C1407.91 93.8694 1408.16 93.52 1408.3 93.3917C1408.8 92.995 1408.99 92.3205 1408.99 91.0656C1408.99 89.8805 1408.81 88.9166 1407.94 85.3988C1407.47 83.4947 1407.44 83.2276 1407.51 77.1504C1407.54 74.9892 1407.39 73.7115 1407.06 73.2594C1406.33 72.2509 1405.88 70.3584 1405.87 68.267C1405.87 67.4536 1405.91 66.7563 1405.97 66.698C1406.03 66.6281 1406.19 65.9885 1406.31 65.2677C1406.45 64.5469 1406.61 63.8376 1406.67 63.6864C1406.73 63.5351 1406.73 63.3725 1406.67 63.3146C1406.62 63.2566 1406.68 62.6639 1406.8 61.9895C1406.93 61.3152 1407.03 60.641 1407.03 60.4783C1407.02 60.3157 1407.02 59.7928 1407 59.3048C1406.98 58.2592 1407.18 56.3413 1407.4 55.5389C1407.48 55.2133 1407.58 54.6901 1407.63 54.3762C1407.67 54.0507 1407.78 53.3997 1407.87 52.923C1408.12 51.6441 1408.09 50.7147 1407.75 49.0891C1407.43 47.568 1407.19 45.0241 1407.18 43.0605C1407.18 42.4214 1407.11 41.5502 1407.02 41.109C1406.84 40.3194 1406.51 37.1368 1406.39 34.976C1406.35 34.337 1406.25 33.5589 1406.15 33.2455C1405.97 32.5721 1405.94 31.085 1406.1 30.5035C1406.17 30.2825 1406.27 29.678 1406.34 29.1665C1406.47 28.1087 1406.9 27.0964 1407.54 26.3508C1407.88 25.943 1409.5 24.497 1411.35 22.9224C1411.69 22.6425 1413.17 21.6268 1414.25 20.9378C1414.67 20.6692 1414.7 20.5994 1414.73 20.0764C1414.75 19.5419 1414.74 19.5187 1414.58 19.7283C1414.41 19.9497 1414.41 19.938 1414.48 19.5776C1414.51 19.3684 1414.5 19.2173 1414.44 19.2524C1414.29 19.3575 1414.19 18.8465 1414.32 18.6137C1414.41 18.4391 1414.39 18.416 1414.25 18.4745C1414.12 18.5214 1414.16 18.4051 1414.37 18.0907C1414.63 17.6948 1414.67 17.5669 1414.6 17.0675C1414.56 16.7539 1414.47 16.394 1414.41 16.278C1414.34 16.1388 1414.34 15.9877 1414.42 15.848C1414.59 15.5221 1414.57 15.4641 1414.3 15.6044C1414.13 15.6979 1414.07 15.6981 1414.07 15.5935C1414.07 15.5006 1414.02 15.5007 1413.89 15.6057C1413.75 15.7223 1413.72 15.7224 1413.72 15.6063C1413.72 15.5249 1413.65 15.4903 1413.57 15.5254C1413.46 15.5606 1413.52 15.2816 1413.74 14.6534C1413.91 14.1532 1414 13.7695 1413.92 13.8162C1413.83 13.8746 1413.82 13.8398 1413.89 13.6769C1413.94 13.5605 1414 12.8748 1414.02 12.1776C1414.03 11.4688 1414.07 10.6088 1414.12 10.2601C1414.15 9.9114 1414.18 9.41169 1414.16 9.15611C1414.15 8.55195 1414.37 7.63332 1414.58 7.45836C1414.67 7.38835 1414.74 7.20221 1414.74 7.03955C1414.74 6.48183 1415.34 5.44578 1416.14 4.65309C1417.53 3.24268 1419.72 2.41065 1421.47 2.6374C1421.9 2.68249 1422.03 2.65884 1422.08 2.51926C1422.16 2.30986 1422.68 2.27331 1423.13 2.43453C1423.34 2.51518 1423.46 2.5032 1423.55 2.37508C1423.75 2.14207 1423.98 2.17617 1424.13 2.45455ZM1429.29 4.30868C1429.32 4.40152 1429.36 4.36655 1429.36 4.23874C1429.37 4.11089 1429.33 4.04129 1429.3 4.08788C1429.26 4.12284 1429.25 4.22746 1429.29 4.30868ZM1414.21 12.3745C1414.24 12.4557 1414.27 12.3976 1414.27 12.2349C1414.27 12.0722 1414.24 12.0142 1414.21 12.084C1414.18 12.1654 1414.18 12.3049 1414.21 12.3745Z" fill="url(#paint8_linear_215_601)"/>
<defs>
<linearGradient id="paint0_linear_215_601" x1="72.3133" y1="266.87" x2="1722.57" y2="396.392" gradientUnits="userSpaceOnUse">
<stop stop-opacity="0"/>
<stop offset="0.570413"/>
<stop offset="1" stop-opacity="0"/>
</linearGradient>
<linearGradient id="paint1_linear_215_601" x1="72.1619" y1="219.903" x2="1722.42" y2="349.424" gradientUnits="userSpaceOnUse">
<stop stop-opacity="0"/>
<stop offset="0.570413"/>
<stop offset="1" stop-opacity="0"/>
</linearGradient>
<linearGradient id="paint2_linear_215_601" x1="72.0511" y1="185.463" x2="1722.31" y2="314.985" gradientUnits="userSpaceOnUse">
<stop stop-opacity="0"/>
<stop offset="0.570413"/>
<stop offset="1" stop-opacity="0"/>
</linearGradient>
<linearGradient id="paint3_linear_215_601" x1="71.7547" y1="93.096" x2="1722.01" y2="222.617" gradientUnits="userSpaceOnUse">
<stop stop-opacity="0"/>
<stop offset="0.570413"/>
<stop offset="1" stop-opacity="0"/>
</linearGradient>
<linearGradient id="paint4_linear_215_601" x1="556.444" y1="11.2875" x2="562.244" y2="123.773" gradientUnits="userSpaceOnUse">
<stop stop-color="#0075FF"/>
<stop offset="1" stop-color="#91C3FF"/>
</linearGradient>
<linearGradient id="paint5_linear_215_601" x1="376.408" y1="11.8676" x2="382.208" y2="124.353" gradientUnits="userSpaceOnUse">
<stop stop-color="#0075FF"/>
<stop offset="1" stop-color="#91C3FF"/>
</linearGradient>
<linearGradient id="paint6_linear_215_601" x1="695.385" y1="10.8392" x2="701.185" y2="123.325" gradientUnits="userSpaceOnUse">
<stop stop-color="#0075FF"/>
<stop offset="1" stop-color="#91C3FF"/>
</linearGradient>
<linearGradient id="paint7_linear_215_601" x1="1278.55" y1="8.96424" x2="1284.35" y2="121.45" gradientUnits="userSpaceOnUse">
<stop stop-color="#0075FF"/>
<stop offset="1" stop-color="#91C3FF"/>
</linearGradient>
<linearGradient id="paint8_linear_215_601" x1="1422.78" y1="2.64393" x2="1428.58" y2="115.13" gradientUnits="userSpaceOnUse">
<stop stop-color="#0075FF"/>
<stop offset="1" stop-color="#91C3FF"/>
</linearGradient>
</defs>
</svg>
