<svg width="236" height="42" viewBox="0 0 236 42" fill="none" xmlns="http://www.w3.org/2000/svg">
<path d="M31.052 34C30.548 34 30.17 33.874 29.918 33.622C29.666 33.37 29.54 32.992 29.54 32.488V12.652H22.556C22.052 12.652 21.674 12.526 21.422 12.274C21.17 12.022 21.044 11.644 21.044 11.14C21.044 10.636 21.17 10.258 21.422 10.006C21.674 9.754 22.052 9.628 22.556 9.628H39.548C40.052 9.628 40.43 9.754 40.682 10.006C40.934 10.258 41.06 10.636 41.06 11.14C41.06 11.644 40.934 12.022 40.682 12.274C40.43 12.526 40.052 12.652 39.548 12.652H32.564V32.488C32.564 32.968 32.432 33.34 32.168 33.604C31.916 33.868 31.544 34 31.052 34ZM44.0446 26.116V26.98C44.0446 28.528 44.3266 29.584 44.8906 30.148C45.4546 30.7 46.5166 30.976 48.0766 30.976H51.0286C52.2526 30.976 53.1586 30.862 53.7466 30.634C54.3346 30.406 54.7246 30.004 54.9166 29.428C55.0486 28.972 55.2286 28.624 55.4566 28.384C55.6966 28.144 56.0566 28.024 56.5366 28.024C57.0406 28.024 57.4246 28.156 57.6886 28.42C57.9526 28.684 58.0366 29.068 57.9406 29.572C57.6766 31.06 56.9686 32.17 55.8166 32.902C54.6646 33.634 53.0686 34 51.0286 34H48.0766C45.6886 34 43.9126 33.424 42.7486 32.272C41.5966 31.12 41.0206 29.356 41.0206 26.98V22.804C41.0206 20.368 41.5966 18.58 42.7486 17.44C43.9126 16.288 45.6886 15.724 48.0766 15.748H51.0286C53.4286 15.748 55.2046 16.324 56.3566 17.476C57.5086 18.616 58.0846 20.392 58.0846 22.804V24.604C58.0846 25.612 57.5806 26.116 56.5726 26.116H44.0446ZM48.0766 18.772C46.5166 18.748 45.4546 19.018 44.8906 19.582C44.3266 20.146 44.0446 21.22 44.0446 22.804V23.092H55.0606V22.804C55.0606 21.232 54.7786 20.17 54.2146 19.618C53.6626 19.054 52.6006 18.772 51.0286 18.772H48.0766ZM70.137 34C68.301 34 66.933 33.55 66.033 32.65C65.145 31.738 64.701 30.364 64.701 28.528V10.168C64.701 9.16 65.205 8.656 66.213 8.656C67.221 8.656 67.725 9.16 67.725 10.168V28.528C67.725 29.5 67.881 30.154 68.193 30.49C68.517 30.814 69.165 30.976 70.137 30.976C71.169 30.976 71.685 31.48 71.685 32.488C71.721 33.496 71.205 34 70.137 34ZM82.4769 34C80.6409 34 79.2729 33.55 78.3729 32.65C77.4849 31.738 77.0409 30.364 77.0409 28.528V10.168C77.0409 9.16 77.5449 8.656 78.5529 8.656C79.5609 8.656 80.0649 9.16 80.0649 10.168V28.528C80.0649 29.5 80.2209 30.154 80.5329 30.49C80.8569 30.814 81.5049 30.976 82.4769 30.976C83.5089 30.976 84.0249 31.48 84.0249 32.488C84.0609 33.496 83.5449 34 82.4769 34ZM106.893 34C104.505 34 102.729 33.424 101.565 32.272C100.413 31.12 99.837 29.356 99.837 26.98V22.804C99.837 20.392 100.413 18.616 101.565 17.476C102.729 16.324 104.505 15.748 106.893 15.748H109.845C112.245 15.748 114.021 16.324 115.173 17.476C116.325 18.628 116.901 20.404 116.901 22.804V26.944C116.901 29.332 116.325 31.108 115.173 32.272C114.021 33.424 112.245 34 109.845 34H106.893ZM102.861 26.98C102.861 28.528 103.143 29.584 103.707 30.148C104.271 30.7 105.333 30.976 106.893 30.976H109.845C111.417 30.976 112.479 30.694 113.031 30.13C113.595 29.566 113.877 28.504 113.877 26.944V22.804C113.877 21.232 113.595 20.17 113.031 19.618C112.479 19.054 111.417 18.772 109.845 18.772H106.893C105.849 18.772 105.033 18.892 104.445 19.132C103.869 19.36 103.461 19.768 103.221 20.356C102.981 20.932 102.861 21.748 102.861 22.804V26.98ZM125.029 41.2C124.021 41.2 123.517 40.696 123.517 39.688V17.26C123.517 16.252 124.021 15.748 125.029 15.748C126.037 15.748 126.541 16.252 126.541 17.26V17.71C127.189 17.062 127.987 16.576 128.935 16.252C129.895 15.916 130.969 15.748 132.157 15.748H133.525C135.925 15.748 137.701 16.324 138.853 17.476C140.005 18.628 140.581 20.404 140.581 22.804V26.944C140.581 29.332 140.005 31.108 138.853 32.272C137.701 33.424 135.925 34 133.525 34H126.541V39.688C126.541 40.696 126.037 41.2 125.029 41.2ZM126.541 30.976H133.525C135.097 30.976 136.159 30.694 136.711 30.13C137.275 29.566 137.557 28.504 137.557 26.944V22.804C137.557 21.232 137.275 20.17 136.711 19.618C136.159 19.054 135.097 18.772 133.525 18.772H132.157C130.657 18.772 129.361 18.952 128.269 19.312C127.177 19.672 126.601 20.242 126.541 21.022V30.976ZM148.221 12.796C147.081 12.796 146.511 12.22 146.511 11.068V10.006C146.511 8.878 147.081 8.314 148.221 8.314H149.265C150.357 8.314 150.903 8.878 150.903 10.006V11.068C150.903 12.22 150.357 12.796 149.265 12.796H148.221ZM148.725 34C147.717 34 147.213 33.496 147.213 32.488V17.26C147.213 16.252 147.717 15.748 148.725 15.748C149.733 15.748 150.237 16.252 150.237 17.26V32.488C150.237 33.496 149.733 34 148.725 34ZM159.236 34C158.228 34 157.724 33.496 157.724 32.488V17.26C157.724 16.252 158.228 15.748 159.236 15.748C160.244 15.748 160.748 16.252 160.748 17.26V17.854C162.02 16.45 163.892 15.748 166.364 15.748H167.372C169.772 15.748 171.548 16.324 172.7 17.476C173.852 18.628 174.428 20.404 174.428 22.804V32.488C174.428 33.496 173.924 34 172.916 34C171.908 34 171.404 33.496 171.404 32.488V22.804C171.404 21.232 171.116 20.17 170.54 19.618C169.976 19.054 168.92 18.772 167.372 18.772H166.364C164.924 18.772 163.67 18.94 162.602 19.276C161.534 19.6 160.916 20.116 160.748 20.824V32.488C160.748 33.496 160.244 34 159.236 34ZM182.568 12.796C181.428 12.796 180.858 12.22 180.858 11.068V10.006C180.858 8.878 181.428 8.314 182.568 8.314H183.612C184.704 8.314 185.25 8.878 185.25 10.006V11.068C185.25 12.22 184.704 12.796 183.612 12.796H182.568ZM183.072 34C182.064 34 181.56 33.496 181.56 32.488V17.26C181.56 16.252 182.064 15.748 183.072 15.748C184.08 15.748 184.584 16.252 184.584 17.26V32.488C184.584 33.496 184.08 34 183.072 34ZM198.264 34C195.876 34 194.1 33.424 192.936 32.272C191.784 31.12 191.208 29.356 191.208 26.98V22.804C191.208 20.392 191.784 18.616 192.936 17.476C194.1 16.324 195.876 15.748 198.264 15.748H201.216C203.616 15.748 205.392 16.324 206.544 17.476C207.696 18.628 208.272 20.404 208.272 22.804V26.944C208.272 29.332 207.696 31.108 206.544 32.272C205.392 33.424 203.616 34 201.216 34H198.264ZM194.232 26.98C194.232 28.528 194.514 29.584 195.078 30.148C195.642 30.7 196.704 30.976 198.264 30.976H201.216C202.788 30.976 203.85 30.694 204.402 30.13C204.966 29.566 205.248 28.504 205.248 26.944V22.804C205.248 21.232 204.966 20.17 204.402 19.618C203.85 19.054 202.788 18.772 201.216 18.772H198.264C197.22 18.772 196.404 18.892 195.816 19.132C195.24 19.36 194.832 19.768 194.592 20.356C194.352 20.932 194.232 21.748 194.232 22.804V26.98ZM216.401 34C215.393 34 214.889 33.496 214.889 32.488V17.26C214.889 16.252 215.393 15.748 216.401 15.748C217.409 15.748 217.913 16.252 217.913 17.26V17.854C219.185 16.45 221.057 15.748 223.529 15.748H224.537C226.937 15.748 228.713 16.324 229.865 17.476C231.017 18.628 231.593 20.404 231.593 22.804V32.488C231.593 33.496 231.089 34 230.081 34C229.073 34 228.569 33.496 228.569 32.488V22.804C228.569 21.232 228.281 20.17 227.705 19.618C227.141 19.054 226.085 18.772 224.537 18.772H223.529C222.089 18.772 220.835 18.94 219.767 19.276C218.699 19.6 218.081 20.116 217.913 20.824V32.488C217.913 33.496 217.409 34 216.401 34Z" fill="#232630"/>
<path d="M8.12918 5.06091C8.15527 5.10611 8.17266 5.11515 8.20165 5.08803C8.22484 5.06694 8.24513 5.06694 8.25672 5.08502C8.26542 5.10009 8.3002 5.10611 8.32919 5.09707C8.35817 5.08803 8.41035 5.09707 8.44513 5.11515C8.48571 5.13926 8.52339 5.14228 8.56107 5.12118C8.61035 5.09105 8.7176 5.11214 8.85383 5.17844C8.87702 5.18748 8.95528 5.19953 9.02485 5.20556C9.17268 5.21159 9.27123 5.25679 9.24224 5.30199C9.23065 5.32308 9.24514 5.32308 9.28282 5.30199C9.3321 5.27487 9.35239 5.2809 9.40166 5.34719C9.43645 5.39239 9.46253 5.4376 9.46253 5.45266C9.46253 5.46471 9.48572 5.47375 9.51181 5.47375C9.59877 5.47074 9.72341 5.53704 9.7408 5.59128C9.75239 5.62142 9.77558 5.68771 9.79877 5.74195C9.82196 5.79318 9.83935 5.84441 9.83935 5.85647C9.83935 5.90167 9.72341 6.13672 9.67993 6.17288C9.65674 6.19397 9.63645 6.23918 9.63645 6.27534C9.63645 6.30849 9.60167 6.41998 9.56398 6.51943C9.5234 6.61887 9.49152 6.72736 9.49152 6.76051C9.48862 6.87803 9.41616 7.11007 9.39007 7.08596C9.37558 7.07391 9.38137 7.08596 9.40166 7.11308C9.43065 7.15527 9.43355 7.17636 9.40746 7.20951C9.38717 7.23663 9.38137 7.30896 9.39297 7.41443C9.40746 7.54702 9.39877 7.60729 9.34949 7.72783C9.31471 7.80618 9.26543 7.89658 9.23934 7.92672C9.20746 7.96288 9.18427 8.06835 9.17268 8.23108C9.14659 8.53845 8.94659 9.20744 8.81035 9.43345C8.75818 9.52084 8.67412 9.66247 8.62774 9.74685C8.57267 9.84328 8.506 9.9156 8.45093 9.93971C8.40165 9.96081 8.36107 9.99395 8.36107 10.012C8.36107 10.0301 8.39585 10.1597 8.43643 10.3013C8.47412 10.443 8.52049 10.6388 8.53499 10.7353C8.54948 10.8347 8.57847 10.9251 8.59876 10.9372C8.61905 10.9522 8.62484 10.9643 8.61035 10.9643C8.59586 10.9643 8.59876 10.9824 8.61615 11.0035C8.63354 11.0246 8.69441 11.1662 8.74948 11.3199C8.82195 11.5158 8.89441 11.6514 9.00456 11.79C9.17847 12.0069 9.35529 12.3234 9.63065 12.9019C9.82486 13.3178 9.86544 13.4414 9.9408 13.9054C9.99877 14.246 9.98428 14.921 9.91182 15.2133C9.86254 15.4302 9.81036 15.9245 9.81036 16.2017C9.81036 16.3252 9.78428 16.6567 9.75529 16.94C9.63935 17.9947 9.63065 18.1062 9.63065 18.5311C9.63065 18.7692 9.64225 19.3236 9.65964 19.7636C9.69152 20.5652 9.72051 20.7852 9.82196 20.9238C9.84805 20.9569 9.86834 20.9961 9.86834 21.0112C9.86834 21.0353 9.47703 21.0172 9.25094 20.981C9.17847 20.969 9.14369 20.975 9.14369 20.9991C9.14369 21.0413 9.34369 21.2944 9.5379 21.4964C9.63935 21.6018 9.70602 21.7013 9.74949 21.8278C9.78428 21.9273 9.83355 22.0388 9.85674 22.0779C9.87993 22.1171 9.89732 22.1834 9.89152 22.2286C9.88863 22.2799 9.95819 22.4667 10.0915 22.7469C10.3785 23.3526 10.5205 23.7474 10.793 24.6906C11.1321 25.8719 11.2568 26.5138 11.2742 27.1617C11.2828 27.5383 11.2857 27.5625 11.3872 27.8035C11.4626 27.9783 11.5031 28.126 11.5205 28.3008C11.5727 28.7769 11.5988 29.3645 11.5756 29.6297C11.5524 29.8828 11.5553 29.916 11.6365 30.1571C11.6829 30.2987 11.7292 30.4915 11.7408 30.5819C11.7524 30.6724 11.7843 30.7959 11.8133 30.8562C11.8423 30.9134 11.8771 31.0762 11.8944 31.2178C11.9089 31.3564 11.9756 31.8777 12.0394 32.3719C12.106 32.8692 12.1669 33.4116 12.1756 33.5773C12.193 33.8576 12.2017 33.8968 12.3002 34.0625C12.4017 34.2373 12.4046 34.2523 12.4075 34.5447C12.4104 34.8822 12.4394 34.9635 12.6655 35.298C12.735 35.3975 12.8249 35.5542 12.8684 35.6446C12.9408 35.7952 12.9466 35.8284 12.9292 36.0393C12.9147 36.2352 12.9176 36.2744 12.964 36.3166C13.0568 36.404 13.6539 36.6963 13.8626 36.7565C13.9727 36.7867 14.0945 36.8319 14.1322 36.853C14.1698 36.8741 14.2829 36.8921 14.3814 36.8921C14.5438 36.8952 14.5872 36.8801 14.9467 36.6902C15.3814 36.4612 15.4945 36.4431 15.7235 36.5577C15.8655 36.633 16.0278 36.862 15.9959 36.9494C15.9757 37.0097 15.3583 37.534 15.0916 37.7208C14.7235 37.977 14.3351 38.1427 13.4481 38.4139C13.1756 38.4953 12.6945 38.661 12.3756 38.7786C12.0568 38.8961 11.7495 38.9955 11.6944 38.9986C11.5988 39.0046 11.593 38.9986 11.5379 38.8419C11.4915 38.7093 11.4886 38.6641 11.5147 38.5887C11.5437 38.5074 11.5408 38.4833 11.4771 38.3868C11.3524 38.2 11.2626 37.9529 11.1553 37.525C11.1002 37.2929 10.9814 36.8741 10.8915 36.5938C10.8046 36.3105 10.6886 35.8856 10.6365 35.6446C10.5872 35.4035 10.5118 35.1383 10.4712 35.0569C10.4307 34.9726 10.3611 34.7918 10.3176 34.6501C10.2741 34.5085 10.193 34.2825 10.1379 34.1469C10.0857 34.0083 10.0104 33.7581 9.96979 33.5894C9.89732 33.2669 9.77558 32.8662 9.59587 32.3388C9.46253 31.9591 9.29731 31.2268 9.25963 30.8682C9.24224 30.7176 9.21615 30.2957 9.20166 29.928C9.17847 29.3404 9.16688 29.25 9.1147 29.1596C9.08282 29.1054 9.05673 29.036 9.05673 29.0059C9.05673 28.9758 9.02485 28.8884 8.98717 28.81C8.94948 28.7317 8.9118 28.6142 8.90021 28.5479C8.88861 28.4816 8.84224 28.3188 8.79296 28.1862C8.7089 27.9542 8.62774 27.8246 8.01324 26.9357C7.90889 26.788 7.71179 26.4535 7.57266 26.1943C7.2857 25.6579 7.31758 25.6489 7.25671 26.2576C7.20743 26.785 7.08859 27.6137 7.01323 27.9753C6.97555 28.1561 6.92337 28.4123 6.90018 28.5388C6.8712 28.7015 6.82482 28.8281 6.74076 28.9697C6.67699 29.0812 6.61033 29.2379 6.59293 29.3223C6.54366 29.5664 6.4654 29.7171 6.29148 29.916C6.0509 30.1872 5.72626 30.4946 5.54365 30.6181C5.19871 30.8562 4.2045 32.0224 3.80449 32.6552C3.55522 33.05 3.43058 33.2338 3.31463 33.3664C3.25666 33.4357 3.1755 33.5743 3.13782 33.6768C3.06536 33.8576 3.06536 33.8666 3.10594 34.0956C3.16681 34.4301 3.10304 35.0178 2.9668 35.3432C2.84506 35.6416 2.73781 35.97 2.73781 36.0514C2.73781 36.1448 2.95811 36.7174 3.05086 36.862C3.14072 37.0006 3.33782 37.1483 3.67406 37.3321C3.83638 37.4225 3.90884 37.4828 3.94363 37.5521C3.96971 37.6063 4.01029 37.6696 4.03348 37.6967C4.06247 37.7329 4.07117 37.8052 4.06537 37.9378C4.05667 38.1247 4.05377 38.1307 3.95232 38.1849C3.76102 38.2814 3.30304 38.3115 2.63347 38.2723C1.63925 38.2151 1.532 38.1518 1.00446 37.317C0.839242 37.0519 0.569674 36.6661 0.410251 36.4582C0.0711164 36.0182 -0.0361309 35.8103 0.0102463 35.6717C0.0276375 35.6235 0.0624208 35.5451 0.0914068 35.4999C0.123291 35.4547 0.160973 35.3854 0.178364 35.3432C0.198654 35.301 0.271119 35.1383 0.340685 34.9816C0.41315 34.8249 0.529093 34.6019 0.604456 34.4874C0.676921 34.3729 0.758081 34.2162 0.787067 34.1409C1.15809 33.0861 1.40447 32.5889 1.88273 31.938C2.09143 31.6547 2.26245 31.3323 2.33201 31.0942C2.45665 30.6543 2.66535 30.3077 3.11753 29.7774C3.46246 29.3735 3.65377 29.1716 3.79 29.0662C3.84797 29.021 3.92913 28.9155 3.96971 28.8341C4.0074 28.7558 4.07117 28.6654 4.10595 28.6322C4.23059 28.5298 4.27986 28.355 4.27986 28.0295C4.27986 27.7222 4.23638 27.4721 4.02189 26.559C3.90595 26.0648 3.90015 25.9955 3.92334 24.4194C3.93203 23.8589 3.89435 23.5274 3.81319 23.4099C3.63058 23.1477 3.52043 22.6565 3.52043 22.1141C3.52043 21.9032 3.53203 21.7224 3.54652 21.7073C3.56101 21.6892 3.60159 21.5235 3.63348 21.3366C3.66826 21.1498 3.70884 20.966 3.72333 20.9268C3.73783 20.8876 3.73783 20.8454 3.72333 20.8304C3.71174 20.8153 3.72623 20.6616 3.75812 20.4868C3.79 20.3121 3.81609 20.1373 3.81609 20.0951C3.81319 20.0529 3.81319 19.9173 3.81029 19.7907C3.80449 19.5195 3.85667 19.0223 3.91174 18.8144C3.93203 18.73 3.95812 18.5944 3.96971 18.513C3.98131 18.4286 4.0074 18.2599 4.03058 18.1363C4.09435 17.8049 4.08856 17.5638 4.0045 17.1419C3.92624 16.7471 3.86826 16.0872 3.86826 15.5779C3.86826 15.4122 3.85087 15.1862 3.82768 15.0716C3.7842 14.8667 3.70594 14.041 3.67696 13.4805C3.66826 13.3148 3.64217 13.1129 3.61899 13.0315C3.57261 12.8567 3.56681 12.471 3.60739 12.3203C3.62478 12.2631 3.65087 12.1064 3.66826 11.9738C3.70304 11.6996 3.81029 11.4374 3.96971 11.2445C4.05667 11.1391 4.45958 10.7654 4.92335 10.3586C5.00741 10.2863 5.37843 10.0241 5.64799 9.84629C5.75234 9.77699 5.76104 9.7589 5.76974 9.6233C5.77553 9.48468 5.77263 9.47865 5.73205 9.53289C5.68858 9.59015 5.68858 9.58714 5.70597 9.49372C5.71466 9.43948 5.71176 9.4003 5.69727 9.40934C5.65959 9.43646 5.6364 9.30387 5.66829 9.2436C5.69147 9.1984 5.68568 9.19237 5.65089 9.20744C5.61901 9.21949 5.62771 9.18936 5.67988 9.108C5.74655 9.00554 5.75524 8.97239 5.73785 8.84281C5.72916 8.76145 5.70597 8.66803 5.69147 8.6379C5.67408 8.60173 5.67408 8.56256 5.69437 8.5264C5.73785 8.44202 5.73205 8.42695 5.66539 8.46311C5.62191 8.48722 5.60742 8.48722 5.60742 8.4601C5.60742 8.43599 5.59582 8.43599 5.56394 8.46311C5.52915 8.49325 5.52046 8.49325 5.52046 8.46311C5.52046 8.44202 5.50307 8.43298 5.48278 8.44202C5.45669 8.45106 5.47118 8.37874 5.52625 8.21601C5.56973 8.08643 5.59292 7.98699 5.57263 7.99904C5.54944 8.01411 5.54655 8.00507 5.56394 7.96288C5.57843 7.93274 5.59292 7.75495 5.59872 7.57414C5.60162 7.39032 5.61321 7.16732 5.62481 7.07692C5.6335 6.98652 5.6393 6.85694 5.6364 6.79064C5.6335 6.63394 5.68858 6.39588 5.74075 6.35067C5.76394 6.3326 5.78133 6.28438 5.78133 6.24219C5.78133 6.09754 5.93206 5.82935 6.13206 5.62443C6.47989 5.2598 7.02772 5.04585 7.46541 5.10611C7.57266 5.11817 7.60454 5.11214 7.61613 5.07598C7.63643 5.02174 7.76686 5.0127 7.87991 5.05489C7.93208 5.07598 7.96107 5.07296 7.98426 5.03982C8.03353 4.97955 8.0915 4.98859 8.12918 5.06091ZM9.41326 5.54608C9.42195 5.57019 9.43065 5.56115 9.43065 5.528C9.43355 5.49485 9.42485 5.47677 9.41616 5.48882C9.40746 5.49786 9.40456 5.52499 9.41326 5.54608ZM5.6451 7.62537C5.65379 7.64647 5.65959 7.6314 5.65959 7.58921C5.65959 7.54702 5.65379 7.53195 5.6451 7.55003C5.6393 7.57113 5.6393 7.60729 5.6451 7.62537Z" fill="#0075FF"/>
</svg>
