<svg width="232" height="38" viewBox="0 0 232 38" fill="none" xmlns="http://www.w3.org/2000/svg">
<path fill-rule="evenodd" clip-rule="evenodd" d="M8.20165 0.0922184C8.17266 0.12063 8.15527 0.11116 8.12918 0.0638074C8.0915 -0.0119564 8.03353 -0.0214269 7.98426 0.0417131C7.96107 0.0764416 7.93208 0.0795949 7.87991 0.0574902C7.76686 0.0133016 7.63643 0.0227721 7.61614 0.079595C7.60454 0.117477 7.57266 0.123794 7.46541 0.11116C7.02772 0.0480196 6.47989 0.272168 6.13206 0.654162C5.93206 0.86884 5.78133 1.1498 5.78133 1.30134C5.78133 1.34554 5.76394 1.39604 5.74075 1.41498C5.68858 1.46235 5.6335 1.71174 5.6364 1.87591C5.6393 1.94536 5.6335 2.08111 5.62481 2.17582C5.61321 2.27052 5.60162 2.50414 5.59872 2.69672C5.59292 2.88614 5.57843 3.07239 5.56394 3.10397C5.54654 3.14817 5.54944 3.15764 5.57263 3.14185C5.59292 3.12922 5.56973 3.2334 5.52625 3.36915C5.47118 3.53963 5.45669 3.61539 5.48278 3.60592C5.50307 3.59645 5.52046 3.60592 5.52046 3.62802C5.52046 3.65959 5.52915 3.65959 5.56394 3.62802C5.59582 3.59961 5.60742 3.59961 5.60742 3.62486C5.60742 3.65328 5.62191 3.65328 5.66539 3.62802C5.73205 3.59014 5.73785 3.60592 5.69437 3.69432C5.67408 3.7322 5.67408 3.77324 5.69147 3.81112C5.70597 3.84269 5.72916 3.94056 5.73785 4.0258C5.75524 4.16155 5.74655 4.19628 5.67988 4.30362C5.62771 4.38885 5.61901 4.42042 5.65089 4.40779C5.68568 4.392 5.69147 4.39832 5.66829 4.44567C5.6364 4.50881 5.65959 4.64772 5.69727 4.61931C5.71176 4.60983 5.71466 4.65088 5.70597 4.7077C5.68858 4.80557 5.68858 4.80873 5.73205 4.74874C5.77263 4.69192 5.77553 4.69823 5.76974 4.84345C5.76104 4.98551 5.75234 5.00445 5.648 5.07706C5.37843 5.26334 5.00741 5.53802 4.92335 5.61377C4.45958 6.03994 4.05667 6.43144 3.96971 6.54185C3.81029 6.74394 3.70304 7.01863 3.66826 7.30588C3.65087 7.4448 3.62478 7.60896 3.60739 7.66888C3.56681 7.82676 3.57261 8.23083 3.61899 8.41395C3.64217 8.49923 3.66826 8.71074 3.67696 8.88433C3.70594 9.47152 3.7842 10.3365 3.82768 10.5512C3.85087 10.6713 3.86826 10.908 3.86826 11.0816C3.86826 11.6152 3.92624 12.3065 4.0045 12.7201C4.08856 13.1621 4.09435 13.4147 4.03058 13.7618C4.0074 13.8913 3.98131 14.0681 3.96971 14.1565C3.95812 14.2418 3.93203 14.3838 3.91174 14.4722C3.85667 14.69 3.80449 15.2109 3.81029 15.495C3.81152 15.5513 3.81223 15.6092 3.81286 15.6606C3.81371 15.7305 3.81442 15.7884 3.81609 15.8139C3.81609 15.8581 3.79 16.0412 3.75812 16.2243C3.72623 16.4074 3.71174 16.5684 3.72333 16.5842C3.73783 16.5999 3.73783 16.6441 3.72333 16.6852C3.70884 16.7263 3.66826 16.9188 3.63348 17.1145C3.60159 17.3103 3.56101 17.4839 3.54652 17.5029C3.53203 17.5187 3.52043 17.7081 3.52043 17.9291C3.52043 18.4973 3.63058 19.0119 3.81319 19.2866C3.89435 19.4097 3.93203 19.7569 3.92334 20.3441C3.90015 21.9953 3.90595 22.0679 4.02189 22.5856C4.23638 23.5422 4.27986 23.8042 4.27986 24.1261C4.27986 24.4671 4.23059 24.6503 4.10595 24.7575C4.07116 24.7923 4.0074 24.887 3.96971 24.9691C3.92913 25.0543 3.84797 25.1649 3.79 25.2122C3.65377 25.3226 3.46246 25.5341 3.11753 25.9573C2.66535 26.5128 2.45665 26.8759 2.33201 27.3368C2.26245 27.5862 2.09143 27.924 1.88273 28.2208C1.40447 28.9027 1.15809 29.4235 0.787067 30.5286C0.758081 30.6074 0.676921 30.7716 0.604456 30.8916C0.529093 31.0115 0.41315 31.2451 0.340685 31.4093C0.271119 31.5735 0.198654 31.7439 0.178364 31.7881C0.160973 31.8323 0.123291 31.9049 0.0914062 31.9523C0.0624203 31.9996 0.0276373 32.0818 0.0102458 32.1323C-0.0361316 32.2775 0.0711161 32.4953 0.410251 32.9562C0.569673 33.174 0.839242 33.5782 1.00446 33.8559C1.532 34.7305 1.63925 34.7968 2.63347 34.8567C3.30304 34.8978 3.76102 34.8662 3.95232 34.7651C4.05377 34.7083 4.05667 34.7021 4.06537 34.5063C4.07116 34.3674 4.06247 34.2916 4.03348 34.2537C4.01029 34.2253 3.96971 34.159 3.94363 34.1022C3.90884 34.0296 3.83638 33.9664 3.67406 33.8717C3.33782 33.6792 3.14072 33.5244 3.05086 33.3792C2.95811 33.2277 2.73782 32.6279 2.73782 32.53C2.73782 32.4448 2.84506 32.1007 2.9668 31.7881C3.10304 31.4472 3.16681 30.8315 3.10594 30.4811C3.06536 30.2412 3.06536 30.2318 3.13782 30.0424C3.1755 29.935 3.25666 29.7898 3.31463 29.7172C3.43058 29.5783 3.55522 29.3857 3.80449 28.9721C4.2045 28.3092 5.19871 27.0874 5.54365 26.838C5.72626 26.7086 6.0509 26.3866 6.29148 26.1025C6.4654 25.8941 6.54366 25.7362 6.59293 25.4805C6.61033 25.3921 6.67699 25.2279 6.74076 25.1111C6.82482 24.9628 6.8712 24.8301 6.90018 24.6597C6.92337 24.5272 6.97555 24.2588 7.01323 24.0694C7.08859 23.6905 7.20743 22.8224 7.25671 22.2699C7.28718 21.9506 7.29441 21.7936 7.33004 21.7868C7.36557 21.7801 7.42937 21.9229 7.57266 22.2035C7.71179 22.4751 7.90889 22.8255 8.01324 22.9803C8.62774 23.9115 8.7089 24.0473 8.79296 24.2903C8.84224 24.4292 8.88861 24.5998 8.90021 24.6692C8.9118 24.7387 8.94948 24.8618 8.98717 24.9438C9.02485 25.0259 9.05673 25.1175 9.05673 25.149C9.05673 25.1806 9.08282 25.2533 9.1147 25.3101C9.16688 25.4048 9.17847 25.4995 9.20166 26.115C9.21615 26.5003 9.24224 26.9422 9.25963 27.1C9.29731 27.4757 9.46253 28.2429 9.59587 28.6406C9.77558 29.1932 9.89732 29.6129 9.96979 29.9508C10.0104 30.1275 10.0857 30.3896 10.1379 30.5348C10.193 30.6769 10.2741 30.9137 10.3176 31.062C10.3611 31.2105 10.4307 31.3999 10.4712 31.4882C10.5118 31.5735 10.5872 31.8513 10.6365 32.1039C10.6886 32.3563 10.8046 32.8015 10.8915 33.0983C10.9814 33.3919 11.1002 33.8307 11.1553 34.0738C11.2626 34.5221 11.3524 34.7809 11.4771 34.9766C11.5408 35.0777 11.5437 35.103 11.5147 35.1882C11.4886 35.2672 11.4915 35.3145 11.5379 35.4534C11.593 35.6176 11.5988 35.6239 11.6944 35.6176C11.7495 35.6143 12.0568 35.5102 12.3756 35.3871C12.6945 35.2639 13.1756 35.0903 13.4481 35.005C14.3351 34.7209 14.7235 34.5473 15.0916 34.2789C15.3583 34.0832 15.9757 33.534 15.9959 33.4708C16.0278 33.3792 15.8655 33.1393 15.7235 33.0604C15.4945 32.9404 15.3814 32.9594 14.9467 33.1993C14.5872 33.3982 14.5438 33.414 14.3814 33.4108C14.2829 33.4108 14.1698 33.3919 14.1322 33.3698C14.0945 33.3477 13.9727 33.3004 13.8626 33.2687C13.6539 33.2056 13.0568 32.8994 12.964 32.8079C12.9176 32.7637 12.9147 32.7226 12.9292 32.5174C12.9466 32.2964 12.9408 32.2616 12.8684 32.1039C12.8249 32.0092 12.735 31.845 12.6655 31.7408C12.4394 31.3903 12.4104 31.3052 12.4075 30.9516C12.4046 30.6453 12.4017 30.6296 12.3002 30.4464C12.2017 30.2728 12.193 30.2318 12.1756 29.9381C12.1669 29.7645 12.106 29.1963 12.0394 28.6753C11.9756 28.1576 11.9089 27.6115 11.8944 27.4663C11.8771 27.3179 11.8423 27.1474 11.8133 27.0874C11.7843 27.0243 11.7524 26.8949 11.7408 26.8001C11.7292 26.7054 11.6829 26.5034 11.6365 26.3551C11.5553 26.1025 11.5524 26.0677 11.5756 25.8025C11.5988 25.5247 11.5727 24.9091 11.5205 24.4104C11.5031 24.2272 11.4626 24.0725 11.3872 23.8894C11.2857 23.6369 11.2828 23.6115 11.2742 23.217C11.2568 22.5383 11.1321 21.8658 10.793 20.6282C10.5205 19.6401 10.3785 19.2265 10.0915 18.592C9.95819 18.2984 9.88863 18.1027 9.89152 18.049C9.89732 18.0017 9.87993 17.9322 9.85674 17.8912C9.83355 17.8502 9.78428 17.7334 9.74949 17.6291C9.70602 17.4966 9.63935 17.3924 9.5379 17.2819C9.34369 17.0703 9.14369 16.8052 9.14369 16.761C9.14369 16.7357 9.17847 16.7294 9.25094 16.742C9.47703 16.7799 9.86834 16.7989 9.86834 16.7736C9.86834 16.7578 9.84805 16.7167 9.82196 16.6821C9.72051 16.5369 9.69152 16.3064 9.65964 15.4666C9.64225 15.0057 9.63065 14.4249 9.63065 14.1754C9.63065 13.7303 9.63935 13.6135 9.75529 12.5086C9.78428 12.2118 9.81036 11.8645 9.81036 11.7351C9.81036 11.4447 9.86254 10.9269 9.91182 10.6996C9.98428 10.3934 9.99877 9.68628 9.9408 9.32946C9.86544 8.84337 9.82486 8.71388 9.63065 8.27818C9.35529 7.67213 9.17847 7.34056 9.00456 7.11333C8.89441 6.96813 8.82195 6.82607 8.74948 6.62084C8.69441 6.45983 8.63354 6.31148 8.61615 6.28938C8.59876 6.26727 8.59586 6.24831 8.61035 6.24831C8.62484 6.24831 8.61905 6.23563 8.59876 6.21992C8.57847 6.20724 8.54948 6.11254 8.53499 6.00841C8.52049 5.90731 8.47412 5.70219 8.43643 5.55374C8.39585 5.4054 8.36107 5.26963 8.36107 5.25066C8.36107 5.23175 8.40165 5.19704 8.45093 5.17493C8.506 5.14967 8.57267 5.07391 8.62774 4.97289C8.67412 4.88449 8.75818 4.73611 8.81035 4.64456C8.94659 4.40779 9.14659 3.70694 9.17268 3.38494C9.18427 3.21446 9.20746 3.10397 9.23934 3.06608C9.26543 3.03451 9.31471 2.9398 9.34949 2.85772C9.39877 2.73144 9.40746 2.6683 9.39297 2.5294C9.38137 2.41891 9.38717 2.34313 9.40746 2.31472C9.43355 2.27999 9.43065 2.2579 9.40166 2.2137C9.38137 2.18529 9.37558 2.17266 9.39007 2.18529C9.41616 2.21055 9.48862 1.96746 9.49152 1.84434C9.49152 1.80961 9.5234 1.69596 9.56398 1.59178C9.60167 1.48759 9.63645 1.3708 9.63645 1.33607C9.63645 1.29819 9.65674 1.25082 9.67993 1.22873C9.72341 1.19085 9.83935 0.944604 9.83935 0.897251C9.83935 0.884617 9.82196 0.830947 9.79877 0.777278C9.78206 0.73634 9.76536 0.68885 9.75299 0.65369C9.74819 0.640047 9.74404 0.62826 9.7408 0.619433C9.72341 0.56261 9.59877 0.493153 9.51181 0.496317C9.48572 0.496317 9.46253 0.486846 9.46253 0.474212C9.46253 0.458424 9.43645 0.411072 9.40166 0.363719C9.35239 0.294262 9.3321 0.287956 9.28282 0.316367C9.24514 0.338462 9.23065 0.338462 9.24224 0.316367C9.27123 0.269015 9.17268 0.221652 9.02485 0.215345C8.95528 0.209028 8.87702 0.196404 8.85383 0.186934C8.7176 0.117477 8.61035 0.0953825 8.56107 0.126947C8.52339 0.149052 8.48571 0.145888 8.44513 0.12063C8.41035 0.101689 8.35817 0.0922188 8.32919 0.101689C8.3002 0.11116 8.26542 0.104853 8.25672 0.0890653C8.24513 0.0701244 8.22484 0.0701241 8.20165 0.0922184ZM9.43065 0.553139C9.43065 0.587868 9.42195 0.597339 9.41326 0.572081C9.40456 0.549986 9.40746 0.521564 9.41616 0.512094C9.42485 0.49947 9.43355 0.518411 9.43065 0.553139ZM5.65959 2.7125C5.65959 2.7567 5.65379 2.77248 5.6451 2.75038C5.6393 2.73144 5.6393 2.69356 5.6451 2.67146C5.65379 2.65252 5.65959 2.6683 5.65959 2.7125ZM29.9179 29.9848C30.1699 30.2488 30.5479 30.3808 31.0519 30.3808C31.5439 30.3808 31.9159 30.2425 32.1679 29.966C32.4319 29.6894 32.5639 29.2997 32.5639 28.7968V8.01625H39.5479C40.0519 8.01625 40.4299 7.88425 40.6819 7.62025C40.9339 7.35625 41.0599 6.96025 41.0599 6.43225C41.0599 5.90425 40.9339 5.50825 40.6819 5.24425C40.4299 4.98025 40.0519 4.84825 39.5479 4.84825H22.5559C22.0519 4.84825 21.6739 4.98025 21.4219 5.24425C21.1699 5.50825 21.0439 5.90425 21.0439 6.43225C21.0439 6.96025 21.1699 7.35625 21.4219 7.62025C21.6739 7.88425 22.0519 8.01625 22.5559 8.01625H29.5399V28.7968C29.5399 29.3248 29.6659 29.7208 29.9179 29.9848ZM44.0445 23.0265V22.1214H56.5725C57.5805 22.1214 58.0845 21.5934 58.0845 20.5374V18.6517C58.0845 16.1248 57.5085 14.2643 56.3565 13.07C55.2045 11.8631 53.4285 11.2597 51.0285 11.2597H48.0765C45.6885 11.2345 43.9125 11.8254 42.7485 13.0323C41.5965 14.2265 41.0205 16.0997 41.0205 18.6517V23.0265C41.0205 25.5157 41.5965 27.3637 42.7485 28.5705C43.9125 29.7774 45.6885 30.3808 48.0765 30.3808H51.0285C53.0685 30.3808 54.6645 29.9974 55.8165 29.2305C56.9685 28.4637 57.6765 27.3008 57.9405 25.742C58.0365 25.214 57.9525 24.8117 57.6885 24.5351C57.4245 24.2585 57.0405 24.1203 56.5365 24.1203C56.0565 24.1203 55.6965 24.246 55.4565 24.4974C55.2285 24.7488 55.0485 25.1134 54.9165 25.5911C54.7245 26.1945 54.3345 26.6157 53.7465 26.8545C53.1585 27.0934 52.2525 27.2128 51.0285 27.2128H48.0765C46.5165 27.2128 45.4545 26.9237 44.8905 26.3454C44.3265 25.7545 44.0445 24.6483 44.0445 23.0265ZM44.8905 15.2763C45.4545 14.6854 46.5165 14.4025 48.0765 14.4277H51.0285C52.6005 14.4277 53.6625 14.7231 54.2145 15.314C54.7785 15.8923 55.0605 17.0048 55.0605 18.6517V18.9534H44.0445V18.6517C44.0445 16.9923 44.3265 15.8671 44.8905 15.2763ZM66.0329 28.9665C66.9329 29.9094 68.3009 30.3808 70.1369 30.3808C71.2049 30.3808 71.7209 29.8528 71.6849 28.7968C71.6849 27.7408 71.1689 27.2128 70.1369 27.2128C69.1649 27.2128 68.5169 27.0431 68.1929 26.7037C67.8809 26.3517 67.7249 25.6665 67.7249 24.6483V5.41397C67.7249 4.35797 67.2209 3.82997 66.2129 3.82997C65.2049 3.82997 64.7009 4.35797 64.7009 5.41397V24.6483C64.7009 26.5717 65.1449 28.0111 66.0329 28.9665ZM78.3728 28.9665C79.2728 29.9094 80.6408 30.3808 82.4768 30.3808C83.5448 30.3808 84.0608 29.8528 84.0248 28.7968C84.0248 27.7408 83.5088 27.2128 82.4768 27.2128C81.5048 27.2128 80.8568 27.0431 80.5328 26.7037C80.2208 26.3517 80.0648 25.6665 80.0648 24.6483V5.41397C80.0648 4.35797 79.5608 3.82997 78.5528 3.82997C77.5448 3.82997 77.0408 4.35797 77.0408 5.41397V24.6483C77.0408 26.5717 77.4848 28.0111 78.3728 28.9665ZM101.565 28.5705C102.729 29.7774 104.505 30.3808 106.893 30.3808H109.845C112.245 30.3808 114.021 29.7774 115.173 28.5705C116.325 27.3511 116.901 25.4905 116.901 22.9888V18.6517C116.901 16.1374 116.325 14.2768 115.173 13.07C114.021 11.8631 112.245 11.2597 109.845 11.2597H106.893C104.505 11.2597 102.729 11.8631 101.565 13.07C100.413 14.2643 99.8369 16.1248 99.8369 18.6517V23.0265C99.8369 25.5157 100.413 27.3637 101.565 28.5705ZM103.707 26.3454C103.143 25.7545 102.861 24.6483 102.861 23.0265V18.6517C102.861 17.5454 102.981 16.6905 103.221 16.0871C103.461 15.4711 103.869 15.0437 104.445 14.8048C105.033 14.5534 105.849 14.4277 106.893 14.4277H109.845C111.417 14.4277 112.479 14.7231 113.031 15.314C113.595 15.8923 113.877 17.0048 113.877 18.6517V22.9888C113.877 24.6231 113.595 25.7357 113.031 26.3265C112.479 26.9174 111.417 27.2128 109.845 27.2128H106.893C105.333 27.2128 104.271 26.9237 103.707 26.3454ZM123.517 36.3397C123.517 37.3957 124.021 37.9237 125.029 37.9237C126.037 37.9237 126.541 37.3957 126.541 36.3397V30.3808H133.525C135.925 30.3808 137.701 29.7774 138.853 28.5705C140.005 27.3511 140.581 25.4905 140.581 22.9888V18.6517C140.581 16.1374 140.005 14.2768 138.853 13.07C137.701 11.8631 135.925 11.2597 133.525 11.2597H132.157C130.969 11.2597 129.895 11.4357 128.935 11.7877C127.987 12.1271 127.189 12.6363 126.541 13.3151V12.8437C126.541 11.7877 126.037 11.2597 125.029 11.2597C124.021 11.2597 123.517 11.7877 123.517 12.8437V36.3397ZM133.525 27.2128H126.541V16.7848C126.601 15.9677 127.177 15.3705 128.269 14.9934C129.361 14.6163 130.657 14.4277 132.157 14.4277H133.525C135.097 14.4277 136.159 14.7231 136.711 15.314C137.275 15.8923 137.557 17.0048 137.557 18.6517V22.9888C137.557 24.6231 137.275 25.7357 136.711 26.3265C136.159 26.9174 135.097 27.2128 133.525 27.2128ZM146.511 6.35682C146.511 7.56368 147.081 8.16711 148.221 8.16711H149.265C150.357 8.16711 150.903 7.56368 150.903 6.35682V5.24425C150.903 4.06254 150.357 3.47168 149.265 3.47168H148.221C147.081 3.47168 146.511 4.06254 146.511 5.24425V6.35682ZM147.213 28.7968C147.213 29.8528 147.717 30.3808 148.725 30.3808C149.733 30.3808 150.237 29.8528 150.237 28.7968V12.8437C150.237 11.7877 149.733 11.2597 148.725 11.2597C147.717 11.2597 147.213 11.7877 147.213 12.8437V28.7968ZM157.724 28.7968C157.724 29.8528 158.228 30.3808 159.236 30.3808C160.244 30.3808 160.748 29.8528 160.748 28.7968V16.5774C160.916 15.8357 161.534 15.2951 162.602 14.9557C163.67 14.6037 164.924 14.4277 166.364 14.4277H167.372C168.92 14.4277 169.976 14.7231 170.54 15.314C171.116 15.8923 171.404 17.0048 171.404 18.6517V28.7968C171.404 29.8528 171.908 30.3808 172.916 30.3808C173.924 30.3808 174.428 29.8528 174.428 28.7968V18.6517C174.428 16.1374 173.852 14.2768 172.7 13.07C171.548 11.8631 169.772 11.2597 167.372 11.2597H166.364C163.892 11.2597 162.02 11.9951 160.748 13.466V12.8437C160.748 11.7877 160.244 11.2597 159.236 11.2597C158.228 11.2597 157.724 11.7877 157.724 12.8437V28.7968ZM180.858 6.35682C180.858 7.56368 181.428 8.16711 182.568 8.16711H183.612C184.704 8.16711 185.25 7.56368 185.25 6.35682V5.24425C185.25 4.06254 184.704 3.47168 183.612 3.47168H182.568C181.428 3.47168 180.858 4.06254 180.858 5.24425V6.35682ZM181.56 28.7968C181.56 29.8528 182.064 30.3808 183.072 30.3808C184.08 30.3808 184.584 29.8528 184.584 28.7968V12.8437C184.584 11.7877 184.08 11.2597 183.072 11.2597C182.064 11.2597 181.56 11.7877 181.56 12.8437V28.7968ZM192.936 28.5705C194.1 29.7774 195.876 30.3808 198.264 30.3808H201.216C203.616 30.3808 205.392 29.7774 206.544 28.5705C207.696 27.3511 208.272 25.4905 208.272 22.9888V18.6517C208.272 16.1374 207.696 14.2768 206.544 13.07C205.392 11.8631 203.616 11.2597 201.216 11.2597H198.264C195.876 11.2597 194.1 11.8631 192.936 13.07C191.784 14.2643 191.208 16.1248 191.208 18.6517V23.0265C191.208 25.5157 191.784 27.3637 192.936 28.5705ZM195.078 26.3454C194.514 25.7545 194.232 24.6483 194.232 23.0265V18.6517C194.232 17.5454 194.352 16.6905 194.592 16.0871C194.832 15.4711 195.24 15.0437 195.816 14.8048C196.404 14.5534 197.22 14.4277 198.264 14.4277H201.216C202.788 14.4277 203.85 14.7231 204.402 15.314C204.966 15.8923 205.248 17.0048 205.248 18.6517V22.9888C205.248 24.6231 204.966 25.7357 204.402 26.3265C203.85 26.9174 202.788 27.2128 201.216 27.2128H198.264C196.704 27.2128 195.642 26.9237 195.078 26.3454ZM214.889 28.7968C214.889 29.8528 215.393 30.3808 216.401 30.3808C217.409 30.3808 217.913 29.8528 217.913 28.7968V16.5774C218.081 15.8357 218.699 15.2951 219.767 14.9557C220.835 14.6037 222.089 14.4277 223.529 14.4277H224.537C226.085 14.4277 227.141 14.7231 227.705 15.314C228.281 15.8923 228.569 17.0048 228.569 18.6517V28.7968C228.569 29.8528 229.073 30.3808 230.081 30.3808C231.089 30.3808 231.593 29.8528 231.593 28.7968V18.6517C231.593 16.1374 231.017 14.2768 229.865 13.07C228.713 11.8631 226.937 11.2597 224.537 11.2597H223.529C221.057 11.2597 219.185 11.9951 217.913 13.466V12.8437C217.913 11.7877 217.409 11.2597 216.401 11.2597C215.393 11.2597 214.889 11.7877 214.889 12.8437V28.7968Z" fill="#0075FF"/>
</svg>
