<svg width="20" height="20" viewBox="0 0 20 20" fill="none" xmlns="http://www.w3.org/2000/svg">
<path d="M12.6643 0.000116165C10.8345 -0.00304308 9.07005 0.679339 7.71854 1.91257C6.36679 3.1458 5.52569 4.84046 5.36142 6.66299C5.19696 8.48534 5.72101 10.3032 6.83006 11.7587L0.311553 18.2764C0.11587 18.4619 0.00362488 18.7186 9.49341e-05 18.988C-0.00362174 19.2575 0.101931 19.5169 0.29241 19.7076C0.483074 19.8981 0.742496 20.0036 1.01196 19.9999C1.28142 19.9964 1.53807 19.8841 1.72351 19.6884L8.24201 13.1712C10.1226 14.5969 12.5745 15.0299 14.83 14.3345C17.085 13.6391 18.8674 11.9006 19.6187 9.66327C20.3698 7.42617 19.998 4.96399 18.6197 3.04849C17.2411 1.13285 15.0247 -0.00166328 12.6649 1.83035e-06L12.6643 0.000116165ZM12.6643 12.6711C11.2491 12.671 9.89183 12.1086 8.89127 11.1079C7.89056 10.107 7.32839 8.74981 7.32858 7.33446C7.32858 5.91931 7.8909 4.56195 8.8916 3.56122C9.8925 2.56068 11.2496 1.99849 12.6649 1.99849C14.08 1.99849 15.4374 2.56082 16.4381 3.56155C17.4388 4.56229 18.0009 5.91945 18.0009 7.33479C17.9995 8.74976 17.4368 10.1064 16.4362 11.1068C15.4357 12.1073 14.0791 12.6698 12.6642 12.6711H12.6643Z" fill="#0075FF"/>
</svg>
