<svg width="22" height="21" viewBox="0 0 22 21" fill="none" xmlns="http://www.w3.org/2000/svg">
<path d="M19.6004 5.12571C19.6137 5.34909 19.6137 5.57248 19.6137 5.79792C19.6137 12.6672 15.1073 20.5895 6.86702 20.5895V20.5854C4.43282 20.5895 2.04919 19.7804 0 18.2548C0.353952 18.3042 0.709677 18.3289 1.06629 18.33C3.08355 18.332 5.04314 17.5466 6.63016 16.1003C4.71314 16.0581 3.0321 14.6076 2.44484 12.4901C3.11637 12.6404 3.80831 12.6095 4.46742 12.4006C2.37742 11.9106 0.87379 9.77968 0.87379 7.30498C0.87379 7.28233 0.87379 7.26071 0.87379 7.23909C1.49653 7.64159 2.19379 7.86498 2.90702 7.88968C0.938548 6.36306 0.331774 3.32424 1.52048 0.948358C3.795 4.19615 7.15089 6.17056 10.7534 6.37954C10.3923 4.57395 10.8856 2.68189 12.0494 1.41262C13.8538 -0.555612 16.6916 -0.45473 18.3877 1.63806C19.391 1.40851 20.3527 0.9813 21.2327 0.376005C20.8982 1.57939 20.1983 2.60159 19.2633 3.25115C20.1513 3.12968 21.0189 2.8538 21.8359 2.43277C21.2344 3.47865 20.4769 4.38968 19.6004 5.12571Z" fill="url(#paint0_linear_70_219)"/>
<defs>
<linearGradient id="paint0_linear_70_219" x1="6.9126" y1="12.8457" x2="20.9126" y2="-2.1543" gradientUnits="userSpaceOnUse">
<stop stop-color="#0075FF"/>
<stop offset="1" stop-color="#95C6FF"/>
</linearGradient>
</defs>
</svg>
