<svg width="622" height="71" viewBox="0 0 622 71" fill="none" xmlns="http://www.w3.org/2000/svg">
<line y1="69.6172" x2="621.771" y2="69.6172" stroke="url(#paint0_linear_418_785)" stroke-opacity="0.36"/>
<line y1="53.7412" x2="621.771" y2="53.7412" stroke="url(#paint1_linear_418_785)" stroke-opacity="0.36"/>
<line y1="42.1006" x2="621.771" y2="42.1006" stroke="url(#paint2_linear_418_785)" stroke-opacity="0.36"/>
<line y1="10.8789" x2="621.771" y2="10.8789" stroke="url(#paint3_linear_418_785)" stroke-opacity="0.36"/>
<path d="M498.078 42.3379L467.651 70.1191" stroke="black" stroke-opacity="0.23"/>
<path d="M470.297 42.3379L439.87 70.1191" stroke="black" stroke-opacity="0.23"/>
<path d="M443.178 42.3379L412.75 70.1191" stroke="black" stroke-opacity="0.23"/>
<path d="M412.75 42.3379L382.323 70.1191" stroke="black" stroke-opacity="0.23"/>
<path d="M242.756 42.3379L212.329 70.1191" stroke="black" stroke-opacity="0.23"/>
<path d="M215.636 42.3379L185.208 70.1191" stroke="black" stroke-opacity="0.23"/>
<path d="M185.209 42.3379L154.782 70.1191" stroke="black" stroke-opacity="0.23"/>
<path d="M142.875 42.3379L112.448 70.1191" stroke="black" stroke-opacity="0.23"/>
<path d="M188.472 0.0791626C188.508 0.138073 188.531 0.149857 188.57 0.11451C188.602 0.0870171 188.629 0.0870171 188.645 0.11058C188.657 0.130219 188.704 0.138073 188.743 0.126289C188.783 0.11451 188.853 0.126289 188.9 0.149857C188.955 0.181274 189.006 0.185204 189.057 0.157711C189.124 0.118435 189.27 0.145927 189.454 0.23233C189.486 0.244114 189.592 0.259823 189.686 0.267677C189.886 0.275532 190.02 0.334442 189.98 0.393356C189.965 0.420845 189.984 0.420845 190.035 0.393356C190.102 0.358009 190.13 0.365864 190.196 0.452267C190.244 0.511177 190.279 0.570087 190.279 0.589725C190.279 0.605434 190.31 0.617218 190.346 0.617218C190.463 0.613289 190.632 0.699692 190.656 0.770386C190.672 0.809662 190.703 0.896065 190.734 0.966755C190.766 1.03352 190.789 1.10029 190.789 1.116C190.789 1.17491 190.632 1.48125 190.573 1.52838C190.542 1.55587 190.514 1.61478 190.514 1.66191C190.514 1.70511 190.467 1.85042 190.416 1.98003C190.361 2.10963 190.318 2.25102 190.318 2.29422C190.314 2.44739 190.216 2.7498 190.181 2.71838C190.161 2.70267 190.169 2.71838 190.196 2.75373C190.236 2.80871 190.24 2.8362 190.204 2.87941C190.177 2.91475 190.169 3.00901 190.185 3.14647C190.204 3.31927 190.192 3.39782 190.126 3.55492C190.079 3.65703 190.012 3.77485 189.976 3.81413C189.933 3.86126 189.902 3.99871 189.886 4.2108C189.851 4.61139 189.58 5.48328 189.395 5.77783C189.324 5.89173 189.211 6.07632 189.148 6.18628C189.073 6.31196 188.983 6.40622 188.908 6.43764C188.841 6.46513 188.786 6.50833 188.786 6.53189C188.786 6.55546 188.834 6.72434 188.889 6.90893C188.94 7.09351 189.002 7.3488 189.022 7.47447C189.042 7.60408 189.081 7.7219 189.108 7.73761C189.136 7.75725 189.144 7.77296 189.124 7.77296C189.105 7.77296 189.108 7.79652 189.132 7.82401C189.156 7.85151 189.238 8.03609 189.313 8.23639C189.411 8.49167 189.509 8.66841 189.658 8.84907C189.894 9.13184 190.134 9.54422 190.507 10.2983C190.77 10.8403 190.825 11.0013 190.927 11.6061C191.005 12.0499 190.986 12.9296 190.888 13.3106C190.821 13.5934 190.75 14.2375 190.75 14.5988C190.75 14.7598 190.715 15.1918 190.676 15.561C190.518 16.9356 190.507 17.0809 190.507 17.6347C190.507 17.9449 190.522 18.6676 190.546 19.241C190.589 20.2857 190.628 20.5724 190.766 20.753C190.801 20.7962 190.829 20.8473 190.829 20.8669C190.829 20.8984 190.298 20.8748 189.992 20.8277C189.894 20.812 189.847 20.8198 189.847 20.8512C189.847 20.9062 190.118 21.2361 190.381 21.4993C190.518 21.6367 190.609 21.7663 190.668 21.9313C190.715 22.0609 190.782 22.2062 190.813 22.2572C190.844 22.3083 190.868 22.3947 190.86 22.4536C190.856 22.5204 190.95 22.7639 191.131 23.1291C191.52 23.9185 191.712 24.433 192.082 25.6623C192.541 27.2018 192.71 28.0384 192.733 28.8828C192.745 29.3737 192.749 29.4051 192.887 29.7193C192.989 29.9471 193.044 30.1396 193.067 30.3673C193.138 30.9879 193.173 31.7537 193.142 32.0993C193.111 32.4292 193.114 32.4724 193.224 32.7866C193.287 32.9712 193.35 33.2226 193.366 33.3404C193.382 33.4582 193.425 33.6192 193.464 33.6978C193.503 33.7724 193.55 33.9845 193.574 34.1691C193.594 34.3497 193.684 35.0292 193.77 35.6733C193.861 36.3213 193.943 37.0282 193.955 37.2442C193.978 37.6095 193.99 37.6605 194.124 37.8765C194.261 38.1043 194.265 38.124 194.269 38.5049C194.273 38.9448 194.312 39.0508 194.619 39.4868C194.713 39.6164 194.835 39.8206 194.894 39.9384C194.992 40.1348 195 40.178 194.976 40.4529C194.956 40.7082 194.96 40.7593 195.023 40.8142C195.149 40.9281 195.958 41.3091 196.241 41.3877C196.39 41.4269 196.555 41.4858 196.606 41.5133C196.657 41.5408 196.81 41.5644 196.944 41.5644C197.164 41.5683 197.223 41.5487 197.71 41.3012C198.299 41.0028 198.452 40.9792 198.762 41.1284C198.954 41.2266 199.174 41.5251 199.131 41.639C199.104 41.7176 198.267 42.4009 197.906 42.6444C197.407 42.9783 196.881 43.1943 195.679 43.5477C195.31 43.6538 194.658 43.8698 194.226 44.0229C193.794 44.1761 193.378 44.3057 193.303 44.3096C193.173 44.3175 193.165 44.3096 193.091 44.1054C193.028 43.9326 193.024 43.8737 193.059 43.7755C193.099 43.6695 193.095 43.6381 193.008 43.5124C192.84 43.2689 192.718 42.9468 192.572 42.3891C192.498 42.0867 192.337 41.5408 192.215 41.1756C192.097 40.8064 191.94 40.2526 191.869 39.9384C191.803 39.6242 191.701 39.2786 191.646 39.1726C191.591 39.0626 191.496 38.827 191.437 38.6424C191.379 38.4578 191.269 38.1632 191.194 37.9865C191.123 37.8059 191.021 37.4799 190.966 37.2599C190.868 36.8397 190.703 36.3174 190.46 35.6301C190.279 35.1352 190.055 34.1809 190.004 33.7135C189.98 33.5171 189.945 32.9673 189.925 32.4881C189.894 31.7223 189.878 31.6045 189.808 31.4867C189.764 31.416 189.729 31.3256 189.729 31.2864C189.729 31.2471 189.686 31.1332 189.635 31.0311C189.584 30.929 189.533 30.7758 189.517 30.6894C189.501 30.603 189.438 30.3909 189.372 30.2181C189.258 29.9157 189.148 29.7468 188.315 28.5882C188.174 28.3958 187.907 27.9598 187.718 27.6221C187.329 26.923 187.373 26.9112 187.29 27.7046C187.223 28.3919 187.062 29.4719 186.96 29.9432C186.909 30.1788 186.838 30.5127 186.807 30.6776C186.768 30.8897 186.705 31.0546 186.591 31.2392C186.505 31.3845 186.414 31.5888 186.391 31.6987C186.324 32.0169 186.218 32.2132 185.982 32.4724C185.656 32.8259 185.216 33.2265 184.969 33.3875C184.502 33.6978 183.155 35.2177 182.613 36.0424C182.275 36.5569 182.106 36.7965 181.949 36.9693C181.87 37.0596 181.76 37.2403 181.709 37.3738C181.611 37.6095 181.611 37.6213 181.666 37.9197C181.749 38.3557 181.662 39.1215 181.478 39.5457C181.313 39.9345 181.167 40.3626 181.167 40.4686C181.167 40.5904 181.466 41.3366 181.591 41.5251C181.713 41.7058 181.98 41.8982 182.436 42.1378C182.656 42.2556 182.754 42.3342 182.801 42.4245C182.836 42.4952 182.891 42.5777 182.923 42.613C182.962 42.6601 182.974 42.7544 182.966 42.9272C182.954 43.1707 182.95 43.1785 182.813 43.2492C182.554 43.3749 181.933 43.4142 181.026 43.3631C179.679 43.2885 179.533 43.206 178.819 42.1181C178.595 41.7725 178.23 41.2698 178.014 40.9988C177.554 40.4254 177.409 40.1544 177.472 39.9738C177.495 39.9109 177.542 39.8088 177.582 39.7499C177.625 39.691 177.676 39.6007 177.699 39.5457C177.727 39.4907 177.825 39.2786 177.919 39.0744C178.017 38.8702 178.175 38.5796 178.277 38.4303C178.375 38.2811 178.485 38.0768 178.524 37.9787C179.027 36.6041 179.361 35.956 180.009 35.1077C180.291 34.7385 180.523 34.3183 180.617 34.008C180.786 33.4346 181.069 32.983 181.682 32.2918C182.149 31.7655 182.408 31.5024 182.593 31.3649C182.671 31.306 182.781 31.1685 182.836 31.0625C182.887 30.9604 182.974 30.8426 183.021 30.7994C183.19 30.6658 183.257 30.438 183.257 30.0139C183.257 29.6133 183.198 29.2873 182.907 28.0973C182.75 27.4532 182.742 27.3629 182.774 25.3088C182.785 24.5783 182.734 24.1463 182.624 23.9932C182.377 23.6515 182.228 23.0113 182.228 22.3044C182.228 22.0295 182.243 21.7938 182.263 21.7742C182.283 21.7506 182.338 21.5346 182.381 21.2911C182.428 21.0476 182.483 20.808 182.503 20.757C182.522 20.7059 182.522 20.6509 182.503 20.6313C182.487 20.6117 182.507 20.4114 182.55 20.1836C182.593 19.9558 182.628 19.728 182.628 19.673C182.624 19.618 182.624 19.4413 182.62 19.2763C182.613 18.9229 182.683 18.2748 182.758 18.0039C182.785 17.8939 182.821 17.7172 182.836 17.6111C182.852 17.5011 182.887 17.2812 182.919 17.1202C183.005 16.6882 182.997 16.374 182.884 15.8241C182.777 15.3097 182.699 14.4496 182.699 13.7858C182.699 13.5698 182.675 13.2753 182.644 13.126C182.585 12.859 182.479 11.7828 182.44 11.0523C182.428 10.8363 182.393 10.5732 182.361 10.4672C182.298 10.2394 182.29 9.73666 182.345 9.54029C182.369 9.46567 182.404 9.26144 182.428 9.08864C182.475 8.73124 182.62 8.38956 182.836 8.13821C182.954 8.00075 183.5 7.51375 184.129 6.98355C184.242 6.88929 184.745 6.5476 185.11 6.31589C185.252 6.22556 185.264 6.20199 185.275 6.02526C185.283 5.8446 185.279 5.83674 185.224 5.90744C185.165 5.98206 185.165 5.97813 185.189 5.85638C185.201 5.78569 185.197 5.73463 185.177 5.74641C185.126 5.78176 185.095 5.60896 185.138 5.53041C185.169 5.4715 185.161 5.46364 185.114 5.48328C185.071 5.49899 185.083 5.45971 185.154 5.35367C185.244 5.22014 185.256 5.17694 185.232 5.00806C185.22 4.90202 185.189 4.78027 185.169 4.741C185.146 4.69387 185.146 4.64281 185.173 4.59568C185.232 4.48571 185.224 4.46608 185.134 4.51321C185.075 4.54462 185.055 4.54462 185.055 4.50928C185.055 4.47786 185.04 4.47786 184.996 4.51321C184.949 4.55248 184.938 4.55248 184.938 4.51321C184.938 4.48571 184.914 4.47393 184.887 4.48571C184.851 4.4975 184.871 4.40324 184.945 4.19116C185.004 4.02228 185.036 3.89268 185.008 3.90839C184.977 3.92802 184.973 3.91624 184.996 3.86126C185.016 3.82198 185.036 3.59027 185.044 3.35462C185.048 3.11505 185.063 2.82442 185.079 2.7066C185.091 2.58878 185.099 2.4199 185.095 2.3335C185.091 2.12927 185.165 1.819 185.236 1.76009C185.267 1.73653 185.291 1.67369 185.291 1.61871C185.291 1.43019 185.495 1.08065 185.766 0.813587C186.238 0.338371 186.98 0.0595245 187.573 0.138073C187.718 0.153782 187.761 0.145927 187.777 0.0988007C187.805 0.0281067 187.981 0.0163231 188.134 0.0713081C188.205 0.0988007 188.244 0.0948715 188.276 0.0516701C188.343 -0.0268784 188.421 -0.0150948 188.472 0.0791626ZM190.212 0.711475C190.224 0.742893 190.236 0.731113 190.236 0.687912C190.24 0.644711 190.228 0.621143 190.216 0.636852C190.204 0.648636 190.2 0.683983 190.212 0.711475ZM185.106 3.42139C185.118 3.44888 185.126 3.42924 185.126 3.37426C185.126 3.31927 185.118 3.29964 185.106 3.3232C185.099 3.35069 185.099 3.39782 185.106 3.42139Z" fill="url(#paint4_linear_418_785)"/>
<path d="M127.619 0.0791626C127.654 0.138073 127.678 0.149857 127.717 0.11451C127.748 0.0870171 127.776 0.0870171 127.792 0.11058C127.803 0.130219 127.85 0.138073 127.89 0.126289C127.929 0.11451 128 0.126289 128.047 0.149857C128.102 0.181274 128.153 0.185204 128.204 0.157711C128.271 0.118435 128.416 0.145927 128.601 0.23233C128.632 0.244114 128.738 0.259823 128.832 0.267677C129.033 0.275532 129.166 0.334442 129.127 0.393356C129.111 0.420845 129.131 0.420845 129.182 0.393356C129.249 0.358009 129.276 0.365864 129.343 0.452267C129.39 0.511177 129.425 0.570087 129.425 0.589725C129.425 0.605434 129.457 0.617218 129.492 0.617218C129.61 0.613289 129.779 0.699692 129.802 0.770386C129.818 0.809662 129.849 0.896065 129.881 0.966755C129.912 1.03352 129.936 1.10029 129.936 1.116C129.936 1.17491 129.779 1.48125 129.72 1.52838C129.688 1.55587 129.661 1.61478 129.661 1.66191C129.661 1.70511 129.614 1.85042 129.563 1.98003C129.508 2.10963 129.465 2.25102 129.465 2.29422C129.461 2.44739 129.362 2.7498 129.327 2.71838C129.308 2.70267 129.315 2.71838 129.343 2.75373C129.382 2.80871 129.386 2.8362 129.351 2.87941C129.323 2.91475 129.315 3.00901 129.331 3.14647C129.351 3.31927 129.339 3.39782 129.272 3.55492C129.225 3.65703 129.158 3.77485 129.123 3.81413C129.08 3.86126 129.048 3.99871 129.033 4.2108C128.997 4.61139 128.726 5.48328 128.542 5.77783C128.471 5.89173 128.357 6.07632 128.294 6.18628C128.22 6.31196 128.129 6.40622 128.055 6.43764C127.988 6.46513 127.933 6.50833 127.933 6.53189C127.933 6.55546 127.98 6.72434 128.035 6.90893C128.086 7.09351 128.149 7.3488 128.169 7.47447C128.188 7.60408 128.227 7.7219 128.255 7.73761C128.282 7.75725 128.29 7.77296 128.271 7.77296C128.251 7.77296 128.255 7.79652 128.279 7.82401C128.302 7.85151 128.385 8.03609 128.459 8.23639C128.557 8.49167 128.656 8.66841 128.805 8.84907C129.04 9.13184 129.28 9.54422 129.653 10.2983C129.916 10.8403 129.971 11.0013 130.073 11.6061C130.152 12.0499 130.132 12.9296 130.034 13.3106C129.967 13.5934 129.897 14.2375 129.897 14.5988C129.897 14.7598 129.861 15.1918 129.822 15.561C129.665 16.9356 129.653 17.0809 129.653 17.6347C129.653 17.9449 129.669 18.6676 129.692 19.241C129.736 20.2857 129.775 20.5724 129.912 20.753C129.948 20.7962 129.975 20.8473 129.975 20.8669C129.975 20.8984 129.445 20.8748 129.139 20.8277C129.04 20.812 128.993 20.8198 128.993 20.8512C128.993 20.9062 129.264 21.2361 129.527 21.4993C129.665 21.6367 129.755 21.7663 129.814 21.9313C129.861 22.0609 129.928 22.2062 129.959 22.2572C129.991 22.3083 130.014 22.3947 130.007 22.4536C130.003 22.5204 130.097 22.7639 130.278 23.1291C130.666 23.9185 130.859 24.433 131.228 25.6623C131.688 27.2018 131.856 28.0384 131.88 28.8828C131.892 29.3737 131.896 29.4051 132.033 29.7193C132.135 29.9471 132.19 30.1396 132.214 30.3673C132.284 30.9879 132.32 31.7537 132.288 32.0993C132.257 32.4292 132.261 32.4724 132.371 32.7866C132.434 32.9712 132.497 33.2226 132.512 33.3404C132.528 33.4582 132.571 33.6192 132.61 33.6978C132.65 33.7724 132.697 33.9845 132.72 34.1691C132.74 34.3497 132.83 35.0292 132.917 35.6733C133.007 36.3213 133.09 37.0282 133.101 37.2442C133.125 37.6095 133.137 37.6605 133.27 37.8765C133.408 38.1043 133.412 38.124 133.416 38.5049C133.42 38.9448 133.459 39.0508 133.765 39.4868C133.859 39.6164 133.981 39.8206 134.04 39.9384C134.138 40.1348 134.146 40.178 134.123 40.4529C134.103 40.7082 134.107 40.7593 134.17 40.8142C134.295 40.9281 135.104 41.3091 135.387 41.3877C135.536 41.4269 135.701 41.4858 135.752 41.5133C135.803 41.5408 135.957 41.5644 136.09 41.5644C136.31 41.5683 136.369 41.5487 136.856 41.3012C137.445 41.0028 137.598 40.9792 137.909 41.1284C138.101 41.2266 138.321 41.5251 138.278 41.639C138.25 41.7176 137.414 42.4009 137.052 42.6444C136.554 42.9783 136.027 43.1943 134.826 43.5477C134.456 43.6538 133.804 43.8698 133.372 44.0229C132.94 44.1761 132.524 44.3057 132.449 44.3096C132.32 44.3175 132.312 44.3096 132.237 44.1054C132.175 43.9326 132.171 43.8737 132.206 43.7755C132.245 43.6695 132.241 43.6381 132.155 43.5124C131.986 43.2689 131.864 42.9468 131.719 42.3891C131.644 42.0867 131.483 41.5408 131.362 41.1756C131.244 40.8064 131.087 40.2526 131.016 39.9384C130.949 39.6242 130.847 39.2786 130.792 39.1726C130.737 39.0626 130.643 38.827 130.584 38.6424C130.525 38.4578 130.415 38.1632 130.34 37.9865C130.27 37.8059 130.168 37.4799 130.113 37.2599C130.014 36.8397 129.849 36.3174 129.606 35.6301C129.425 35.1352 129.201 34.1809 129.15 33.7135C129.127 33.5171 129.092 32.9673 129.072 32.4881C129.04 31.7223 129.025 31.6045 128.954 31.4867C128.911 31.416 128.875 31.3256 128.875 31.2864C128.875 31.2471 128.832 31.1332 128.781 31.0311C128.73 30.929 128.679 30.7758 128.663 30.6894C128.648 30.603 128.585 30.3909 128.518 30.2181C128.404 29.9157 128.294 29.7468 127.462 28.5882C127.32 28.3958 127.053 27.9598 126.865 27.6221C126.476 26.923 126.519 26.9112 126.437 27.7046C126.37 28.3919 126.209 29.4719 126.107 29.9432C126.056 30.1788 125.985 30.5127 125.954 30.6776C125.914 30.8897 125.851 31.0546 125.737 31.2392C125.651 31.3845 125.561 31.5888 125.537 31.6987C125.47 32.0169 125.364 32.2132 125.129 32.4724C124.803 32.8259 124.363 33.2265 124.115 33.3875C123.648 33.6978 122.301 35.2177 121.759 36.0424C121.421 36.5569 121.252 36.7965 121.095 36.9693C121.017 37.0596 120.907 37.2403 120.856 37.3738C120.758 37.6095 120.758 37.6213 120.813 37.9197C120.895 38.3557 120.809 39.1215 120.624 39.5457C120.459 39.9345 120.314 40.3626 120.314 40.4686C120.314 40.5904 120.612 41.3366 120.738 41.5251C120.86 41.7058 121.127 41.8982 121.582 42.1378C121.802 42.2556 121.9 42.3342 121.948 42.4245C121.983 42.4952 122.038 42.5777 122.069 42.613C122.109 42.6601 122.12 42.7544 122.112 42.9272C122.101 43.1707 122.097 43.1785 121.959 43.2492C121.7 43.3749 121.08 43.4142 120.172 43.3631C118.825 43.2885 118.68 43.206 117.965 42.1181C117.741 41.7725 117.376 41.2698 117.16 40.9988C116.701 40.4254 116.555 40.1544 116.618 39.9738C116.642 39.9109 116.689 39.8088 116.728 39.7499C116.771 39.691 116.822 39.6007 116.846 39.5457C116.873 39.4907 116.972 39.2786 117.066 39.0744C117.164 38.8702 117.321 38.5796 117.423 38.4303C117.521 38.2811 117.631 38.0768 117.671 37.9787C118.173 36.6041 118.507 35.956 119.155 35.1077C119.438 34.7385 119.67 34.3183 119.764 34.008C119.933 33.4346 120.216 32.983 120.828 32.2918C121.296 31.7655 121.555 31.5024 121.739 31.3649C121.818 31.306 121.928 31.1685 121.983 31.0625C122.034 30.9604 122.12 30.8426 122.167 30.7994C122.336 30.6658 122.403 30.438 122.403 30.0139C122.403 29.6133 122.344 29.2873 122.054 28.0973C121.896 27.4532 121.889 27.3629 121.92 25.3088C121.932 24.5783 121.881 24.1463 121.771 23.9932C121.523 23.6515 121.374 23.0113 121.374 22.3044C121.374 22.0295 121.39 21.7938 121.409 21.7742C121.429 21.7506 121.484 21.5346 121.527 21.2911C121.574 21.0476 121.629 20.808 121.649 20.757C121.669 20.7059 121.669 20.6509 121.649 20.6313C121.633 20.6117 121.653 20.4114 121.696 20.1836C121.739 19.9558 121.775 19.728 121.775 19.673C121.771 19.618 121.771 19.4413 121.767 19.2763C121.759 18.9229 121.83 18.2748 121.904 18.0039C121.932 17.8939 121.967 17.7172 121.983 17.6111C121.999 17.5011 122.034 17.2812 122.065 17.1202C122.152 16.6882 122.144 16.374 122.03 15.8241C121.924 15.3097 121.845 14.4496 121.845 13.7858C121.845 13.5698 121.822 13.2753 121.79 13.126C121.732 12.859 121.625 11.7828 121.586 11.0523C121.574 10.8363 121.539 10.5732 121.508 10.4672C121.445 10.2394 121.437 9.73666 121.492 9.54029C121.516 9.46567 121.551 9.26144 121.574 9.08864C121.622 8.73124 121.767 8.38956 121.983 8.13821C122.101 8.00075 122.647 7.51375 123.275 6.98355C123.389 6.88929 123.892 6.5476 124.257 6.31589C124.398 6.22556 124.41 6.20199 124.422 6.02526C124.43 5.8446 124.426 5.83674 124.371 5.90744C124.312 5.98206 124.312 5.97813 124.335 5.85638C124.347 5.78569 124.343 5.73463 124.324 5.74641C124.273 5.78176 124.241 5.60896 124.284 5.53041C124.316 5.4715 124.308 5.46364 124.261 5.48328C124.218 5.49899 124.229 5.45971 124.3 5.35367C124.39 5.22014 124.402 5.17694 124.379 5.00806C124.367 4.90202 124.335 4.78027 124.316 4.741C124.292 4.69387 124.292 4.64281 124.32 4.59568C124.379 4.48571 124.371 4.46608 124.28 4.51321C124.222 4.54462 124.202 4.54462 124.202 4.50928C124.202 4.47786 124.186 4.47786 124.143 4.51321C124.096 4.55248 124.084 4.55248 124.084 4.51321C124.084 4.48571 124.06 4.47393 124.033 4.48571C123.998 4.4975 124.017 4.40324 124.092 4.19116C124.151 4.02228 124.182 3.89268 124.155 3.90839C124.123 3.92802 124.119 3.91624 124.143 3.86126C124.163 3.82198 124.182 3.59027 124.19 3.35462C124.194 3.11505 124.21 2.82442 124.225 2.7066C124.237 2.58878 124.245 2.4199 124.241 2.3335C124.237 2.12927 124.312 1.819 124.383 1.76009C124.414 1.73653 124.438 1.67369 124.438 1.61871C124.438 1.43019 124.642 1.08065 124.913 0.813587C125.384 0.338371 126.126 0.0595245 126.719 0.138073C126.865 0.153782 126.908 0.145927 126.924 0.0988007C126.951 0.0281067 127.128 0.0163231 127.281 0.0713081C127.352 0.0988007 127.391 0.0948715 127.422 0.0516701C127.489 -0.0268784 127.568 -0.0150948 127.619 0.0791626ZM129.359 0.711475C129.37 0.742893 129.382 0.731113 129.382 0.687912C129.386 0.644711 129.374 0.621143 129.362 0.636852C129.351 0.648636 129.347 0.683983 129.359 0.711475ZM124.253 3.42139C124.265 3.44888 124.273 3.42924 124.273 3.37426C124.273 3.31927 124.265 3.29964 124.253 3.3232C124.245 3.35069 124.245 3.39782 124.253 3.42139Z" fill="url(#paint5_linear_418_785)"/>
<path d="M235.436 0.0791626C235.471 0.138073 235.495 0.149857 235.534 0.11451C235.566 0.0870171 235.593 0.0870171 235.609 0.11058C235.621 0.130219 235.668 0.138073 235.707 0.126289C235.746 0.11451 235.817 0.126289 235.864 0.149857C235.919 0.181274 235.97 0.185204 236.021 0.157711C236.088 0.118435 236.233 0.145927 236.418 0.23233C236.449 0.244114 236.555 0.259823 236.65 0.267677C236.85 0.275532 236.984 0.334442 236.944 0.393356C236.929 0.420845 236.948 0.420845 236.999 0.393356C237.066 0.358009 237.093 0.365864 237.16 0.452267C237.207 0.511177 237.243 0.570087 237.243 0.589725C237.243 0.605434 237.274 0.617218 237.309 0.617218C237.427 0.613289 237.596 0.699692 237.62 0.770386C237.635 0.809662 237.667 0.896065 237.698 0.966755C237.73 1.03352 237.753 1.10029 237.753 1.116C237.753 1.17491 237.596 1.48125 237.537 1.52838C237.506 1.55587 237.478 1.61478 237.478 1.66191C237.478 1.70511 237.431 1.85042 237.38 1.98003C237.325 2.10963 237.282 2.25102 237.282 2.29422C237.278 2.44739 237.18 2.7498 237.145 2.71838C237.125 2.70267 237.133 2.71838 237.16 2.75373C237.2 2.80871 237.203 2.8362 237.168 2.87941C237.141 2.91475 237.133 3.00901 237.148 3.14647C237.168 3.31927 237.156 3.39782 237.09 3.55492C237.042 3.65703 236.976 3.77485 236.94 3.81413C236.897 3.86126 236.866 3.99871 236.85 4.2108C236.815 4.61139 236.544 5.48328 236.359 5.77783C236.288 5.89173 236.174 6.07632 236.112 6.18628C236.037 6.31196 235.947 6.40622 235.872 6.43764C235.805 6.46513 235.75 6.50833 235.75 6.53189C235.75 6.55546 235.797 6.72434 235.852 6.90893C235.903 7.09351 235.966 7.3488 235.986 7.47447C236.006 7.60408 236.045 7.7219 236.072 7.73761C236.1 7.75725 236.108 7.77296 236.088 7.77296C236.068 7.77296 236.072 7.79652 236.096 7.82401C236.119 7.85151 236.202 8.03609 236.277 8.23639C236.375 8.49167 236.473 8.66841 236.622 8.84907C236.858 9.13184 237.097 9.54422 237.471 10.2983C237.734 10.8403 237.789 11.0013 237.891 11.6061C237.969 12.0499 237.95 12.9296 237.851 13.3106C237.785 13.5934 237.714 14.2375 237.714 14.5988C237.714 14.7598 237.679 15.1918 237.639 15.561C237.482 16.9356 237.471 17.0809 237.471 17.6347C237.471 17.9449 237.486 18.6676 237.51 19.241C237.553 20.2857 237.592 20.5724 237.73 20.753C237.765 20.7962 237.793 20.8473 237.793 20.8669C237.793 20.8984 237.262 20.8748 236.956 20.8277C236.858 20.812 236.811 20.8198 236.811 20.8512C236.811 20.9062 237.082 21.2361 237.345 21.4993C237.482 21.6367 237.573 21.7663 237.632 21.9313C237.679 22.0609 237.745 22.2062 237.777 22.2572C237.808 22.3083 237.832 22.3947 237.824 22.4536C237.82 22.5204 237.914 22.7639 238.095 23.1291C238.484 23.9185 238.676 24.433 239.045 25.6623C239.505 27.2018 239.674 28.0384 239.697 28.8828C239.709 29.3737 239.713 29.4051 239.851 29.7193C239.953 29.9471 240.008 30.1396 240.031 30.3673C240.102 30.9879 240.137 31.7537 240.106 32.0993C240.074 32.4292 240.078 32.4724 240.188 32.7866C240.251 32.9712 240.314 33.2226 240.33 33.3404C240.345 33.4582 240.389 33.6192 240.428 33.6978C240.467 33.7724 240.514 33.9845 240.538 34.1691C240.557 34.3497 240.648 35.0292 240.734 35.6733C240.825 36.3213 240.907 37.0282 240.919 37.2442C240.942 37.6095 240.954 37.6605 241.088 37.8765C241.225 38.1043 241.229 38.124 241.233 38.5049C241.237 38.9448 241.276 39.0508 241.583 39.4868C241.677 39.6164 241.799 39.8206 241.857 39.9384C241.956 40.1348 241.963 40.178 241.94 40.4529C241.92 40.7082 241.924 40.7593 241.987 40.8142C242.113 40.9281 242.922 41.3091 243.205 41.3877C243.354 41.4269 243.519 41.4858 243.57 41.5133C243.621 41.5408 243.774 41.5644 243.908 41.5644C244.127 41.5683 244.186 41.5487 244.673 41.3012C245.262 41.0028 245.416 40.9792 245.726 41.1284C245.918 41.2266 246.138 41.5251 246.095 41.639C246.068 41.7176 245.231 42.4009 244.87 42.6444C244.371 42.9783 243.845 43.1943 242.643 43.5477C242.274 43.6538 241.622 43.8698 241.19 44.0229C240.758 44.1761 240.341 44.3057 240.267 44.3096C240.137 44.3175 240.129 44.3096 240.055 44.1054C239.992 43.9326 239.988 43.8737 240.023 43.7755C240.063 43.6695 240.059 43.6381 239.972 43.5124C239.803 43.2689 239.682 42.9468 239.536 42.3891C239.462 42.0867 239.301 41.5408 239.179 41.1756C239.061 40.8064 238.904 40.2526 238.833 39.9384C238.767 39.6242 238.664 39.2786 238.609 39.1726C238.554 39.0626 238.46 38.827 238.401 38.6424C238.342 38.4578 238.232 38.1632 238.158 37.9865C238.087 37.8059 237.985 37.4799 237.93 37.2599C237.832 36.8397 237.667 36.3174 237.423 35.6301C237.243 35.1352 237.019 34.1809 236.968 33.7135C236.944 33.5171 236.909 32.9673 236.889 32.4881C236.858 31.7223 236.842 31.6045 236.771 31.4867C236.728 31.416 236.693 31.3256 236.693 31.2864C236.693 31.2471 236.65 31.1332 236.599 31.0311C236.548 30.929 236.497 30.7758 236.481 30.6894C236.465 30.603 236.402 30.3909 236.335 30.2181C236.222 29.9157 236.112 29.7468 235.279 28.5882C235.138 28.3958 234.871 27.9598 234.682 27.6221C234.293 26.923 234.336 26.9112 234.254 27.7046C234.187 28.3919 234.026 29.4719 233.924 29.9432C233.873 30.1788 233.802 30.5127 233.771 30.6776C233.732 30.8897 233.669 31.0546 233.555 31.2392C233.468 31.3845 233.378 31.5888 233.355 31.6987C233.288 32.0169 233.182 32.2132 232.946 32.4724C232.62 32.8259 232.18 33.2265 231.933 33.3875C231.465 33.6978 230.118 35.2177 229.576 36.0424C229.239 36.5569 229.07 36.7965 228.913 36.9693C228.834 37.0596 228.724 37.2403 228.673 37.3738C228.575 37.6095 228.575 37.6213 228.63 37.9197C228.712 38.3557 228.626 39.1215 228.441 39.5457C228.276 39.9345 228.131 40.3626 228.131 40.4686C228.131 40.5904 228.43 41.3366 228.555 41.5251C228.677 41.7058 228.944 41.8982 229.4 42.1378C229.62 42.2556 229.718 42.3342 229.765 42.4245C229.8 42.4952 229.855 42.5777 229.887 42.613C229.926 42.6601 229.938 42.7544 229.93 42.9272C229.918 43.1707 229.914 43.1785 229.777 43.2492C229.518 43.3749 228.897 43.4142 227.99 43.3631C226.643 43.2885 226.497 43.206 225.783 42.1181C225.559 41.7725 225.193 41.2698 224.977 40.9988C224.518 40.4254 224.373 40.1544 224.435 39.9738C224.459 39.9109 224.506 39.8088 224.545 39.7499C224.589 39.691 224.64 39.6007 224.663 39.5457C224.691 39.4907 224.789 39.2786 224.883 39.0744C224.981 38.8702 225.138 38.5796 225.241 38.4303C225.339 38.2811 225.449 38.0768 225.488 37.9787C225.991 36.6041 226.325 35.956 226.973 35.1077C227.255 34.7385 227.487 34.3183 227.581 34.008C227.75 33.4346 228.033 32.983 228.646 32.2918C229.113 31.7655 229.372 31.5024 229.557 31.3649C229.635 31.306 229.745 31.1685 229.8 31.0625C229.851 30.9604 229.938 30.8426 229.985 30.7994C230.154 30.6658 230.221 30.438 230.221 30.0139C230.221 29.6133 230.162 29.2873 229.871 28.0973C229.714 27.4532 229.706 27.3629 229.737 25.3088C229.749 24.5783 229.698 24.1463 229.588 23.9932C229.341 23.6515 229.192 23.0113 229.192 22.3044C229.192 22.0295 229.207 21.7938 229.227 21.7742C229.247 21.7506 229.301 21.5346 229.345 21.2911C229.392 21.0476 229.447 20.808 229.466 20.757C229.486 20.7059 229.486 20.6509 229.466 20.6313C229.451 20.6117 229.47 20.4114 229.514 20.1836C229.557 19.9558 229.592 19.728 229.592 19.673C229.588 19.618 229.588 19.4413 229.584 19.2763C229.576 18.9229 229.647 18.2748 229.722 18.0039C229.749 17.8939 229.785 17.7172 229.8 17.6111C229.816 17.5011 229.851 17.2812 229.883 17.1202C229.969 16.6882 229.961 16.374 229.847 15.8241C229.741 15.3097 229.663 14.4496 229.663 13.7858C229.663 13.5698 229.639 13.2753 229.608 13.126C229.549 12.859 229.443 11.7828 229.404 11.0523C229.392 10.8363 229.356 10.5732 229.325 10.4672C229.262 10.2394 229.254 9.73666 229.309 9.54029C229.333 9.46567 229.368 9.26144 229.392 9.08864C229.439 8.73124 229.584 8.38956 229.8 8.13821C229.918 8.00075 230.464 7.51375 231.092 6.98355C231.206 6.88929 231.709 6.5476 232.074 6.31589C232.216 6.22556 232.227 6.20199 232.239 6.02526C232.247 5.8446 232.243 5.83674 232.188 5.90744C232.129 5.98206 232.129 5.97813 232.153 5.85638C232.165 5.78569 232.161 5.73463 232.141 5.74641C232.09 5.78176 232.059 5.60896 232.102 5.53041C232.133 5.4715 232.125 5.46364 232.078 5.48328C232.035 5.49899 232.047 5.45971 232.117 5.35367C232.208 5.22014 232.22 5.17694 232.196 5.00806C232.184 4.90202 232.153 4.78027 232.133 4.741C232.11 4.69387 232.11 4.64281 232.137 4.59568C232.196 4.48571 232.188 4.46608 232.098 4.51321C232.039 4.54462 232.019 4.54462 232.019 4.50928C232.019 4.47786 232.004 4.47786 231.96 4.51321C231.913 4.55248 231.901 4.55248 231.901 4.51321C231.901 4.48571 231.878 4.47393 231.85 4.48571C231.815 4.4975 231.835 4.40324 231.909 4.19116C231.968 4.02228 232 3.89268 231.972 3.90839C231.941 3.92802 231.937 3.91624 231.96 3.86126C231.98 3.82198 232 3.59027 232.007 3.35462C232.011 3.11505 232.027 2.82442 232.043 2.7066C232.055 2.58878 232.062 2.4199 232.059 2.3335C232.055 2.12927 232.129 1.819 232.2 1.76009C232.231 1.73653 232.255 1.67369 232.255 1.61871C232.255 1.43019 232.459 1.08065 232.73 0.813587C233.201 0.338371 233.944 0.0595245 234.537 0.138073C234.682 0.153782 234.725 0.145927 234.741 0.0988007C234.768 0.0281067 234.945 0.0163231 235.098 0.0713081C235.169 0.0988007 235.208 0.0948715 235.24 0.0516701C235.307 -0.0268784 235.385 -0.0150948 235.436 0.0791626ZM237.176 0.711475C237.188 0.742893 237.2 0.731113 237.2 0.687912C237.203 0.644711 237.192 0.621143 237.18 0.636852C237.168 0.648636 237.164 0.683983 237.176 0.711475ZM232.07 3.42139C232.082 3.44888 232.09 3.42924 232.09 3.37426C232.09 3.31927 232.082 3.29964 232.07 3.3232C232.062 3.35069 232.062 3.39782 232.07 3.42139Z" fill="url(#paint6_linear_418_785)"/>
<path d="M432.55 0.0791626C432.586 0.138073 432.609 0.149857 432.649 0.11451C432.68 0.0870171 432.707 0.0870171 432.723 0.11058C432.735 0.130219 432.782 0.138073 432.821 0.126289C432.861 0.11451 432.931 0.126289 432.978 0.149857C433.033 0.181274 433.084 0.185204 433.136 0.157711C433.202 0.118435 433.348 0.145927 433.532 0.23233C433.564 0.244114 433.67 0.259823 433.764 0.267677C433.964 0.275532 434.098 0.334442 434.058 0.393356C434.043 0.420845 434.062 0.420845 434.113 0.393356C434.18 0.358009 434.208 0.365864 434.274 0.452267C434.322 0.511177 434.357 0.570087 434.357 0.589725C434.357 0.605434 434.388 0.617218 434.424 0.617218C434.542 0.613289 434.71 0.699692 434.734 0.770386C434.75 0.809662 434.781 0.896065 434.813 0.966755C434.844 1.03352 434.868 1.10029 434.868 1.116C434.868 1.17491 434.71 1.48125 434.652 1.52838C434.62 1.55587 434.593 1.61478 434.593 1.66191C434.593 1.70511 434.545 1.85042 434.494 1.98003C434.439 2.10963 434.396 2.25102 434.396 2.29422C434.392 2.44739 434.294 2.7498 434.259 2.71838C434.239 2.70267 434.247 2.71838 434.274 2.75373C434.314 2.80871 434.318 2.8362 434.282 2.87941C434.255 2.91475 434.247 3.00901 434.263 3.14647C434.282 3.31927 434.271 3.39782 434.204 3.55492C434.157 3.65703 434.09 3.77485 434.055 3.81413C434.011 3.86126 433.98 3.99871 433.964 4.2108C433.929 4.61139 433.658 5.48328 433.473 5.77783C433.403 5.89173 433.289 6.07632 433.226 6.18628C433.151 6.31196 433.061 6.40622 432.986 6.43764C432.92 6.46513 432.865 6.50833 432.865 6.53189C432.865 6.55546 432.912 6.72434 432.967 6.90893C433.018 7.09351 433.081 7.3488 433.1 7.47447C433.12 7.60408 433.159 7.7219 433.187 7.73761C433.214 7.75725 433.222 7.77296 433.202 7.77296C433.183 7.77296 433.187 7.79652 433.21 7.82401C433.234 7.85151 433.316 8.03609 433.391 8.23639C433.489 8.49167 433.587 8.66841 433.736 8.84907C433.972 9.13184 434.212 9.54422 434.585 10.2983C434.848 10.8403 434.903 11.0013 435.005 11.6061C435.084 12.0499 435.064 12.9296 434.966 13.3106C434.899 13.5934 434.828 14.2375 434.828 14.5988C434.828 14.7598 434.793 15.1918 434.754 15.561C434.597 16.9356 434.585 17.0809 434.585 17.6347C434.585 17.9449 434.6 18.6676 434.624 19.241C434.667 20.2857 434.707 20.5724 434.844 20.753C434.879 20.7962 434.907 20.8473 434.907 20.8669C434.907 20.8984 434.377 20.8748 434.07 20.8277C433.972 20.812 433.925 20.8198 433.925 20.8512C433.925 20.9062 434.196 21.2361 434.459 21.4993C434.597 21.6367 434.687 21.7663 434.746 21.9313C434.793 22.0609 434.86 22.2062 434.891 22.2572C434.923 22.3083 434.946 22.3947 434.938 22.4536C434.934 22.5204 435.029 22.7639 435.209 23.1291C435.598 23.9185 435.79 24.433 436.16 25.6623C436.619 27.2018 436.788 28.0384 436.812 28.8828C436.823 29.3737 436.827 29.4051 436.965 29.7193C437.067 29.9471 437.122 30.1396 437.145 30.3673C437.216 30.9879 437.251 31.7537 437.22 32.0993C437.189 32.4292 437.193 32.4724 437.303 32.7866C437.365 32.9712 437.428 33.2226 437.444 33.3404C437.46 33.4582 437.503 33.6192 437.542 33.6978C437.581 33.7724 437.629 33.9845 437.652 34.1691C437.672 34.3497 437.762 35.0292 437.848 35.6733C437.939 36.3213 438.021 37.0282 438.033 37.2442C438.057 37.6095 438.068 37.6605 438.202 37.8765C438.339 38.1043 438.343 38.124 438.347 38.5049C438.351 38.9448 438.39 39.0508 438.697 39.4868C438.791 39.6164 438.913 39.8206 438.972 39.9384C439.07 40.1348 439.078 40.178 439.054 40.4529C439.035 40.7082 439.038 40.7593 439.101 40.8142C439.227 40.9281 440.036 41.3091 440.319 41.3877C440.468 41.4269 440.633 41.4858 440.684 41.5133C440.735 41.5408 440.888 41.5644 441.022 41.5644C441.242 41.5683 441.301 41.5487 441.788 41.3012C442.377 41.0028 442.53 40.9792 442.84 41.1284C443.033 41.2266 443.253 41.5251 443.209 41.639C443.182 41.7176 442.345 42.4009 441.984 42.6444C441.485 42.9783 440.959 43.1943 439.757 43.5477C439.388 43.6538 438.736 43.8698 438.304 44.0229C437.872 44.1761 437.456 44.3057 437.381 44.3096C437.251 44.3175 437.244 44.3096 437.169 44.1054C437.106 43.9326 437.102 43.8737 437.138 43.7755C437.177 43.6695 437.173 43.6381 437.087 43.5124C436.918 43.2689 436.796 42.9468 436.651 42.3891C436.576 42.0867 436.415 41.5408 436.293 41.1756C436.175 40.8064 436.018 40.2526 435.948 39.9384C435.881 39.6242 435.779 39.2786 435.724 39.1726C435.669 39.0626 435.574 38.827 435.516 38.6424C435.457 38.4578 435.347 38.1632 435.272 37.9865C435.201 37.8059 435.099 37.4799 435.044 37.2599C434.946 36.8397 434.781 36.3174 434.538 35.6301C434.357 35.1352 434.133 34.1809 434.082 33.7135C434.058 33.5171 434.023 32.9673 434.004 32.4881C433.972 31.7223 433.956 31.6045 433.886 31.4867C433.842 31.416 433.807 31.3256 433.807 31.2864C433.807 31.2471 433.764 31.1332 433.713 31.0311C433.662 30.929 433.611 30.7758 433.595 30.6894C433.579 30.603 433.517 30.3909 433.45 30.2181C433.336 29.9157 433.226 29.7468 432.393 28.5882C432.252 28.3958 431.985 27.9598 431.796 27.6221C431.407 26.923 431.451 26.9112 431.368 27.7046C431.301 28.3919 431.14 29.4719 431.038 29.9432C430.987 30.1788 430.917 30.5127 430.885 30.6776C430.846 30.8897 430.783 31.0546 430.669 31.2392C430.583 31.3845 430.492 31.5888 430.469 31.6987C430.402 32.0169 430.296 32.2132 430.06 32.4724C429.734 32.8259 429.295 33.2265 429.047 33.3875C428.58 33.6978 427.233 35.2177 426.691 36.0424C426.353 36.5569 426.184 36.7965 426.027 36.9693C425.948 37.0596 425.838 37.2403 425.787 37.3738C425.689 37.6095 425.689 37.6213 425.744 37.9197C425.827 38.3557 425.74 39.1215 425.556 39.5457C425.391 39.9345 425.245 40.3626 425.245 40.4686C425.245 40.5904 425.544 41.3366 425.67 41.5251C425.791 41.7058 426.058 41.8982 426.514 42.1378C426.734 42.2556 426.832 42.3342 426.879 42.4245C426.915 42.4952 426.97 42.5777 427.001 42.613C427.04 42.6601 427.052 42.7544 427.044 42.9272C427.032 43.1707 427.028 43.1785 426.891 43.2492C426.632 43.3749 426.011 43.4142 425.104 43.3631C423.757 43.2885 423.612 43.206 422.897 42.1181C422.673 41.7725 422.308 41.2698 422.092 40.9988C421.632 40.4254 421.487 40.1544 421.55 39.9738C421.573 39.9109 421.62 39.8088 421.66 39.7499C421.703 39.691 421.754 39.6007 421.777 39.5457C421.805 39.4907 421.903 39.2786 421.997 39.0744C422.096 38.8702 422.253 38.5796 422.355 38.4303C422.453 38.2811 422.563 38.0768 422.602 37.9787C423.105 36.6041 423.439 35.956 424.087 35.1077C424.37 34.7385 424.601 34.3183 424.696 34.008C424.864 33.4346 425.147 32.983 425.76 32.2918C426.227 31.7655 426.486 31.5024 426.671 31.3649C426.75 31.306 426.86 31.1685 426.915 31.0625C426.966 30.9604 427.052 30.8426 427.099 30.7994C427.268 30.6658 427.335 30.438 427.335 30.0139C427.335 29.6133 427.276 29.2873 426.985 28.0973C426.828 27.4532 426.82 27.3629 426.852 25.3088C426.863 24.5783 426.812 24.1463 426.702 23.9932C426.455 23.6515 426.306 23.0113 426.306 22.3044C426.306 22.0295 426.321 21.7938 426.341 21.7742C426.361 21.7506 426.416 21.5346 426.459 21.2911C426.506 21.0476 426.561 20.808 426.581 20.757C426.6 20.7059 426.6 20.6509 426.581 20.6313C426.565 20.6117 426.585 20.4114 426.628 20.1836C426.671 19.9558 426.706 19.728 426.706 19.673C426.702 19.618 426.702 19.4413 426.699 19.2763C426.691 18.9229 426.761 18.2748 426.836 18.0039C426.863 17.8939 426.899 17.7172 426.915 17.6111C426.93 17.5011 426.966 17.2812 426.997 17.1202C427.083 16.6882 427.076 16.374 426.962 15.8241C426.856 15.3097 426.777 14.4496 426.777 13.7858C426.777 13.5698 426.754 13.2753 426.722 13.126C426.663 12.859 426.557 11.7828 426.518 11.0523C426.506 10.8363 426.471 10.5732 426.439 10.4672C426.376 10.2394 426.369 9.73666 426.424 9.54029C426.447 9.46567 426.483 9.26144 426.506 9.08864C426.553 8.73124 426.699 8.38956 426.915 8.13821C427.032 8.00075 427.578 7.51375 428.207 6.98355C428.321 6.88929 428.823 6.5476 429.189 6.31589C429.33 6.22556 429.342 6.20199 429.353 6.02526C429.361 5.8446 429.357 5.83674 429.302 5.90744C429.243 5.98206 429.243 5.97813 429.267 5.85638C429.279 5.78569 429.275 5.73463 429.255 5.74641C429.204 5.78176 429.173 5.60896 429.216 5.53041C429.247 5.4715 429.24 5.46364 429.192 5.48328C429.149 5.49899 429.161 5.45971 429.232 5.35367C429.322 5.22014 429.334 5.17694 429.31 5.00806C429.298 4.90202 429.267 4.78027 429.247 4.741C429.224 4.69387 429.224 4.64281 429.251 4.59568C429.31 4.48571 429.302 4.46608 429.212 4.51321C429.153 4.54462 429.134 4.54462 429.134 4.50928C429.134 4.47786 429.118 4.47786 429.075 4.51321C429.027 4.55248 429.016 4.55248 429.016 4.51321C429.016 4.48571 428.992 4.47393 428.965 4.48571C428.929 4.4975 428.949 4.40324 429.024 4.19116C429.082 4.02228 429.114 3.89268 429.086 3.90839C429.055 3.92802 429.051 3.91624 429.075 3.86126C429.094 3.82198 429.114 3.59027 429.122 3.35462C429.126 3.11505 429.141 2.82442 429.157 2.7066C429.169 2.58878 429.177 2.4199 429.173 2.3335C429.169 2.12927 429.243 1.819 429.314 1.76009C429.346 1.73653 429.369 1.67369 429.369 1.61871C429.369 1.43019 429.573 1.08065 429.844 0.813587C430.316 0.338371 431.058 0.0595245 431.651 0.138073C431.796 0.153782 431.84 0.145927 431.855 0.0988007C431.883 0.0281067 432.059 0.0163231 432.213 0.0713081C432.283 0.0988007 432.323 0.0948715 432.354 0.0516701C432.421 -0.0268784 432.499 -0.0150948 432.55 0.0791626ZM434.29 0.711475C434.302 0.742893 434.314 0.731113 434.314 0.687912C434.318 0.644711 434.306 0.621143 434.294 0.636852C434.282 0.648636 434.278 0.683983 434.29 0.711475ZM429.185 3.42139C429.196 3.44888 429.204 3.42924 429.204 3.37426C429.204 3.31927 429.196 3.29964 429.185 3.3232C429.177 3.35069 429.177 3.39782 429.185 3.42139Z" fill="url(#paint7_linear_418_785)"/>
<path d="M481.312 0.0840454C481.347 0.142956 481.371 0.154739 481.41 0.119392C481.441 0.0918999 481.469 0.0918999 481.484 0.115463C481.496 0.135101 481.543 0.142956 481.583 0.131172C481.622 0.119392 481.693 0.131172 481.74 0.154739C481.795 0.186157 481.846 0.190086 481.897 0.162594C481.964 0.123318 482.109 0.15081 482.293 0.237213C482.325 0.248997 482.431 0.264706 482.525 0.27256C482.725 0.280415 482.859 0.339325 482.82 0.398239C482.804 0.425728 482.824 0.425728 482.875 0.398239C482.941 0.362892 482.969 0.370747 483.036 0.45715C483.083 0.51606 483.118 0.57497 483.118 0.594608C483.118 0.610317 483.15 0.622101 483.185 0.622101C483.303 0.618172 483.472 0.704575 483.495 0.775269C483.511 0.814545 483.542 0.900948 483.574 0.971638C483.605 1.03841 483.629 1.10517 483.629 1.12088C483.629 1.17979 483.472 1.48613 483.413 1.53326C483.381 1.56075 483.354 1.61966 483.354 1.66679C483.354 1.70999 483.307 1.8553 483.256 1.98491C483.201 2.11451 483.157 2.2559 483.157 2.2991C483.154 2.45227 483.055 2.75468 483.02 2.72326C483 2.70755 483.008 2.72326 483.036 2.75861C483.075 2.81359 483.079 2.84109 483.044 2.88429C483.016 2.91964 483.008 3.01389 483.024 3.15135C483.044 3.32416 483.032 3.40271 482.965 3.5598C482.918 3.66191 482.851 3.77974 482.816 3.81901C482.773 3.86614 482.741 4.0036 482.725 4.21568C482.69 4.61628 482.419 5.48816 482.235 5.78271C482.164 5.89661 482.05 6.0812 481.987 6.19117C481.912 6.31684 481.822 6.4111 481.748 6.44252C481.681 6.47001 481.626 6.51321 481.626 6.53678C481.626 6.56034 481.673 6.72922 481.728 6.91381C481.779 7.0984 481.842 7.35368 481.861 7.47935C481.881 7.60896 481.92 7.72678 481.948 7.74249C481.975 7.76213 481.983 7.77784 481.964 7.77784C481.944 7.77784 481.948 7.8014 481.971 7.8289C481.995 7.85639 482.077 8.04098 482.152 8.24127C482.25 8.49656 482.348 8.67329 482.498 8.85395C482.733 9.13672 482.973 9.5491 483.346 10.3032C483.609 10.8451 483.664 11.0062 483.766 11.611C483.845 12.0548 483.825 12.9345 483.727 13.3155C483.66 13.5983 483.589 14.2424 483.589 14.6037C483.589 14.7647 483.554 15.1967 483.515 15.5659C483.358 16.9405 483.346 17.0858 483.346 17.6396C483.346 17.9498 483.362 18.6725 483.385 19.2459C483.428 20.2906 483.468 20.5773 483.605 20.7579C483.641 20.8011 483.668 20.8522 483.668 20.8718C483.668 20.9032 483.138 20.8797 482.832 20.8325C482.733 20.8168 482.686 20.8247 482.686 20.8561C482.686 20.9111 482.957 21.241 483.22 21.5041C483.358 21.6416 483.448 21.7712 483.507 21.9361C483.554 22.0658 483.621 22.2111 483.652 22.2621C483.684 22.3132 483.707 22.3996 483.699 22.4585C483.696 22.5253 483.79 22.7688 483.97 23.134C484.359 23.9234 484.552 24.4379 484.921 25.6672C485.38 27.2067 485.549 28.0433 485.573 28.8877C485.585 29.3786 485.589 29.41 485.726 29.7242C485.828 29.952 485.883 30.1444 485.907 30.3722C485.977 30.9928 486.013 31.7586 485.981 32.1042C485.95 32.4341 485.954 32.4773 486.064 32.7915C486.127 32.9761 486.189 33.2275 486.205 33.3453C486.221 33.4631 486.264 33.6241 486.303 33.7027C486.343 33.7773 486.39 33.9894 486.413 34.174C486.433 34.3546 486.523 35.0341 486.61 35.6782C486.7 36.3262 486.782 37.0331 486.794 37.2491C486.818 37.6144 486.83 37.6654 486.963 37.8814C487.101 38.1092 487.105 38.1289 487.108 38.5098C487.112 38.9497 487.152 39.0557 487.458 39.4917C487.552 39.6213 487.674 39.8255 487.733 39.9433C487.831 40.1397 487.839 40.1829 487.815 40.4578C487.796 40.7131 487.8 40.7641 487.863 40.8191C487.988 40.933 488.797 41.314 489.08 41.3925C489.229 41.4318 489.394 41.4907 489.445 41.5182C489.496 41.5457 489.649 41.5693 489.783 41.5693C490.003 41.5732 490.062 41.5536 490.549 41.3061C491.138 41.0076 491.291 40.9841 491.601 41.1333C491.794 41.2315 492.014 41.53 491.971 41.6439C491.943 41.7224 491.107 42.4058 490.745 42.6493C490.246 42.9831 489.72 43.1991 488.518 43.5526C488.149 43.6586 487.497 43.8747 487.065 44.0278C486.633 44.181 486.217 44.3106 486.142 44.3145C486.013 44.3224 486.005 44.3145 485.93 44.1103C485.867 43.9375 485.863 43.8786 485.899 43.7804C485.938 43.6744 485.934 43.6429 485.848 43.5173C485.679 43.2738 485.557 42.9517 485.412 42.394C485.337 42.0916 485.176 41.5457 485.054 41.1805C484.937 40.8113 484.779 40.2575 484.709 39.9433C484.642 39.6291 484.54 39.2835 484.485 39.1775C484.43 39.0675 484.336 38.8319 484.277 38.6473C484.218 38.4627 484.108 38.1681 484.033 37.9914C483.963 37.8107 483.86 37.4848 483.805 37.2648C483.707 36.8446 483.542 36.3222 483.299 35.635C483.118 35.1401 482.894 34.1857 482.843 33.7184C482.82 33.522 482.784 32.9722 482.765 32.493C482.733 31.7272 482.718 31.6094 482.647 31.4915C482.604 31.4208 482.568 31.3305 482.568 31.2912C482.568 31.252 482.525 31.1381 482.474 31.036C482.423 30.9338 482.372 30.7807 482.356 30.6943C482.341 30.6079 482.278 30.3958 482.211 30.223C482.097 29.9206 481.987 29.7517 481.154 28.5931C481.013 28.4007 480.746 27.9647 480.558 27.627C480.169 26.9279 480.212 26.9161 480.129 27.7094C480.063 28.3967 479.902 29.4768 479.8 29.9481C479.748 30.1837 479.678 30.5175 479.646 30.6825C479.607 30.8946 479.544 31.0595 479.43 31.2441C479.344 31.3894 479.254 31.5936 479.23 31.7036C479.163 32.0217 479.057 32.2181 478.822 32.4773C478.496 32.8308 478.056 33.2314 477.808 33.3924C477.341 33.7027 475.994 35.2226 475.452 36.0473C475.114 36.5618 474.945 36.8014 474.788 36.9742C474.71 37.0645 474.6 37.2452 474.549 37.3787C474.45 37.6144 474.45 37.6261 474.505 37.9246C474.588 38.3606 474.501 39.1264 474.317 39.5506C474.152 39.9394 474.007 40.3675 474.007 40.4735C474.007 40.5953 474.305 41.3415 474.431 41.53C474.553 41.7107 474.82 41.9031 475.275 42.1427C475.495 42.2605 475.593 42.339 475.64 42.4294C475.676 42.5001 475.731 42.5825 475.762 42.6179C475.801 42.665 475.813 42.7593 475.805 42.9321C475.794 43.1756 475.79 43.1834 475.652 43.2541C475.393 43.3798 474.772 43.4191 473.865 43.368C472.518 43.2934 472.373 43.2109 471.658 42.123C471.434 41.7774 471.069 41.2747 470.853 41.0037C470.393 40.4303 470.248 40.1593 470.311 39.9787C470.334 39.9158 470.382 39.8137 470.421 39.7548C470.464 39.6959 470.515 39.6056 470.539 39.5506C470.566 39.4956 470.664 39.2835 470.759 39.0793C470.857 38.8751 471.014 38.5844 471.116 38.4352C471.214 38.286 471.324 38.0817 471.363 37.9835C471.866 36.6089 472.2 35.9609 472.848 35.1126C473.131 34.7434 473.363 34.3232 473.457 34.0129C473.626 33.4395 473.908 32.9879 474.521 32.2967C474.988 31.7704 475.248 31.5072 475.432 31.3698C475.511 31.3109 475.621 31.1734 475.676 31.0674C475.727 30.9653 475.813 30.8474 475.86 30.8042C476.029 30.6707 476.096 30.4429 476.096 30.0188C476.096 29.6182 476.037 29.2922 475.746 28.1022C475.589 27.4581 475.582 27.3678 475.613 25.3137C475.625 24.5832 475.574 24.1512 475.464 23.998C475.216 23.6564 475.067 23.0162 475.067 22.3093C475.067 22.0343 475.083 21.7987 475.102 21.7791C475.122 21.7555 475.177 21.5395 475.22 21.296C475.267 21.0525 475.322 20.8129 475.342 20.7619C475.362 20.7108 475.362 20.6558 475.342 20.6362C475.326 20.6165 475.346 20.4162 475.389 20.1885C475.432 19.9607 475.468 19.7329 475.468 19.6779C475.464 19.6229 475.464 19.4462 475.46 19.2812C475.452 18.9278 475.523 18.2797 475.597 18.0087C475.625 17.8988 475.66 17.722 475.676 17.616C475.691 17.506 475.727 17.2861 475.758 17.1251C475.845 16.6931 475.837 16.3789 475.723 15.829C475.617 15.3145 475.538 14.4544 475.538 13.7907C475.538 13.5747 475.515 13.2801 475.483 13.1309C475.424 12.8638 475.318 11.7877 475.279 11.0572C475.267 10.8412 475.232 10.5781 475.201 10.472C475.138 10.2443 475.13 9.74154 475.185 9.54517C475.208 9.47055 475.244 9.26633 475.267 9.09352C475.314 8.73613 475.46 8.39444 475.676 8.14309C475.794 8.00563 476.339 7.51863 476.968 6.98843C477.082 6.89417 477.584 6.55249 477.95 6.32077C478.091 6.23044 478.103 6.20687 478.115 6.03014C478.123 5.84948 478.119 5.84163 478.064 5.91232C478.005 5.98694 478.005 5.98301 478.028 5.86126C478.04 5.79057 478.036 5.73951 478.016 5.7513C477.965 5.78664 477.934 5.61384 477.977 5.53529C478.009 5.47638 478.001 5.46852 477.954 5.48816C477.91 5.50387 477.922 5.4646 477.993 5.35855C478.083 5.22503 478.095 5.18182 478.071 5.01294C478.06 4.9069 478.028 4.78515 478.009 4.74588C477.985 4.69875 477.985 4.64769 478.013 4.60057C478.071 4.4906 478.064 4.47096 477.973 4.51809C477.914 4.54951 477.895 4.54951 477.895 4.51416C477.895 4.48274 477.879 4.48274 477.836 4.51809C477.789 4.55737 477.777 4.55737 477.777 4.51809C477.777 4.4906 477.753 4.47882 477.726 4.4906C477.691 4.50238 477.71 4.40812 477.785 4.19604C477.844 4.02716 477.875 3.89756 477.848 3.91327C477.816 3.93291 477.812 3.92112 477.836 3.86614C477.855 3.82687 477.875 3.59515 477.883 3.3595C477.887 3.11993 477.903 2.8293 477.918 2.71148C477.93 2.59366 477.938 2.42478 477.934 2.33838C477.93 2.13415 478.005 1.82389 478.075 1.76498C478.107 1.74141 478.13 1.67857 478.13 1.62359C478.13 1.43507 478.335 1.08553 478.606 0.81847C479.077 0.343254 479.819 0.0644073 480.412 0.142956C480.558 0.158665 480.601 0.15081 480.616 0.103683C480.644 0.0329895 480.821 0.0212059 480.974 0.0761909C481.045 0.103683 481.084 0.0997543 481.115 0.0565529C481.182 -0.0219955 481.261 -0.0102119 481.312 0.0840454ZM483.051 0.716358C483.063 0.747776 483.075 0.735996 483.075 0.692795C483.079 0.649593 483.067 0.626026 483.055 0.641735C483.044 0.653519 483.04 0.688866 483.051 0.716358ZM477.946 3.42627C477.958 3.45376 477.965 3.43412 477.965 3.37914C477.965 3.32416 477.958 3.30452 477.946 3.32808C477.938 3.35558 477.938 3.40271 477.946 3.42627Z" fill="url(#paint8_linear_418_785)"/>
<defs>
<linearGradient id="paint0_linear_418_785" x1="24.0994" y1="117.122" x2="585.053" y2="132.618" gradientUnits="userSpaceOnUse">
<stop stop-opacity="0"/>
<stop offset="0.570413"/>
<stop offset="1" stop-opacity="0"/>
</linearGradient>
<linearGradient id="paint1_linear_418_785" x1="24.0994" y1="101.246" x2="585.053" y2="116.742" gradientUnits="userSpaceOnUse">
<stop stop-opacity="0"/>
<stop offset="0.570413"/>
<stop offset="1" stop-opacity="0"/>
</linearGradient>
<linearGradient id="paint2_linear_418_785" x1="24.0994" y1="89.6058" x2="585.053" y2="105.101" gradientUnits="userSpaceOnUse">
<stop stop-opacity="0"/>
<stop offset="0.570413"/>
<stop offset="1" stop-opacity="0"/>
</linearGradient>
<linearGradient id="paint3_linear_418_785" x1="24.0994" y1="58.3842" x2="585.053" y2="73.8795" gradientUnits="userSpaceOnUse">
<stop stop-opacity="0"/>
<stop offset="0.570413"/>
<stop offset="1" stop-opacity="0"/>
</linearGradient>
<linearGradient id="paint4_linear_418_785" x1="188.016" y1="0.141708" x2="189.854" y2="38.169" gradientUnits="userSpaceOnUse">
<stop stop-color="#FF7474"/>
<stop offset="1" stop-color="#FFA5A5"/>
</linearGradient>
<linearGradient id="paint5_linear_418_785" x1="127.162" y1="0.141708" x2="129" y2="38.169" gradientUnits="userSpaceOnUse">
<stop stop-color="#FF7474"/>
<stop offset="1" stop-color="#FFA5A5"/>
</linearGradient>
<linearGradient id="paint6_linear_418_785" x1="234.98" y1="0.141708" x2="236.818" y2="38.169" gradientUnits="userSpaceOnUse">
<stop stop-color="#FF7474"/>
<stop offset="1" stop-color="#FFA5A5"/>
</linearGradient>
<linearGradient id="paint7_linear_418_785" x1="432.094" y1="0.141708" x2="433.932" y2="38.169" gradientUnits="userSpaceOnUse">
<stop stop-color="#FF7474"/>
<stop offset="1" stop-color="#FFA5A5"/>
</linearGradient>
<linearGradient id="paint8_linear_418_785" x1="480.855" y1="0.14659" x2="482.693" y2="38.1739" gradientUnits="userSpaceOnUse">
<stop stop-color="#FF7474"/>
<stop offset="1" stop-color="#FFA5A5"/>
</linearGradient>
</defs>
</svg>
