<svg width="50" height="50" viewBox="0 0 50 50" fill="none" xmlns="http://www.w3.org/2000/svg">
<circle cx="25" cy="25" r="25" fill="#EEF6FF"/>
<path d="M29.535 24.7571C29.535 27.3974 27.3947 29.5376 24.7544 29.5376C22.1141 29.5376 19.9739 27.3974 19.9739 24.7571C19.9739 22.1168 22.1141 19.9766 24.7544 19.9766C27.3947 19.9766 29.535 22.1168 29.535 24.7571Z" fill="url(#paint0_linear_421_1439)"/>
<path d="M35.9363 16.2992C35.7065 15.6765 35.3399 15.1128 34.8635 14.6502C34.4008 14.1738 33.8376 13.8072 33.2145 13.5774C32.7091 13.3811 31.95 13.1475 30.5517 13.0838C29.0391 13.0149 28.5856 13 24.7563 13C20.9266 13 20.4731 13.0145 18.9609 13.0835C17.5626 13.1475 16.8031 13.3811 16.2981 13.5774C15.675 13.8072 15.1114 14.1738 14.6491 14.6502C14.1727 15.1128 13.8061 15.6761 13.5759 16.2992C13.3796 16.8045 13.146 17.5641 13.0824 18.9623C13.0134 20.4746 12.9985 20.9281 12.9985 24.7578C12.9985 28.5871 13.0134 29.0406 13.0824 30.5532C13.146 31.9514 13.3796 32.7106 13.5759 33.2159C13.8061 33.839 14.1723 34.4023 14.6487 34.865C15.1114 35.3413 15.6746 35.708 16.2977 35.9378C16.8031 36.1344 17.5626 36.368 18.9609 36.4317C20.4731 36.5007 20.9262 36.5151 24.7559 36.5151C28.586 36.5151 29.0395 36.5007 30.5513 36.4317C31.9496 36.368 32.7091 36.1344 33.2145 35.9378C34.4652 35.4553 35.4538 34.4667 35.9363 33.2159C36.1326 32.7106 36.3662 31.9514 36.4302 30.5532C36.4992 29.0406 36.5137 28.5871 36.5137 24.7578C36.5137 20.9281 36.4992 20.4746 36.4302 18.9623C36.3666 17.5641 36.133 16.8045 35.9363 16.2992ZM24.7563 32.1218C20.6888 32.1218 17.3915 28.8249 17.3915 24.7574C17.3915 20.6899 20.6888 17.393 24.7563 17.393C28.8234 17.393 32.1207 20.6899 32.1207 24.7574C32.1207 28.8249 28.8234 32.1218 24.7563 32.1218ZM32.4119 18.8229C31.4614 18.8229 30.6908 18.0523 30.6908 17.1018C30.6908 16.1513 31.4614 15.3807 32.4119 15.3807C33.3623 15.3807 34.1329 16.1513 34.1329 17.1018C34.1325 18.0523 33.3623 18.8229 32.4119 18.8229Z" fill="url(#paint1_linear_421_1439)"/>
<defs>
<linearGradient id="paint0_linear_421_1439" x1="22.414" y1="30.9546" x2="29.3261" y2="20.7897" gradientUnits="userSpaceOnUse">
<stop stop-color="#0075FF"/>
<stop offset="1" stop-color="#85BDFF"/>
</linearGradient>
<linearGradient id="paint1_linear_421_1439" x1="19" y1="40" x2="36" y2="15" gradientUnits="userSpaceOnUse">
<stop stop-color="#0075FF"/>
<stop offset="1" stop-color="#85BDFF"/>
</linearGradient>
</defs>
</svg>
