<svg width="50" height="50" viewBox="0 0 50 50" fill="none" xmlns="http://www.w3.org/2000/svg">
<path d="M34.6004 20.1257C34.6137 20.3491 34.6137 20.5725 34.6137 20.7979C34.6137 27.6672 30.1073 35.5895 21.867 35.5895V35.5854C19.4328 35.5895 17.0492 34.7804 15 33.2548C15.354 33.3042 15.7097 33.3289 16.0663 33.33C18.0835 33.332 20.0431 32.5466 21.6302 31.1003C19.7131 31.0581 18.0321 29.6076 17.4448 27.4901C18.1164 27.6404 18.8083 27.6095 19.4674 27.4006C17.3774 26.9106 15.8738 24.7797 15.8738 22.305C15.8738 22.2823 15.8738 22.2607 15.8738 22.2391C16.4965 22.6416 17.1938 22.865 17.907 22.8897C15.9385 21.3631 15.3318 18.3242 16.5205 15.9484C18.795 19.1962 22.1509 21.1706 25.7534 21.3795C25.3923 19.5739 25.8856 17.6819 27.0494 16.4126C28.8538 14.4444 31.6916 14.5453 33.3877 16.6381C34.391 16.4085 35.3527 15.9813 36.2327 15.376C35.8982 16.5794 35.1983 17.6016 34.2633 18.2512C35.1513 18.1297 36.0189 17.8538 36.8359 17.4328C36.2344 18.4787 35.4769 19.3897 34.6004 20.1257Z" fill="url(#paint0_linear_412_210)"/>
<circle cx="25" cy="25" r="24.5" stroke="#0075FF"/>
<defs>
<linearGradient id="paint0_linear_412_210" x1="21.9126" y1="27.8457" x2="35.9126" y2="12.8457" gradientUnits="userSpaceOnUse">
<stop stop-color="#0075FF"/>
<stop offset="1" stop-color="#95C6FF"/>
</linearGradient>
</defs>
</svg>
